<svg width="24" height="24" viewBox="0 0 24 24" fill="none" xmlns="http://www.w3.org/2000/svg">
<path d="M13 9H5.5C3.567 9 2 7.433 2 5.5C2 3.567 3.567 2 5.5 2C7.433 2 9 3.567 9 5.5V7" stroke="currentColor" stroke-linecap="round"/>
<path d="M11 15L18.5 15C20.433 15 22 16.567 22 18.5C22 20.433 20.433 22 18.5 22C16.567 22 15 20.433 15 18.5L15 17" stroke="currentColor" stroke-linecap="round"/>
<path d="M15 13L15 5.5C15 3.567 16.567 2 18.5 2C20.433 2 22 3.567 22 5.5C22 7.433 20.433 9 18.5 9L17 9" stroke="currentColor" stroke-linecap="round"/>
<path d="M9 11L9 18.5C9 20.433 7.433 22 5.5 22C3.567 22 2 20.433 2 18.5C2 16.567 3.567 15 5.5 15L7 15" stroke="currentColor" stroke-linecap="round"/>
</svg>
