<svg width="24" height="24" viewBox="0 0 24 24" fill="none" xmlns="http://www.w3.org/2000/svg">
<path d="M8.8125 23.1601L5.11463 8.80202L6.36764 7.98625L11.0822 22.3975L8.8125 23.1601Z" stroke="currentColor" stroke-miterlimit="10"/>
<path d="M21.2729 15.7606L16.7032 11.9433L9.7207 5.80078L10.9737 4.985L22.8831 13.9973L21.2729 15.7606Z" stroke="currentColor" stroke-miterlimit="10"/>
<path d="M12.4769 20.6564L10.7812 20.9102C10.7571 20.9259 10.7203 20.9225 10.7203 20.9225L6.37066 7.98436L7.62354 7.16865L13.5413 19.4972L12.4769 20.6564Z" stroke="currentColor" stroke-miterlimit="10"/>
<path d="M17.4977 16.9202L8.46582 6.61914L9.7187 5.80343L16.8728 12.308L19.9151 14.9349C19.891 14.9506 19.8795 14.9855 19.8795 14.9855L18.9921 16.4134L17.4977 16.9202Z" stroke="currentColor" stroke-miterlimit="10"/>
<path d="M17.7156 17.0393L16.2825 19.3675L13.5395 19.7583L7.62748 7.16631L8.46271 6.62252L17.7156 17.0393Z" stroke="currentColor" stroke-miterlimit="10"/>
<path d="M4.75978 1.9066C6.37118 0.857072 8.50245 1.2366 9.50004 2.75072L10.9753 4.98991L5.11983 8.80368L3.64454 6.56448C2.64696 5.05036 3.14838 2.95612 4.75978 1.9066Z" stroke="currentColor" stroke-miterlimit="10"/>
<path d="M4.02441 7.14062L9.87991 3.32686" stroke="currentColor" stroke-miterlimit="10"/>
</svg>
