<svg width="24" height="24" viewBox="0 0 24 24" fill="none" xmlns="http://www.w3.org/2000/svg">
<path d="M4.56188 9.15349C6.09341 9.15349 7.02039 9.15349 8.18919 9.15349C9.92224 9.15349 10.7686 10.7163 11.8971 10.7163C13.4689 10.7163 15.0811 10.7163 16.6529 10.7163C17.4187 10.7163 18.0232 11.2744 18.0232 11.9814C18.0232 12.6884 17.4187 13.2465 16.6529 13.2465H11.6956M4.36036 13.8791L7.86676 15.5163C8.55192 15.8512 9.27738 16 10.0432 16H14.8393C15.6856 16 16.532 15.7767 17.2978 15.3674L22.376 12.6512C22.9806 12.3163 23.1821 11.6093 22.8194 11.0884C22.779 11.0512 22.779 11.014 22.779 10.9767C22.3357 10.4186 21.5296 10.2326 20.8445 10.5674L18.1845 11.9814M0.5 8H4.23945V14.6977H0.5V8Z" stroke="currentColor" stroke-miterlimit="10" stroke-linecap="round" stroke-linejoin="round"/>
</svg>
