<svg width="24" height="24" viewBox="0 0 24 24" fill="none" xmlns="http://www.w3.org/2000/svg">
<g clip-path="url(#clip0)">
<path fill-rule="evenodd" clip-rule="evenodd" d="M7.76923 20C8.55029 20 10.6331 19.8806 12.1953 18.806V19.6418H15.3195V16.0597L16.6213 14.7463L19.355 19.6418H23L18.8343 12.7164L23 8.29851H19.2248L15.3195 12.597V4.35821H12.1953V5.67164C11.284 4.71642 9.72189 4 7.3787 4C2.30178 4 1.26035 6.98507 1.26035 8.65672C1.26035 10.9254 2.56213 12.2388 4.77515 12.8358L7.8994 13.5522C9.59171 13.9104 10.7633 14.2687 10.7633 15.4627C10.7633 17.0149 9.071 17.4925 7.50887 17.4925C4.64497 17.4925 4.12426 15.8209 4.12426 14.9851H1C1 16.7761 2.04142 20 7.76923 20ZM9.85206 10.806L5.94674 9.85075C5.29585 9.73134 4.25444 9.49254 4.25444 8.29851C4.25444 6.86567 5.81657 6.50746 6.98816 6.50746C9.85207 6.50746 10.1124 8.1791 10.2426 8.77612H12.0651V11.6418C11.4142 11.2836 10.6331 11.0448 9.85206 10.806Z" stroke="currentColor" stroke-miterlimit="10"/>
</g>
<defs>
<clipPath id="clip0">
<rect width="24" height="24" fill="currentColor"/>
</clipPath>
</defs>
</svg>
