<svg width="24" height="24" viewBox="0 0 24 24" fill="none" xmlns="http://www.w3.org/2000/svg">
<path d="M13 13C13.496 14.0274 13.7647 14.9811 13.8267 16.1095C13.8474 16.5474 13.8267 17.0021 13.7854 17.4568C13.6614 18.6695 13.31 19.5789 13.1447 20H17.8155C18.0015 19.2253 18.4721 14.5316 15 11.5" stroke="currentColor"/>
<path d="M1 22.7692C1 21.2398 2.23983 20 3.76923 20H20.2308C21.7602 20 23 21.2398 23 22.7692V22.7692C23 22.8967 22.8967 23 22.7692 23H1.23077C1.10332 23 1 22.8967 1 22.7692V22.7692Z" stroke="currentColor"/>
<circle cx="12" cy="10" r="3" stroke="currentColor"/>
<circle cx="12" cy="10" r="1" stroke="currentColor"/>
<path d="M9.67751 12L8.03366 13.6439C7.64313 14.0344 7.00997 14.0344 6.61944 13.6439L4.49812 11.5225C4.1076 11.132 4.1076 10.4988 4.49812 10.1083L11.1723 3.43413C11.5628 3.04361 12.196 3.04361 12.5865 3.43413L14.7078 5.55545C15.0984 5.94598 15.0984 6.57914 14.7078 6.96967L13.9806 7.69692" stroke="currentColor"/>
<rect x="12.5332" y="3.37891" width="3.76095" height="3" rx="1" transform="rotate(-45 12.5332 3.37891)" stroke="currentColor"/>
<path d="M13.5 17H4" stroke="currentColor" stroke-linecap="round"/>
</svg>
