<svg width="24" height="24" viewBox="0 0 24 24" fill="none" xmlns="http://www.w3.org/2000/svg">
<path d="M22.7241 8.87075L12.481 12.898C12.1698 13.034 11.8302 13.034 11.4907 12.898L1.27588 8.87075C0.908039 8.73469 0.908039 8.21769 1.27588 8.08163L11.519 4.08163C11.8302 3.97279 12.1698 3.97279 12.481 4.08163L22.7241 8.05442C23.092 8.21769 23.092 8.70748 22.7241 8.87075Z" stroke="currentColor" stroke-miterlimit="10"/>
<path d="M20 10V15.4935C20 16.0779 19.6641 16.6331 19.145 16.9545C17.8626 17.7143 15.2366 19 12 19C8.76336 19 6.1374 17.7143 4.85496 16.9545C4.33588 16.6331 4 16.0779 4 15.4935V10" stroke="currentColor" stroke-miterlimit="10"/>
<path d="M1 8.5V14.9997" stroke="currentColor" stroke-miterlimit="10" stroke-linecap="round"/>
</svg>
