<svg width="24" height="24" viewBox="0 0 24 24" fill="none" xmlns="http://www.w3.org/2000/svg">
<path d="M15.629 20H8.42072C7.63149 20 7.0001 19.2 7.0001 18.2C7.0001 17.2344 6.88899 16.0408 7.52626 15.2333C8.45646 13.7404 10.2923 13 11.9986 13C13.708 13 15.5382 13.7365 16.4709 15.2333C17.1233 16.0599 16.997 17.2123 16.997 18.2C17.0497 19.1667 16.4183 20 15.629 20Z" stroke="currentColor"/>
<path d="M14.3076 13.2C14.355 13.1143 14.4023 13 14.4734 12.9143C15.3283 11.6075 16.991 11 18.4984 11C20.0085 11 21.6664 11.6042 22.5235 12.9143C23.1044 13.6152 22.9971 14.6074 22.9971 15.4571C23.0444 16.2857 22.4762 17 21.7659 17L16.9998 17" stroke="currentColor"/>
<path d="M9.68929 13.2C9.64193 13.1143 9.59458 13 9.52355 12.9143C8.66648 11.6042 7.00857 11 5.49847 11C3.99107 11 2.3283 11.6075 1.47339 12.9143C1.1279 13.3312 0.999847 13.9534 0.999847 14.4857C0.999847 15.4253 0.943872 17 2.2784 17H6.99985" stroke="currentColor"/>
<path d="M12 6.5C13.3608 6.5 14.5 7.61308 14.5 9C14.5 10.3608 13.3869 11.5 12 11.5C10.6392 11.5 9.5 10.3869 9.5 9C9.5 7.60948 10.6095 6.5 12 6.5Z" stroke="currentColor"/>
<path d="M18.5 5.5C19.5886 5.5 20.5 6.39086 20.5 7.5C20.5 8.58859 19.6091 9.5 18.5 9.5C17.4114 9.5 16.5 8.60914 16.5 7.5C16.5 6.38725 17.3873 5.5 18.5 5.5Z" stroke="currentColor"/>
<path d="M5.5 5.5C6.58859 5.5 7.5 6.39086 7.5 7.5C7.5 8.58859 6.60914 9.5 5.5 9.5C4.41141 9.5 3.5 8.60914 3.5 7.5C3.5 6.38725 4.38725 5.5 5.5 5.5Z" stroke="currentColor"/>
</svg>
