<svg width="24" height="24" viewBox="0 0 24 24" fill="none" xmlns="http://www.w3.org/2000/svg">
<path d="M22.2846 9.48492C23.1649 14.0139 19.2445 18.5848 13.5306 19.6955C11.2675 20.1354 9.08934 19.8893 7.16348 19.3182C5.65448 18.8696 9.38186 15.7023 7.60513 14.5504C6.33354 13.7254 3.6909 17.4554 2.65599 16.0507C2.11243 15.3014 1.77339 14.4309 1.59376 13.5068C0.713422 8.97785 4.63381 4.4069 10.3477 3.29622C16.0617 2.18554 21.4042 4.95597 22.2846 9.48492Z" stroke="currentColor" stroke-miterlimit="10"/>
<path d="M8 8C8.55228 8 9 7.55228 9 7C9 6.44772 8.55228 6 8 6C7.44772 6 7 6.44772 7 7C7 7.55228 7.44772 8 8 8Z" stroke="currentColor" stroke-miterlimit="10"/>
<path d="M5 12C5.55228 12 6 11.5523 6 11C6 10.4477 5.55228 10 5 10C4.44772 10 4 10.4477 4 11C4 11.5523 4.44772 12 5 12Z" stroke="currentColor" stroke-miterlimit="10"/>
<path d="M18 14C18.5523 14 19 13.5523 19 13C19 12.4477 18.5523 12 18 12C17.4477 12 17 12.4477 17 13C17 13.5523 17.4477 14 18 14Z" stroke="currentColor" stroke-miterlimit="10"/>
<path d="M18 9C18.5523 9 19 8.55228 19 8C19 7.44772 18.5523 7 18 7C17.4477 7 17 7.44772 17 8C17 8.55228 17.4477 9 18 9Z" stroke="currentColor" stroke-miterlimit="10"/>
<path d="M14 17C14.5523 17 15 16.5523 15 16C15 15.4477 14.5523 15 14 15C13.4477 15 13 15.4477 13 16C13 16.5523 13.4477 17 14 17Z" stroke="currentColor" stroke-miterlimit="10"/>
<path d="M13 7C13.5523 7 14 6.55228 14 6C14 5.44772 13.5523 5 13 5C12.4477 5 12 5.44772 12 6C12 6.55228 12.4477 7 13 7Z" stroke="currentColor" stroke-miterlimit="10"/>
</svg>
