<svg width="24" height="24" viewBox="0 0 24 24" fill="none" xmlns="http://www.w3.org/2000/svg">
<path d="M3 5H7" stroke="currentColor" stroke-linecap="round"/>
<path d="M13 8H16" stroke="currentColor" stroke-linecap="round"/>
<path d="M13 10.998H16" stroke="currentColor" stroke-linecap="round"/>
<path d="M13 13.9961H16" stroke="currentColor" stroke-linecap="round"/>
<path d="M13 16.9941H16" stroke="currentColor" stroke-linecap="round"/>
<path d="M13 19.9922H16" stroke="currentColor" stroke-linecap="round"/>
<path d="M18 8H21" stroke="currentColor" stroke-linecap="round"/>
<path d="M18 10.998H21" stroke="currentColor" stroke-linecap="round"/>
<path d="M18 13.9961H21" stroke="currentColor" stroke-linecap="round"/>
<path d="M18 16.9941H21" stroke="currentColor" stroke-linecap="round"/>
<path d="M18 19.9922H21" stroke="currentColor" stroke-linecap="round"/>
<path d="M3 7.99805H7" stroke="currentColor" stroke-linecap="round"/>
<path d="M3 10.9961H7" stroke="currentColor" stroke-linecap="round"/>
<path d="M3 13.9941H7" stroke="currentColor" stroke-linecap="round"/>
<path d="M3 16.9922H7" stroke="currentColor" stroke-linecap="round"/>
<path d="M3 19.9902H7" stroke="currentColor" stroke-linecap="round"/>
<path d="M1 2L9 3.3913V23H1V2Z" stroke="currentColor"/>
<path d="M11 5.78225L23 2V22.9996H11V5.78225Z" stroke="currentColor"/>
</svg>
