<svg width="26" height="26" viewBox="0 0 26 26" fill="none" xmlns="http://www.w3.org/2000/svg">
<path d="M9 1V0.5H8.5V1H9ZM17 1H17.5V0.5H17V1ZM9 9V9.5H9.5V9H9ZM1 9V8.5H0.5V9H1ZM1 17H0.5V17.5H1V17ZM9 17H9.5V16.5H9V17ZM9 25H8.5V25.5H9V25ZM17 25V25.5H17.5V25H17ZM17 17V16.5H16.5V17H17ZM25 17V17.5H25.5V17H25ZM25 9H25.5V8.5H25V9ZM17 9H16.5V9.5H17V9ZM9 1.5H17V0.5H9V1.5ZM9.5 9V1H8.5V9H9.5ZM1 9.5H9V8.5H1V9.5ZM1.5 17V9H0.5V17H1.5ZM9 16.5H1V17.5H9V16.5ZM9.5 25V17H8.5V25H9.5ZM17 24.5H9V25.5H17V24.5ZM16.5 17V25H17.5V17H16.5ZM25 16.5H17V17.5H25V16.5ZM24.5 9V17H25.5V9H24.5ZM17 9.5H25V8.5H17V9.5ZM16.5 1V9H17.5V1H16.5Z" fill="currentColor"/>
</svg>
