<svg width="24" height="24" viewBox="0 0 24 24" fill="none" xmlns="http://www.w3.org/2000/svg">
<g clip-path="url(#clip0)">
<path d="M7.32743 15.9658H4.67257C3.74336 15.9658 3 15.258 3 14.3731V8.55852C3 7.67369 3.74336 6.96582 4.67257 6.96582H7.32743C8.25664 6.96582 9 7.67369 9 8.55852V14.3731C9 15.258 8.25664 15.9658 7.32743 15.9658Z" stroke="currentColor" stroke-miterlimit="10"/>
<path d="M5 16V22.9506" stroke="currentColor" stroke-miterlimit="10" stroke-linecap="round"/>
<path d="M7 16V22.9506" stroke="currentColor" stroke-miterlimit="10" stroke-linecap="round"/>
<path d="M12 1.00879V22.8535" stroke="currentColor" stroke-miterlimit="10" stroke-linecap="round"/>
<path d="M5.98718 4.98056C7.08467 4.98056 7.97436 4.09145 7.97436 2.99468C7.97436 1.8979 7.08467 1.00879 5.98718 1.00879C4.88969 1.00879 4 1.8979 4 2.99468C4 4.09145 4.88969 4.98056 5.98718 4.98056Z" stroke="currentColor" stroke-miterlimit="10" stroke-linecap="round"/>
<path d="M20.0364 15.9893H15.9826C14.6012 15.9893 13.7604 14.7513 14.0607 13.4376L15.3519 7.9299C15.4721 7.39935 16.1627 6.99512 16.9134 6.99512H19.0755C19.8262 6.99512 20.5169 7.39935 20.637 7.9299L21.9282 13.4376C22.2586 14.7513 21.4178 15.9893 20.0364 15.9893Z" stroke="currentColor" stroke-miterlimit="10"/>
<path d="M17 15.9893V22.9399" stroke="currentColor" stroke-miterlimit="10" stroke-linecap="round"/>
<path d="M19 15.9893V22.9399" stroke="currentColor" stroke-miterlimit="10" stroke-linecap="round"/>
<path d="M17.9676 4.98056C19.0651 4.98056 19.9548 4.09145 19.9548 2.99468C19.9548 1.8979 19.0651 1.00879 17.9676 1.00879C16.8702 1.00879 15.9805 1.8979 15.9805 2.99468C15.9805 4.09145 16.8702 4.98056 17.9676 4.98056Z" stroke="currentColor" stroke-miterlimit="10" stroke-linecap="round"/>
</g>
<defs>
<clipPath id="clip0">
<rect width="22" height="23.9844" fill="white" transform="translate(1.2998 0.015625)"/>
</clipPath>
</defs>
</svg>
