<svg width="22" height="20" viewBox="0 0 22 20" fill="none" xmlns="http://www.w3.org/2000/svg">
<path d="M1.95388 17.9535C1.42009 17.4199 1.44669 16.6029 2.01427 16.0984L17.8873 1.98849C18.4934 1.44975 19.4766 1.47576 20.0464 2.04561C20.5801 2.57932 20.5534 3.39635 19.9858 3.90091L4.11238 18.0105C3.5065 18.549 2.52366 18.5231 1.95388 17.9535Z" fill="currentColor"/>
<path d="M1.9537 2.04617C2.52353 1.47632 3.50671 1.45029 4.11277 1.98901L19.9857 16.0984C20.5533 16.6029 20.58 17.42 20.0462 17.9537C19.4764 18.5235 18.4933 18.5494 17.8872 18.0108L2.01432 3.90142C1.44671 3.39688 1.42001 2.57987 1.9537 2.04617Z" fill="currentColor"/>
</svg>
