<svg width="64" height="64" viewBox="0 0 64 64" fill="none" xmlns="http://www.w3.org/2000/svg">
<circle cx="32" cy="32" r="31.5" stroke="currentColor"/>
<path d="M52.2281 24.7685C52.2281 24.7685 48.3407 25.0924 46.7214 24.1208C45.1021 23.1492 45.0661 21.5567 44.1305 20.2344C42.7727 18.3154 40.252 16.6719 36.0338 16.6719C32.1474 16.6719 30.5291 17.3196 27.6139 19.9105L20.8127 27.0356C20.4888 28.6549 23.5469 30.8509 26.6427 29.3026C28.5853 28.3311 31.8245 24.7685 33.12 23.4731C33.4439 24.3367 34.6736 26.5174 37.0054 27.0356C39.3373 27.5538 41.2157 26.3878 41.8634 25.7401" stroke="currentColor"/>
<path d="M36.6824 29.9496L44.1462 38.7814C45.066 39.8697 46.6941 40.0062 47.7822 39.086V39.086C48.8765 38.1606 49.0067 36.5206 48.0721 35.4341L40.5688 26.7109" stroke="currentColor" stroke-linecap="round"/>
<path d="M32.7952 33.1874L40.4019 42.4182C41.3162 43.5276 42.9609 43.6757 44.0587 42.7474V42.7474C45.1434 41.8302 45.2825 40.2086 44.3698 39.12L36.6808 29.9488" stroke="currentColor" stroke-linecap="round"/>
<path d="M32.7941 33.1896L39.6721 41.5649C40.3448 42.3841 40.2779 43.5821 39.518 44.3212V44.3212C38.6803 45.136 37.3306 45.0817 36.5611 44.2022L35.7099 43.2294" stroke="currentColor" stroke-linecap="round"/>
<rect x="26.5625" y="48.457" width="10.3298" height="4.53412" rx="2.26706" transform="rotate(-50 26.5625 48.457)" stroke="currentColor"/>
<rect x="21.7539" y="44.834" width="11.8802" height="6.01953" rx="3.00976" transform="rotate(-50 21.7539 44.834)" stroke="currentColor"/>
<rect x="16.0664" y="42.2793" width="13.2801" height="6.01953" rx="3.00976" transform="rotate(-50 16.0664 42.2793)" stroke="currentColor"/>
<rect x="12.1367" y="38.7793" width="9.37272" height="5.08539" rx="2.54269" transform="rotate(-50 12.1367 38.7793)" stroke="currentColor"/>
<path d="M10.7725 20.8813C10.7725 20.8813 13.2455 21.2444 15.3066 20.5574C17.2498 19.9098 15.6304 17.6425 18.8691 16.0232C22.1078 14.4039 30.8521 15.6994 33.443 16.9949" stroke="currentColor"/>
<path d="M10.7725 35.7773H14.6588" stroke="currentColor"/>
<path d="M4 17.6426H7.77277C9.42962 17.6426 10.7728 18.9857 10.7728 20.6426V36.0177C10.7728 37.6746 9.42963 39.0177 7.77277 39.0177H1" stroke="currentColor"/>
<path d="M62 22.8242H55.2277C53.5709 22.8242 52.2277 24.1674 52.2277 25.8242V41.1993C52.2277 42.8562 53.5709 44.1993 55.2277 44.1993H61" stroke="currentColor"/>
<path d="M52.2279 42.5801C52.2279 42.5801 48.9893 42.5801 47.6938 42.904C46.3983 43.2278 44.9339 44.8979 41.8642 45.8188C38.6256 46.7904 36.3585 46.7903 33.7676 46.7903" stroke="currentColor"/>
</svg>
