<svg width="64" height="64" viewBox="0 0 64 64" fill="none" xmlns="http://www.w3.org/2000/svg">
<circle cx="32" cy="32" r="31.5" stroke="currentColor"/>
<path d="M21 30.5H28L32 24" stroke="currentColor" stroke-linecap="round" stroke-linejoin="round"/>
<path d="M42 36.2572H41.5C41.5 36.4508 41.6118 36.627 41.7869 36.7095C41.9621 36.792 42.1691 36.766 42.3184 36.6427L42 36.2572ZM50.5 40.5C50.5 40.7761 50.7239 41 51 41C51.2761 41 51.5 40.7761 51.5 40.5H50.5ZM42.5 18.5C42.5 16.2909 44.2909 14.5 46.5 14.5V13.5C43.7386 13.5 41.5 15.7386 41.5 18.5H42.5ZM42.5 36.2572V18.5H41.5V36.2572H42.5ZM42.3184 36.6427C43.183 35.9286 44.2908 35.5 45.5 35.5V34.5C44.0499 34.5 42.7188 35.015 41.6816 35.8716L42.3184 36.6427ZM45.5 35.5C48.2614 35.5 50.5 37.7386 50.5 40.5H51.5C51.5 37.1863 48.8137 34.5 45.5 34.5V35.5ZM50.5 18.5V40.5H51.5V18.5H50.5ZM46.5 14.5C48.7091 14.5 50.5 16.2909 50.5 18.5H51.5C51.5 15.7386 49.2614 13.5 46.5 13.5V14.5Z" fill="currentColor"/>
<path d="M21 36.2572H21.5C21.5 36.4508 21.3882 36.627 21.2131 36.7095C21.0379 36.792 20.8309 36.766 20.6816 36.6427L21 36.2572ZM12.5 40.5C12.5 40.7761 12.2761 41 12 41C11.7239 41 11.5 40.7761 11.5 40.5H12.5ZM20.5 18.5C20.5 16.2909 18.7091 14.5 16.5 14.5V13.5C19.2614 13.5 21.5 15.7386 21.5 18.5H20.5ZM20.5 36.2572V18.5H21.5V36.2572H20.5ZM20.6816 36.6427C19.817 35.9286 18.7092 35.5 17.5 35.5V34.5C18.9501 34.5 20.2812 35.015 21.3184 35.8716L20.6816 36.6427ZM17.5 35.5C14.7386 35.5 12.5 37.7386 12.5 40.5H11.5C11.5 37.1863 14.1863 34.5 17.5 34.5V35.5ZM12.5 18.5V40.5H11.5V18.5H12.5ZM16.5 14.5C14.2909 14.5 12.5 16.2909 12.5 18.5H11.5C11.5 15.7386 13.7386 13.5 16.5 13.5V14.5Z" fill="currentColor"/>
<path d="M12 40.5V40.5C12 43.5376 14.4624 46 17.5 46H45.5C48.5376 46 51 43.5376 51 40.5V40.5" stroke="currentColor"/>
<path d="M21 24H42" stroke="currentColor" stroke-linecap="round" stroke-linejoin="round"/>
<path d="M36 24L33 28.5L42 30M21 33H27L18.5 46M22 46L25 41H35.5V46M38.5 46V33L42 33.5M31 32L27 38H35V32.5L31 32Z" stroke="currentColor" stroke-linecap="round" stroke-linejoin="round"/>
</svg>
