<svg width="64" height="64" viewBox="0 0 64 64" fill="none" xmlns="http://www.w3.org/2000/svg">
<circle cx="32" cy="32" r="31.5" stroke="currentColor"/>
<g clip-path="url(#clip0)">
<path d="M17.4813 37.1484C17.2226 37.1484 17.0215 37.3579 17.0215 37.6054V50.5424C17.0215 50.7994 17.2322 50.9993 17.4813 50.9993C17.7399 50.9993 17.9411 50.7899 17.9411 50.5424V37.6054C17.9411 37.3483 17.7303 37.1484 17.4813 37.1484Z" fill="currentColor"/>
<path d="M31.5047 37.1484C31.2461 37.1484 31.0449 37.3579 31.0449 37.6054V50.5424C31.0449 50.7994 31.2557 50.9993 31.5047 50.9993C31.7633 50.9993 31.9645 50.7899 31.9645 50.5424V37.6054C31.9645 37.3483 31.7633 37.1484 31.5047 37.1484Z" fill="currentColor"/>
<path d="M48.4883 22.7356L47.904 22.6499C49.906 21.3457 50.4712 18.6707 49.1589 16.6812C47.8465 14.6916 45.1549 14.1299 43.1529 15.4341C41.1508 16.7383 40.5857 19.4133 41.898 21.4028C42.2237 21.8978 42.6547 22.3262 43.1529 22.6499L42.5685 22.7356C40.7773 23.0021 39.2542 24.154 38.5166 25.7913C37.7791 24.154 36.256 23.0021 34.4647 22.7356L33.8804 22.6499C35.8824 21.3457 36.4476 18.6707 35.1353 16.6812C33.8229 14.6916 31.1312 14.1299 29.1292 15.4341C27.1272 16.7383 26.5621 19.4133 27.8744 21.4028C28.2001 21.8978 28.6311 22.3262 29.1292 22.6499L28.5449 22.7356C26.7537 23.0021 25.2306 24.154 24.493 25.7913C23.7554 24.154 22.2228 23.0021 20.4411 22.7356L19.8568 22.6499C21.8588 21.3457 22.424 18.6707 21.1116 16.6812C19.7993 14.6916 17.1076 14.1299 15.1056 15.4341C13.1036 16.7383 12.5385 19.4133 13.8508 21.4028C14.1765 21.8978 14.6075 22.3262 15.1056 22.6499L14.5213 22.7356C11.9158 23.1259 9.99046 25.3534 10 27.9713V35.7868C10 37.0434 10.7376 38.1952 11.8871 38.7283L13.0174 39.2614V50.542C13.0174 50.799 13.2281 50.9989 13.4772 50.9989C13.7358 50.9989 13.937 50.7895 13.937 50.542V29.6182C13.937 29.3611 13.7263 29.1612 13.4772 29.1612C13.2186 29.1612 13.0174 29.3706 13.0174 29.6182V38.2428L12.2798 37.9001C11.456 37.5098 10.9292 36.6911 10.9292 35.7868V27.9713C10.9196 25.8104 12.5097 23.9731 14.6554 23.6494L15.6899 23.4876C16.2743 23.4019 16.8682 23.3543 17.4621 23.3543H17.4812C18.0751 23.3543 18.669 23.4019 19.2533 23.4876L20.2879 23.6494C22.4431 23.9636 24.0236 25.8104 24.0141 27.9713V35.7868C24.0141 36.6911 23.4872 37.5098 22.6634 37.9001L21.9259 38.2428V29.6182C21.9259 29.3611 21.7151 29.1612 21.4661 29.1612C21.2074 29.1612 21.0063 29.3706 21.0063 29.6182V50.542C21.0063 50.799 21.217 50.9989 21.4661 50.9989C21.7247 50.9989 21.9259 50.7895 21.9259 50.542V39.2614L23.0562 38.7378C23.6501 38.4618 24.1386 38.0144 24.4739 37.4527C24.8091 38.0144 25.2977 38.4618 25.8915 38.7378L27.0219 39.2614V50.542C27.0219 50.799 27.2326 50.9989 27.4817 50.9989C27.7403 50.9989 27.9414 50.7895 27.9414 50.542V29.6182C27.9414 29.3611 27.7307 29.1612 27.4817 29.1612C27.223 29.1612 27.0219 29.3706 27.0219 29.6182V38.2428L26.2843 37.9001C25.4605 37.5098 24.9337 36.6911 24.9337 35.7868V27.9618C24.9241 25.8008 26.5142 23.9636 28.6599 23.6399L29.6944 23.4781C30.2787 23.3924 30.8726 23.3448 31.4761 23.3448H31.4952C32.0891 23.3448 32.683 23.3924 33.2674 23.4781L34.3019 23.6399C36.4572 23.9541 38.0377 25.8008 38.0281 27.9618V35.7773C38.0281 36.6816 37.5013 37.5003 36.6775 37.8906L35.9399 38.2333V29.6086C35.9399 29.3516 35.7292 29.1517 35.4801 29.1517C35.2215 29.1517 35.0203 29.3611 35.0203 29.6086V50.5325C35.0203 50.7895 35.231 50.9894 35.4801 50.9894C35.7387 50.9894 35.9399 50.78 35.9399 50.5325V39.2614L37.0702 38.7378C37.6641 38.4618 38.1526 38.0144 38.4879 37.4527C38.8232 38.0144 39.3117 38.4618 39.9056 38.7378L41.0359 39.2614V50.542C41.0359 50.799 41.2466 50.9989 41.4957 50.9989C41.7543 50.9989 41.9555 50.7895 41.9555 50.542V29.6182C41.9555 29.3611 41.7447 29.1612 41.4957 29.1612C41.2371 29.1612 41.0359 29.3706 41.0359 29.6182V38.2428L40.2983 37.9001C39.4745 37.5098 38.9477 36.6911 38.9477 35.7868V27.9618C38.9381 25.8008 40.5282 23.9636 42.6739 23.6399L43.7084 23.4781C44.2928 23.3829 44.8866 23.3448 45.4805 23.3448H45.4997C46.0936 23.3448 46.6875 23.3924 47.2718 23.4781L48.3063 23.6399C50.4616 23.9541 52.0421 25.8008 52.0326 27.9618V35.7773C52.0326 36.6816 51.5057 37.5003 50.6819 37.8906L49.9443 38.2333V29.6086C49.9443 29.3516 49.7336 29.1517 49.4846 29.1517C49.2259 29.1517 49.0248 29.3611 49.0248 29.6086V50.5325C49.0248 50.7895 49.2355 50.9894 49.4846 50.9894C49.7432 50.9894 49.9443 50.78 49.9443 50.5325V39.2614L51.0747 38.7378C52.2241 38.1952 52.9521 37.0529 52.9521 35.7963V27.9808C53.0192 25.3534 51.0938 23.1259 48.4883 22.7356ZM14.0615 19.042C14.0615 17.1667 15.5846 15.6531 17.4716 15.6531C19.3587 15.6531 20.8817 17.1667 20.8817 19.042C20.8817 20.9173 19.3587 22.4309 17.4716 22.4309C15.5942 22.4309 14.0615 20.9078 14.0615 19.042ZM28.0947 19.042C28.0947 17.1667 29.6178 15.6531 31.5048 15.6531C33.3919 15.6531 34.9149 17.1667 34.9149 19.042C34.9149 20.9173 33.3919 22.4309 31.5048 22.4309C29.6178 22.4309 28.0947 20.9173 28.0947 19.042ZM42.1183 19.042C42.1183 17.1667 43.6414 15.6531 45.5284 15.6531C47.4155 15.6531 48.9386 17.1667 48.9386 19.042C48.9386 20.9173 47.4155 22.4309 45.5284 22.4309H45.5189C43.6414 22.4309 42.1183 20.9078 42.1183 19.042Z" fill="currentColor"/>
<path d="M45.5282 37.1484C45.2695 37.1484 45.0684 37.3579 45.0684 37.6054V50.5424C45.0684 50.7994 45.2791 50.9993 45.5282 50.9993C45.7868 50.9993 45.9879 50.7899 45.9879 50.5424V37.6054C45.9975 37.3483 45.7868 37.1484 45.5282 37.1484Z" fill="currentColor"/>
<path d="M24.4928 16.3015C26.5235 16.3015 28.1711 14.6641 28.1711 12.646C28.1711 10.6278 26.5139 9 24.4928 9C22.462 9 20.8145 10.6374 20.8145 12.6555C20.8145 14.6641 22.462 16.3015 24.4928 16.3015ZM24.4928 9.92339C26.0063 9.92339 27.2419 11.1514 27.2419 12.6555C27.2419 14.1596 26.0063 15.3876 24.4928 15.3876C22.9793 15.3876 21.7436 14.1596 21.7436 12.6555C21.7436 11.1419 22.9697 9.92339 24.4928 9.92339Z" fill="currentColor"/>
<path d="M38.5162 16.3015C40.547 16.3015 42.1945 14.6641 42.1945 12.646C42.1945 10.6278 40.547 9 38.5162 9C36.4855 9 34.8379 10.6374 34.8379 12.6555C34.8475 14.6641 36.4855 16.3015 38.5162 16.3015ZM38.5162 9.92339C40.0297 9.92339 41.2654 11.1419 41.2654 12.6555C41.2654 14.1596 40.0393 15.3876 38.5162 15.3876C37.0027 15.3876 35.7671 14.1691 35.7671 12.6555C35.7671 11.1514 37.0027 9.92339 38.5162 9.92339Z" fill="currentColor"/>
</g>
<defs>
<clipPath id="clip0">
<rect width="43" height="42" fill="white" transform="translate(10 9)"/>
</clipPath>
</defs>
</svg>
