<svg width="64" height="64" viewBox="0 0 64 64" fill="none" xmlns="http://www.w3.org/2000/svg">
<circle cx="32" cy="32" r="31.5" stroke="currentColor"/>
<path d="M13 26C16.4459 26 19.3702 26 22 26C25.8994 26 27.4609 29 30 29C33.5366 29 37.4634 29 41 29C42.723 29 44 30.3209 44 32C44 33.6791 42.723 35 41 35H29M13.0002 37L21 41C22.5416 41.7953 24.277 42 26 42H37C38.9043 42 41.277 40.9721 43 40L54 34C57.0961 32.1897 54.5 26.5 50 29L44.1652 32.4558M2 23H13.0002V39H1.6123" stroke="currentColor" stroke-miterlimit="10" stroke-linecap="round" stroke-linejoin="round"/>
</svg>
