<svg width="64" height="64" viewBox="0 0 64 64" fill="none" xmlns="http://www.w3.org/2000/svg">
<circle cx="32" cy="32" r="31.5" stroke="currentColor"/>
<path d="M21 42H5V20.6581L21 19V42Z" stroke="currentColor" stroke-miterlimit="22.926"/>
<path d="M43 42H59V20.6581L43 19V42Z" stroke="currentColor" stroke-miterlimit="22.926"/>
<path d="M43 42H39.2105L37 30.1256L39 27.5L43 19V42Z" stroke="currentColor" stroke-miterlimit="22.926" stroke-linejoin="bevel"/>
<path d="M21 42H24.5207L27 31.3023L24 27L21 19V42Z" stroke="currentColor" stroke-miterlimit="22.926" stroke-linejoin="bevel"/>
<path d="M5 24L21.1282 24.043" stroke="currentColor" stroke-miterlimit="22.926" stroke-linejoin="bevel"/>
<path d="M42.8203 24.043L59 24.0025" stroke="currentColor" stroke-miterlimit="22.926" stroke-linejoin="bevel"/>
<path d="M39.1797 30.3823L43 24" stroke="currentColor" stroke-miterlimit="22.926" stroke-linejoin="bevel"/>
<path d="M23.7438 30.3823L21 24" stroke="currentColor" stroke-miterlimit="22.926" stroke-linejoin="bevel"/>
<path d="M39.18 30.3828H23.7441V38.2929H39.18V30.3828Z" fill="white"/>
<path d="M39 30H24V38H39V30Z" stroke="currentColor" stroke-miterlimit="22.926" stroke-linejoin="bevel"/>
<path d="M25.334 39.6777H38.7699" stroke="currentColor" stroke-miterlimit="22.926" stroke-linejoin="bevel"/>
<path d="M24.8711 41.4062H39.1275" stroke="currentColor" stroke-miterlimit="22.926" stroke-linejoin="bevel"/>
<path d="M52.141 34.4764V33.491L52.7892 34.711C52.876 34.8743 53.0458 34.9764 53.2308 34.9764H54.6667C54.845 34.9764 55.0098 34.8815 55.0992 34.7272C55.1886 34.573 55.1892 34.3828 55.1006 34.228L53.639 31.6741L55.0388 30.1137C55.1706 29.9668 55.2037 29.7562 55.1232 29.576C55.0428 29.3958 54.864 29.2798 54.6667 29.2798H53.1795C53.0342 29.2798 52.8962 29.3429 52.8012 29.4528L52.141 30.2165V28.1483C52.141 27.8722 51.9172 27.6483 51.641 27.6483H50.4103C50.2634 27.6483 50.1314 27.7116 50.0399 27.8124C49.6253 27.6139 49.1149 27.5 48.5128 27.5C47.404 27.5 46.6523 27.847 46.1845 28.3718C45.7289 28.8828 45.6026 29.4957 45.6026 29.9281C45.6026 30.4935 45.7593 30.9839 46.084 31.3731C46.3436 31.6843 46.6862 31.9015 47.0738 32.0483H46C45.8674 32.0483 45.7402 32.101 45.6464 32.1948C45.5527 32.2885 45.5 32.4157 45.5 32.5483C45.5 32.9999 45.6236 33.6537 46.1159 34.1995C46.619 34.7573 47.4367 35.1247 48.6667 35.1247C48.9103 35.1247 49.5002 35.0989 50.0948 34.8643C50.1808 34.9344 50.2906 34.9764 50.4103 34.9764H51.641C51.9172 34.9764 52.141 34.7525 52.141 34.4764ZM47.7308 32.5483C47.7308 32.4112 47.6756 32.2869 47.5861 32.1966L48.6008 32.4411L48.6008 32.4412L48.6094 32.4431C48.953 32.5196 49.1577 32.5803 49.2777 32.6513C49.3283 32.6811 49.3395 32.6995 49.3398 32.7001L49.3399 32.7002C49.3403 32.7008 49.3411 32.7021 49.3422 32.7063C49.3435 32.7111 49.3461 32.7234 49.3461 32.7461C49.3461 32.8155 49.3297 32.851 49.3155 32.8725C49.2988 32.8976 49.2662 32.9312 49.2008 32.966C49.0594 33.0414 48.832 33.0865 48.5641 33.0865C48.1077 33.0865 47.9244 32.9509 47.848 32.865C47.759 32.7649 47.7308 32.6365 47.7308 32.5483ZM49.1514 30.0791C49.1627 30.1336 49.1827 30.1844 49.2096 30.2304L48.0732 29.9382C48.0633 29.9357 48.0534 29.9334 48.0434 29.9315C47.9837 29.92 47.9342 29.9091 47.8893 29.8947C47.8446 29.8803 47.8177 29.8664 47.8028 29.8562C47.7961 29.8515 47.793 29.8485 47.7921 29.8475L47.7913 29.8464C47.7911 29.8461 47.7892 29.8426 47.787 29.8335C47.7848 29.8241 47.782 29.8069 47.782 29.7798C47.782 29.7228 47.7953 29.7002 47.8014 29.691C47.8101 29.678 47.8307 29.6551 47.8801 29.6291C47.9901 29.5712 48.1671 29.5382 48.359 29.5382C48.8128 29.5382 48.9659 29.6718 49.0226 29.7387C49.0997 29.8295 49.1214 29.9341 49.1504 30.0742L49.1514 30.0791Z" stroke="currentColor" stroke-miterlimit="10" stroke-linejoin="round"/>
<path d="M15.1664 33.8924V32.907L15.8146 34.127C15.9014 34.2903 16.0712 34.3924 16.2562 34.3924H17.6921C17.8704 34.3924 18.0352 34.2975 18.1246 34.1432C18.214 33.989 18.2146 33.7988 18.126 33.6441L16.6644 31.0901L18.0642 29.5297C18.196 29.3828 18.2291 29.1722 18.1486 28.992C18.0682 28.8118 17.8894 28.6958 17.6921 28.6958H16.2049C16.0596 28.6958 15.9216 28.7589 15.8266 28.8688L15.1664 29.6326V27.5643C15.1664 27.2882 14.9426 27.0643 14.6664 27.0643H13.4356C13.2888 27.0643 13.1568 27.1276 13.0653 27.2284C12.6507 27.0299 12.1403 26.916 11.5382 26.916C10.4294 26.916 9.67766 27.263 9.20985 27.7878C8.75429 28.2988 8.62795 28.9117 8.62795 29.3441C8.62795 29.9095 8.78465 30.3999 9.10942 30.7891C9.36904 31.1003 9.71156 31.3176 10.0992 31.4643H9.02539C8.74925 31.4643 8.52539 31.6882 8.52539 31.9643C8.52539 32.4159 8.64897 33.0697 9.14129 33.6155C9.64443 34.1733 10.4621 34.5407 11.6921 34.5407C11.9357 34.5407 12.5256 34.515 13.1202 34.2804C13.2062 34.3504 13.316 34.3924 13.4356 34.3924H14.6664C14.9426 34.3924 15.1664 34.1686 15.1664 33.8924ZM10.7562 31.9643C10.7562 31.8272 10.7009 31.7029 10.6115 31.6126L11.6262 31.8572L11.6262 31.8572L11.6348 31.8591C11.9784 31.9356 12.1831 31.9964 12.3031 32.0673C12.3537 32.0972 12.3649 32.1155 12.3652 32.1161C12.3656 32.1167 12.3665 32.118 12.3676 32.1223C12.3689 32.1272 12.3715 32.1394 12.3715 32.1621C12.3715 32.2315 12.3551 32.267 12.3409 32.2885C12.3242 32.3136 12.2916 32.3472 12.2262 32.382C12.0848 32.4574 11.8574 32.5025 11.5895 32.5025C11.1331 32.5025 10.9498 32.3669 10.8734 32.281C10.7844 32.1809 10.7562 32.0525 10.7562 31.9643ZM12.1768 29.4951C12.1881 29.5496 12.2081 29.6004 12.235 29.6464L11.0986 29.3542C11.0887 29.3517 11.0788 29.3495 11.0688 29.3475C11.0091 29.336 10.9596 29.3251 10.9147 29.3107C10.87 29.2963 10.8431 29.2824 10.8282 29.2722C10.8214 29.2675 10.8184 29.2645 10.8175 29.2635L10.8166 29.2624C10.8165 29.2622 10.8146 29.2586 10.8124 29.2495C10.8102 29.2401 10.8074 29.2229 10.8074 29.1958C10.8074 29.1388 10.8207 29.1163 10.8268 29.107C10.8355 29.094 10.8561 29.0711 10.9055 29.0451C11.0155 28.9872 11.1925 28.9542 11.3844 28.9542C11.8382 28.9542 11.9913 29.0879 12.048 29.1547C12.1251 29.2455 12.1468 29.3501 12.1758 29.4902L12.1768 29.4951Z" stroke="currentColor" stroke-miterlimit="10" stroke-linejoin="round"/>
</svg>
