<svg width="64" height="64" viewBox="0 0 64 64" fill="none" xmlns="http://www.w3.org/2000/svg">
<circle cx="32" cy="32" r="31.5" stroke="currentColor"/>
<path d="M41.3759 26.5C43.0256 28.7389 44.0005 31.5056 44.0005 34.5C44.0005 40.148 40.532 44.986 35.6089 47M25.5005 47.0438C22.2346 45.7409 19.597 43.1995 18.168 40" stroke="currentColor"/>
<path d="M39.2113 28.6348C40.3411 30.3094 41.0007 32.3275 41.0007 34.4997C41.0007 40.2987 36.2997 44.9997 30.5007 44.9997C26.7183 44.9997 23.4031 42.9997 21.5547 39.9997" stroke="currentColor"/>
<path d="M38 52.5C38 48.3579 34.6421 45 30.5 45C26.3579 45 23 48.3579 23 52.5" stroke="currentColor"/>
<circle cx="37.5" cy="24.5" r="4.5" stroke="currentColor"/>
<circle cx="37.5" cy="24.5" r="1.5" stroke="currentColor"/>
<rect x="13" y="37" width="13" height="3" rx="0.5" stroke="currentColor"/>
<rect x="19" y="52" width="22" height="4" rx="0.5" stroke="currentColor"/>
<path d="M34.2925 27.6275L31.5958 30.3243C31.4006 30.5195 31.084 30.5195 30.8887 30.3243L26.4551 25.8907C26.2599 25.6954 26.2599 25.3788 26.4551 25.1836L38.1482 13.4904C38.3435 13.2952 38.6601 13.2952 38.8553 13.4904L43.2889 17.924C43.4842 18.1193 43.4842 18.4359 43.2889 18.6311L40.6348 21.2853" stroke="currentColor"/>
<path d="M39.6191 13.8887L42.6109 10.8969M45.8827 14.1686L42.8909 17.1604" stroke="currentColor"/>
<path d="M27.122 26.3116L25.834 27.5996C25.6388 27.7948 25.6388 28.1114 25.834 28.3067L28.4525 30.9252C28.6478 31.1204 28.9643 31.1204 29.1596 30.9252L30.4476 29.6372" stroke="currentColor"/>
<path d="M26.037 28.3936L24.7491 29.6816C24.5538 29.8769 24.5538 30.1934 24.7491 30.3887L26.488 32.1277C26.6833 32.3229 26.9999 32.3229 27.1951 32.1277L28.4831 30.8397" stroke="currentColor"/>
<rect width="2.49467" height="7.27005" rx="0.5" transform="matrix(-0.707107 0.707107 0.707107 0.707107 43.3164 8.32227)" stroke="currentColor"/>
</svg>
