<svg width="14" height="13" viewBox="0 0 14 13" fill="none" xmlns="http://www.w3.org/2000/svg">
<path d="M9.93846 0C8.81538 0 7.75385 0.452436 7 1.23666C6.24615 0.452436 5.18462 0 4.06154 0C1.81538 0 0 1.77958 0 3.98144C0 6.36427 3.30769 9.59165 5.49231 11.7332C5.93846 12.1705 6.32308 12.5476 6.6 12.8341C6.70769 12.9397 6.84615 13 7 13C7.15385 13 7.29231 12.9397 7.4 12.8341C7.67692 12.5476 8.06154 12.1705 8.50769 11.7332C10.6923 9.59165 14 6.36427 14 3.98144C14 1.77958 12.1846 0 9.93846 0Z" fill="currentColor"/>
</svg>
