<svg width="21" height="21" viewBox="0 0 21 21" fill="none" xmlns="http://www.w3.org/2000/svg">
<path d="M15.5 6.99635C16.3284 6.99635 17 6.32559 17 5.49817C17 4.67076 16.3284 4 15.5 4C14.6716 4 14 4.67076 14 5.49817C14 6.32559 14.6716 6.99635 15.5 6.99635Z" stroke="currentColor" stroke-miterlimit="9.9999"/>
<path d="M11.1171 13.3554H9.15497V15.3151H7.19287V17.2748H5.23078V19.2345L4.40302 20H1V16.6317L9.30826 8.36422C8.60313 6.43513 9.03234 4.16922 10.5959 2.60757C12.7419 0.464142 16.2369 0.464142 18.383 2.60757C19.9772 4.19984 20.4064 6.52699 19.6093 8.51732C19.3334 9.19097 18.9348 9.83401 18.383 10.3852C16.8501 11.9162 14.6427 12.3449 12.7113 11.7019L11.1171 13.3554Z" stroke="currentColor" stroke-miterlimit="10"/>
</svg>
