<svg width="28" height="28" viewBox="0 0 28 28" fill="none" xmlns="http://www.w3.org/2000/svg">
<path fill-rule="evenodd" clip-rule="evenodd" d="M14 28C21.732 28 28 21.732 28 14C28 6.26801 21.732 0 14 0C6.26801 0 0 6.26801 0 14C0 21.732 6.26801 28 14 28ZM15.6464 8.64645C15.8417 8.45118 16.1583 8.45118 16.3536 8.64645L21.3536 13.6464C21.5488 13.8417 21.5488 14.1583 21.3536 14.3536L16.3536 19.3536C16.1583 19.5488 15.8417 19.5488 15.6464 19.3536C15.4512 19.1583 15.4512 18.8417 15.6464 18.6464L19.7929 14.5L7 14.5C6.72386 14.5 6.5 14.2761 6.5 14C6.5 13.7239 6.72386 13.5 7 13.5L19.7929 13.5L15.6464 9.35355C15.4512 9.15829 15.4512 8.84171 15.6464 8.64645Z" fill="currentColor"/>
</svg>
