<svg width="24" height="24" viewBox="0 0 24 24" fill="none" xmlns="http://www.w3.org/2000/svg">
<path d="M14.6304 3.74841C16.7236 3.22483 18.7285 2.74912 20.7177 3.14872C21.5133 3.30853 22 4.06628 22 4.87775V10.5717C22 11.2512 21.3334 11.7342 20.662 11.6297C18.5198 11.2965 16.4223 11.7749 14.3696 12.3019C11.8261 12.8674 9.41304 13.4329 7 12.514V4.10186C9.6087 4.95014 12.1522 4.38462 14.6304 3.74841Z" stroke="currentColor"/>
<path d="M7 20.5V3" stroke="currentColor" stroke-linecap="round" stroke-linejoin="round"/>
<path d="M9 17C12.866 17 16 18.1193 16 19.5C16 20.8807 12.866 22 9 22C5.13401 22 2 20.8807 2 19.5C2 18.5746 3.4077 17.7667 5.5 17.3345" stroke="currentColor" stroke-linecap="round"/>
</svg>
