<svg width="24" height="24" viewBox="0 0 24 24" fill="none" xmlns="http://www.w3.org/2000/svg">
<path d="M1.5 8.5H22.5V21C22.5 22.3807 21.3807 23.5 20 23.5H4C2.61929 23.5 1.5 22.3807 1.5 21V8.5Z" stroke="currentColor"/>
<path d="M1.5 6C1.5 4.61929 2.61929 3.5 4 3.5H20C21.3807 3.5 22.5 4.61929 22.5 6V8.5H1.5V6Z" stroke="currentColor"/>
<path fill-rule="evenodd" clip-rule="evenodd" d="M4.7998 10.5C4.24752 10.5 3.7998 10.9477 3.7998 11.5V12.6176C3.7998 13.1699 4.24752 13.6176 4.7998 13.6176H6.07567C6.62795 13.6176 7.07567 13.1699 7.07567 12.6176V11.5C7.07567 10.9477 6.62795 10.5 6.07567 10.5H4.7998ZM4.7998 11.5L6.07567 11.5L6.07567 12.6176H4.7998V11.5ZM4.7998 14.5C4.24752 14.5 3.7998 14.9477 3.7998 15.5V16.6176C3.7998 17.1699 4.24752 17.6176 4.7998 17.6176H6.07567C6.62795 17.6176 7.07567 17.1699 7.07567 16.6176V15.5C7.07567 14.9477 6.62795 14.5 6.07567 14.5H4.7998ZM4.7998 15.5H6.07567L6.07567 16.6176H4.7998V15.5ZM3.7998 19.5C3.7998 18.9477 4.24752 18.5 4.7998 18.5H6.07567C6.62795 18.5 7.07567 18.9477 7.07567 19.5V20.6176C7.07567 21.1699 6.62795 21.6176 6.07567 21.6176H4.7998C4.24752 21.6176 3.7998 21.1699 3.7998 20.6176V19.5ZM6.07567 19.5H4.7998V20.6176H6.07567L6.07567 19.5ZM9.27554 10.5C8.72325 10.5 8.27554 10.9477 8.27554 11.5V12.6176C8.27554 13.1699 8.72325 13.6176 9.27554 13.6176H10.5514C11.1037 13.6176 11.5514 13.1699 11.5514 12.6176V11.5C11.5514 10.9477 11.1037 10.5 10.5514 10.5H9.27554ZM9.27554 11.5L10.5514 11.5L10.5514 12.6176H9.27554V11.5ZM8.27554 15.5C8.27554 14.9477 8.72325 14.5 9.27554 14.5H10.5514C11.1037 14.5 11.5514 14.9477 11.5514 15.5V16.6176C11.5514 17.1699 11.1037 17.6176 10.5514 17.6176H9.27554C8.72325 17.6176 8.27554 17.1699 8.27554 16.6176V15.5ZM10.5514 15.5H9.27554V16.6176H10.5514L10.5514 15.5ZM9.27554 18.5C8.72325 18.5 8.27554 18.9477 8.27554 19.5V20.6176C8.27554 21.1699 8.72325 21.6176 9.27554 21.6176H10.5514C11.1037 21.6176 11.5514 21.1699 11.5514 20.6176V19.5C11.5514 18.9477 11.1037 18.5 10.5514 18.5H9.27554ZM9.27554 19.5H10.5514L10.5514 20.6176H9.27554V19.5ZM12.7513 11.5C12.7513 10.9477 13.199 10.5 13.7513 10.5H15.0271C15.5794 10.5 16.0271 10.9477 16.0271 11.5V12.6176C16.0271 13.1699 15.5794 13.6176 15.0271 13.6176H13.7513C13.199 13.6176 12.7513 13.1699 12.7513 12.6176V11.5ZM15.0271 11.5L13.7513 11.5V12.6176H15.0271V11.5ZM13.7513 14.5C13.199 14.5 12.7513 14.9477 12.7513 15.5V16.6176C12.7513 17.1699 13.199 17.6176 13.7513 17.6176H15.0271C15.5794 17.6176 16.0271 17.1699 16.0271 16.6176V15.5C16.0271 14.9477 15.5794 14.5 15.0271 14.5H13.7513ZM13.7513 15.5H15.0271V16.6176H13.7513V15.5ZM12.7513 19.5C12.7513 18.9477 13.199 18.5 13.7513 18.5H15.0271C15.5794 18.5 16.0271 18.9477 16.0271 19.5V20.6176C16.0271 21.1699 15.5794 21.6176 15.0271 21.6176H13.7513C13.199 21.6176 12.7513 21.1699 12.7513 20.6176V19.5ZM15.0271 19.5H13.7513V20.6176H15.0271V19.5ZM18.227 10.5C17.6747 10.5 17.227 10.9477 17.227 11.5V12.6176C17.227 13.1699 17.6747 13.6176 18.227 13.6176H19.5029C20.0551 13.6176 20.5029 13.1699 20.5029 12.6176V11.5C20.5029 10.9477 20.0551 10.5 19.5029 10.5H18.227ZM18.227 11.5L19.5029 11.5V12.6176H18.227V11.5ZM17.227 15.5C17.227 14.9477 17.6747 14.5 18.227 14.5H19.5029C20.0551 14.5 20.5029 14.9477 20.5029 15.5V16.6176C20.5029 17.1699 20.0551 17.6176 19.5029 17.6176H18.227C17.6747 17.6176 17.227 17.1699 17.227 16.6176V15.5ZM19.5029 15.5H18.227V16.6176H19.5029V15.5ZM18.227 18.5C17.6747 18.5 17.227 18.9477 17.227 19.5V20.6176C17.227 21.1699 17.6747 21.6176 18.227 21.6176H19.5029C20.0551 21.6176 20.5029 21.1699 20.5029 20.6176V19.5C20.5029 18.9477 20.0551 18.5 19.5029 18.5H18.227ZM18.227 19.5H19.5029V20.6176H18.227V19.5Z" fill="currentColor"/>
<path d="M7.06836 1V5" stroke="currentColor" stroke-linecap="round" stroke-linejoin="round"/>
<path d="M16.9316 1V5" stroke="currentColor" stroke-linecap="round" stroke-linejoin="round"/>
</svg>
