<svg width="24" height="24" viewBox="0 0 24 24" fill="none" xmlns="http://www.w3.org/2000/svg">
<ellipse cx="12" cy="5.5" rx="4" ry="4.5" stroke="currentColor"/>
<path d="M21 17.9998C21 17.9998 21.5001 13.4998 19.0001 12.9995C18.0367 12.8068 16.0757 12.2484 14.9165 11.91C14.4028 11.76 13.8609 12.0372 13.6843 12.5423L13 14.5M3 17.9998C3 17.9998 3.14759 13.617 5 12.9995C5.75429 12.7481 7.52016 12.2438 9.08945 11.8046C9.60033 11.6616 10.1332 11.9437 10.3036 12.4462L11 14.5M11 14.5H13M11 14.5C11 14.5 12.219 14.5 13 14.5" stroke="currentColor"/>
<path d="M10 21L12 23L14 21L13 14.5H11L10 21Z" stroke="currentColor"/>
</svg>
