<svg width="24" height="24" viewBox="0 0 24 24" fill="none" xmlns="http://www.w3.org/2000/svg">
<path fill-rule="evenodd" clip-rule="evenodd" d="M5.54677 1.04515C5.81331 1.02272 6.04178 1.08777 6.18961 1.33228C7.10824 2.82414 7.95714 4.35564 8.8416 5.86792C9.02975 6.22458 9.02079 6.58348 8.74081 6.86836C8.00326 7.62359 7.17351 8.28143 6.41359 9.01281C6.14481 9.27302 6.07537 9.59827 6.2568 9.94148C8.04657 13.2968 10.4711 15.7582 13.7379 17.6108C14.439 18.0078 14.7123 17.9405 15.2566 17.3326C15.8799 16.6393 16.4418 15.8514 17.1627 15.2555C17.4494 15.0132 17.763 14.9863 18.0922 15.1523C19.6501 15.9134 21.1123 16.8849 22.5988 17.7768C22.8609 17.9316 22.9662 18.1581 22.9483 18.4699C22.7692 21.6575 20.5435 23.041 17.4626 23.041C13.9705 23.041 10.0021 20.4559 7.2401 17.8329C4.29232 15.0237 1.68688 11.3424 1.06256 7.22054C0.808285 5.5653 0.883384 3.64714 2.38408 2.41347C3.49423 1.50086 4.34365 1.20231 5.54677 1.04515Z" stroke="currentColor"/>
</svg>
