<svg width="24" height="24" viewBox="0 0 24 24" fill="none" xmlns="http://www.w3.org/2000/svg">
<path d="M5.45114 9.6V9.1H4.95114H0.54C0.535042 9.09687 0.528069 9.09165 0.520473 9.08388C0.509892 9.07305 0.50322 9.06248 0.5 9.05565V0.547328C0.500036 0.547245 0.500072 0.54716 0.500109 0.547075C0.50401 0.538047 0.511511 0.525645 0.522133 0.514025C0.528313 0.507264 0.533703 0.502771 0.53752 0.5H0.537793H0.542181H0.547074H0.552472H0.558373H0.564773H0.571672H0.579067H0.586956H0.595337H0.604209H0.613568H0.623413H0.633742H0.644553H0.655844H0.667612H0.679856H0.692574H0.705763H0.719422H0.733548H0.74814H0.763195H0.778712H0.794687H0.81112H0.828009H0.84535H0.863142H0.881384H0.900072H0.919206H0.938782H0.958799H0.979255H1.00015H1.02148H1.04324H1.06543H1.08805H1.11109H1.13456H1.15845H1.18277H1.2075H1.23265H1.25821H1.28418H1.31057H1.33736H1.36456H1.39216H1.42016H1.44857H1.47737H1.50657H1.53616H1.56614H1.59651H1.62727H1.65842H1.68995H1.72186H1.75415H1.78681H1.81986H1.85327H1.88706H1.92122H1.95574H1.99063H2.02588H2.06149H2.09746H2.13379H2.17047H2.20751H2.24489H2.28263H2.32071H2.35913H2.3979H2.43701H2.47646H2.51624H2.55636H2.59681H2.63759H2.6787H2.72013H2.76189H2.80397H2.84637H2.88909H2.93213H2.97547H3.01913H3.0631H3.10738H3.15196H3.19685H3.24204H3.28752H3.33331H3.37939H3.42576H3.47243H3.51938H3.56662H3.61415H3.66196H3.71005H3.75842H3.80706H3.85598H3.90518H3.95464H4.00438H4.05438H4.10464H4.15517H4.20596H4.257H4.30831H4.35986H4.41167H4.46373H4.51604H4.62139H4.72771H4.83499H4.94319H5.05232H5.10723H5.16235H5.2177H5.27327H5.32905H5.38506H5.61117H5.72547H5.84058H6.07313H6.13174H6.19055H6.24953H6.3087H6.78839H7.03224H7.15511H7.21677H7.27859H7.5273H7.77825H8.0313H8.15857H8.28632H8.41453H8.54318H8.60767H8.67226H8.80175H8.93164H9.0619H9.19253H9.3235H9.4548H9.58641H9.65233H9.71832H9.85051H9.98297H10.1157H10.2486H10.3817H10.5151H10.5818H10.6486H10.7154H10.7823H10.8492H10.9161H10.9831H11.0501H11.1171H11.1842H11.2513H11.3184H11.3855H11.4526H11.5198H11.587H11.6542H11.7214H11.7886H11.8558H11.923H11.9902H23.46C23.465 0.503133 23.4719 0.508346 23.4795 0.51612C23.4901 0.526949 23.4968 0.537518 23.5 0.544351V9.05565C23.4968 9.06248 23.4901 9.07305 23.4795 9.08388C23.4719 9.09165 23.465 9.09687 23.46 9.1H19.0489H18.5489V9.6V23.4667C18.5489 23.478 18.5447 23.4872 18.5382 23.4939C18.535 23.4971 18.5322 23.4987 18.5307 23.4994C18.5296 23.4999 18.5289 23.5 18.5277 23.5H6.54072H6.54056H6.54041H6.54026H6.54011H6.53996H6.53981H6.53966H6.53951H6.53937H6.53922H6.53907H6.53893H6.53878H6.53864H6.53849H6.53835H6.53821H6.53806H6.53792H6.53778H6.53764H6.5375H6.53736H6.53722H6.53708H6.53694H6.53681H6.53667H6.53653H6.5364H6.53626H6.53613H6.536H6.53586H6.53573H6.5356H6.53547H6.53533H6.5352H6.53507H6.53494H6.53482H6.53469H6.53456H6.53443H6.53431H6.53418H6.53405H6.53393H6.5338H6.53368H6.53356H6.53343H6.53331H6.53319H6.53307H6.53295H6.53283H6.53271H6.53259H6.53247H6.53235H6.53223H6.53212H6.532H6.53188H6.53177H6.53165H6.53154H6.53142H6.53131H6.5312H6.53108H6.53097H6.53086H6.53075H6.53064H6.53053H6.53042H6.53031H6.5302H6.53009H6.52999H6.52988H6.52977H6.52967H6.52956H6.52946H6.52935H6.52925H6.52915H6.52904H6.52894H6.52884H6.52874H6.52864H6.52853H6.52843H6.52834H6.52824H6.52814H6.52804H6.52794H6.52784H6.52775H6.52765H6.52756H6.52746H6.52737H6.52727H6.52718H6.52708H6.52699H6.5269H6.52681H6.52671H6.52662H6.52653H6.52644H6.52635H6.52626H6.52618H6.52609H6.526H6.52591H6.52582H6.52574H6.52565H6.52557H6.52548H6.5254H6.52531H6.52523H6.52514H6.52506H6.52498H6.5249H6.52481H6.52473H6.52465H6.52457H6.52449H6.52441H6.52433H6.52426H6.52418H6.5241H6.52402H6.52394H6.52387H6.52379H6.52372H6.52364H6.52357H6.52349H6.52342H6.52334H6.52327H6.5232H6.52313H6.52305H6.52298H6.52291H6.52284H6.52277H6.5227H6.52263H6.52256H6.52249H6.52242H6.52236H6.52229H6.52222H6.52216H6.52209H6.52202H6.52196H6.52189H6.52183H6.52176H6.5217H6.52164H6.52157H6.52151H6.52145H6.52138H6.52132H6.52126H6.5212H6.52114H6.52108H6.52102H6.52096H6.5209H6.52084H6.52078H6.52073H6.52067H6.52061H6.52055H6.5205H6.52044H6.52039H6.52033H6.52028H6.52022H6.52017H6.52011H6.52006H6.52001H6.51995H6.5199H6.51985H6.5198H6.51974H6.51969H6.51964H6.51959H6.51954H6.51949H6.51944H6.51939H6.51934H6.5193H6.51925H6.5192H6.51915H6.51911H6.51906H6.51901H6.51897H6.51892H6.51887H6.51883H6.51878H6.51874H6.5187H6.51865H6.51861H6.51857H6.51852H6.51848H6.51844H6.51839H6.51835H6.51831H6.51827H6.51823H6.51819H6.51815H6.51811H6.51807H6.51803H6.51799H6.51795H6.51792H6.51788H6.51784H6.5178H6.51777H6.51773H6.51769H6.51766H6.51762H6.51758H6.51755H6.51751H6.51748H6.51744H6.51741H6.51738H6.51734H6.51731H6.51728H6.51724H6.51721H6.51718H6.51715H6.51711H6.51708H6.51705H6.51702H6.51699H6.51696H6.51693H6.5169H6.51687H6.51684H6.51681H6.51678H6.51675H6.51673H6.5167H6.51667H6.51664H6.51661H6.51659H6.51656H6.51653H6.51651H6.51648H6.51646H6.51643H6.51641H6.51638H6.51636H6.51633H6.51631H6.51628H6.51626H6.51623H6.51621H6.51619H6.51617H6.51614H6.51612H6.5161H6.51608H6.51605H6.51603H6.51601H6.51599H6.51597H6.51595H6.51593H6.51591H6.51589H6.51587H6.51585H6.51583H6.51581H6.51579H6.51577H6.51575H6.51573H6.51572H6.5157H6.51568H6.51566H6.51565H6.51563H6.51561H6.51559H6.51558H6.51556H6.51555H6.51553H6.51551H6.5155H6.51548H6.51547H6.51545H6.51544H6.51542H6.5154H6.51537H6.51534H6.51531H6.51529H6.51526H6.51524H6.51521H6.51519H6.51517H6.51515H6.51513H6.5151H6.51508H6.51507H6.51505H6.51503H6.51501H6.51499H6.51498H6.51496H6.51495H6.51493H6.51491H6.51489H6.51487H6.51485H6.51484H6.51482H6.5148H6.51479H6.51477H6.51475H6.51474H6.51472H6.51471H6.51469H6.51468H6.51466C6.51343 23.5 6.51276 23.4999 6.51165 23.4994C6.51015 23.4987 6.50737 23.4971 6.50419 23.4939C6.49768 23.4872 6.49349 23.478 6.49349 23.4667C6.49349 23.4553 6.49768 23.4461 6.50419 23.4395C6.50737 23.4362 6.51015 23.4346 6.51165 23.434C6.51276 23.4335 6.51343 23.4333 6.51466 23.4333H17.9544H18.4544V22.9333V4.8C18.4544 4.79867 18.4546 4.79527 18.4567 4.78995C18.4589 4.78439 18.4625 4.77829 18.4673 4.77282C18.4697 4.7701 18.4718 4.76811 18.4735 4.76667H18.4737H18.4738H18.474H18.4741H18.4743H18.4745H18.4746H18.4748H18.4749H18.4751H18.4752H18.4754H18.4755H18.4757H18.4758H18.476H18.4761H18.4763H18.4764H18.4766H18.4767H18.4769H18.477H18.4772H18.4774H18.4775H18.4777H18.4778H18.478H18.4781H18.4783H18.4784H18.4786H18.4787H18.4789H18.479H18.4792H18.4793H18.4795H18.4796H18.4798H18.4799H18.4801H18.4803H18.4804H18.4806H18.4807H18.4809H18.481H18.4812H18.4813H18.4815H18.4816H18.4818H18.4819H18.4821H18.4822H18.4824H18.4825H18.4827H18.4828H18.483H18.4832H18.4833H18.4835H18.4836H18.4838H18.4839H18.4841H18.4842H18.4844H18.4845H18.4847H18.4848H18.485H18.4851H18.4853H18.4854H18.4856H18.4858H18.4859H18.4861H18.4862H18.4864H18.4865H18.4867H18.4868H18.487H18.4871H18.4873H18.4874H18.4876H18.4877H18.4879H18.488H18.4882H18.4883H18.4885H18.4887H18.4888H18.489H18.4891H18.4893H18.4894H18.4896H18.4897H18.4899H18.49H18.4902H18.4903H18.4905H18.4906H18.4908H18.4909H18.4911H18.4912H18.4914H18.4916H18.4917H18.4919H18.492H18.4922H18.4923H18.4925H18.4926H18.4928H18.4929H18.4931H18.4932H18.4934H18.4935H18.4937H18.4938H18.494H18.4941H18.4943H18.4945H18.4946H18.4948H18.4949H18.4951H18.4952H18.4954H18.4955H18.4957H18.4958H18.496H18.4961H18.4963H18.4964H18.4966H18.4967H18.4969H18.497H18.4972H18.4974H18.4975H18.4977H18.4978H18.498H18.4981H18.4983H18.4984H18.4986H18.4987H18.4989H18.499H18.4992H18.4993H18.4995H18.4996H18.4998H18.4999H18.5001H18.5003H18.5004H18.5006H18.5007H18.5009H18.501H18.5012H18.5013H18.5015H18.5016C18.5029 4.76667 18.5035 4.76681 18.5046 4.76729C18.5061 4.76794 18.5089 4.76953 18.5121 4.77279C18.5186 4.77945 18.5228 4.78863 18.5228 4.8V6.13333V6.63333H19.0228H20.5863H21.0863V6.13333V3.46667V2.96667H20.5863H3.38762H2.88762V3.46667V6.13333V6.63333H3.38762H4.95114H5.45114V6.13333V4.81399C5.45118 4.81391 5.45121 4.81383 5.45125 4.81374C5.45515 4.80471 5.46265 4.79231 5.47327 4.78069C5.47945 4.77393 5.48484 4.76944 5.48866 4.76667H16.3981C16.4031 4.7698 16.41 4.77501 16.4176 4.78279C16.4282 4.79361 16.4349 4.80418 16.4381 4.81102V21.3223C16.4349 21.3291 16.4282 21.3397 16.4176 21.3505C16.41 21.3583 16.4031 21.3635 16.3981 21.3667H5.49114C5.48618 21.3635 5.47921 21.3583 5.47161 21.3505C5.46103 21.3397 5.45436 21.3291 5.45114 21.3223V9.6ZM0.521173 0C0.521173 0.5 0.52126 0.5 0.521435 0.5C0.521348 0.5 0.52126 0.5 0.521173 0.5V0ZM1.04235 0.566667H0.542345V1.06667V8.53333V9.03333H1.04235H4.95114H5.45114V8.53333V7.2V6.7H4.95114H2.88528C2.88032 6.69687 2.87335 6.69165 2.86575 6.68388C2.85517 6.67305 2.8485 6.66248 2.84528 6.65565V2.94733C2.84531 2.94724 2.84535 2.94716 2.84539 2.94708C2.84929 2.93805 2.85679 2.92564 2.86741 2.91402C2.87359 2.90726 2.87898 2.90277 2.8828 2.9H21.0887C21.0936 2.90313 21.1006 2.90835 21.1082 2.91612C21.1188 2.92695 21.1254 2.93752 21.1287 2.94435V6.65565C21.1254 6.66248 21.1188 6.67305 21.1082 6.68388C21.1006 6.69165 21.0936 6.69687 21.0887 6.7H19.0228H18.5228V7.2V8.53333V9.03333H19.0228H22.9316H23.4316V8.53333V1.06667V0.566667H22.9316H1.04235ZM5.99349 4.83333H5.49349V5.33333V20.8V21.3H5.99349H15.8958H16.3958V20.8V5.33333V4.83333H15.8958H5.99349ZM8.83876 9.6V9.1H8.33876H7.83642C7.83146 9.09687 7.82449 9.09165 7.81689 9.08388C7.80747 9.07424 7.80115 9.06481 7.7976 9.05803C7.79826 9.05512 7.79926 9.0516 7.80079 9.04756C7.80276 9.04234 7.80514 9.03753 7.80762 9.03333H11.987C13.1104 9.03333 14.0928 10.0018 14.0928 11.2C14.0928 12.3982 13.1104 13.3667 11.987 13.3667H9.38111H8.88111V13.8667V14.9333V15.4333H9.38111H12.5081C12.5087 15.4333 12.5091 15.4334 12.5096 15.4334C12.5101 15.4335 12.5106 15.4337 12.5112 15.434C12.5127 15.4346 12.5154 15.4362 12.5186 15.4395C12.5251 15.4461 12.5293 15.4553 12.5293 15.4667C12.5293 15.478 12.5251 15.4872 12.5186 15.4939C12.5154 15.4971 12.5127 15.4987 12.5112 15.4994C12.51 15.4999 12.5094 15.5 12.5081 15.5H9.38111H8.88111V16V17.0667C8.88111 17.078 8.87691 17.0872 8.87041 17.0939C8.86723 17.0971 8.86444 17.0987 8.86295 17.0994C8.86184 17.0999 8.86116 17.1 8.85993 17.1C8.85871 17.1 8.85803 17.0999 8.85692 17.0994C8.85543 17.0987 8.85264 17.0971 8.84946 17.0939C8.84296 17.0872 8.83876 17.078 8.83876 17.0667V16V15.5H8.33876H7.81759C7.81706 15.5 7.81664 15.5 7.81624 15.4999C7.8157 15.4998 7.81521 15.4997 7.81458 15.4994C7.81308 15.4987 7.8103 15.4971 7.80712 15.4939C7.80061 15.4872 7.79642 15.478 7.79642 15.4667C7.79642 15.4553 7.80061 15.4461 7.80712 15.4395C7.8103 15.4362 7.81308 15.4346 7.81458 15.434C7.81569 15.4335 7.81637 15.4333 7.81759 15.4333H8.33876H8.83876V14.9333V13.8667V13.3667H8.33876H7.81759C7.81637 13.3667 7.81569 13.3665 7.81458 13.366C7.81308 13.3654 7.8103 13.3638 7.80712 13.3605C7.80061 13.3539 7.79642 13.3447 7.79642 13.3333C7.79642 13.322 7.80061 13.3128 7.80712 13.3061C7.8103 13.3029 7.81308 13.3013 7.81458 13.3006C7.81569 13.3001 7.81637 13.3 7.81759 13.3H8.33876H8.83876V12.8V9.6ZM9.38111 9.1H8.88111V9.6V12.8V13.3H9.38111H11.987C13.1025 13.3 14.0505 12.3506 14.0505 11.2C14.0505 10.0494 13.1025 9.1 11.987 9.1H9.38111Z" fill="white" stroke="currentColor"/>
</svg>
