<svg width="24" height="24" viewBox="0 0 24 24" fill="none" xmlns="http://www.w3.org/2000/svg">
<g clip-path="url(#clip0)">
<path d="M5.88496 16H4.11504C3.49558 16 3 15.2921 3 14.4073V8.5927C3 7.70787 3.49558 7 4.11504 7H5.88496C6.50442 7 7 7.70787 7 8.5927V14.4073C7 15.2921 6.50442 16 5.88496 16Z" stroke="currentColor" stroke-miterlimit="10"/>
<path d="M4 16V22.9506" stroke="currentColor" stroke-miterlimit="10" stroke-linecap="round"/>
<path d="M6 16V22.9506" stroke="currentColor" stroke-miterlimit="10" stroke-linecap="round"/>
<path d="M4.98718 4.98056C6.08467 4.98056 6.97436 4.09145 6.97436 2.99468C6.97436 1.8979 6.08467 1.00879 4.98718 1.00879C3.88969 1.00879 3 1.8979 3 2.99468C3 4.09145 3.88969 4.98056 4.98718 4.98056Z" stroke="currentColor" stroke-miterlimit="10" stroke-linecap="round"/>
<path d="M19.5273 16H16.4869C15.4509 16 14.8203 14.7612 15.0455 13.4466L16.014 7.93539C16.104 7.40449 16.622 7 17.1851 7H18.8066C19.3697 7 19.8877 7.40449 19.9778 7.93539L20.9462 13.4466C21.1939 14.7612 20.5633 16 19.5273 16Z" stroke="currentColor" stroke-miterlimit="10"/>
<path d="M17 15.9893V22.9399" stroke="currentColor" stroke-miterlimit="10" stroke-linecap="round"/>
<path d="M19 15.9893V22.9399" stroke="currentColor" stroke-miterlimit="10" stroke-linecap="round"/>
<path d="M17.9676 4.98056C19.0651 4.98056 19.9548 4.09145 19.9548 2.99468C19.9548 1.8979 19.0651 1.00879 17.9676 1.00879C16.8702 1.00879 15.9805 1.8979 15.9805 2.99468C15.9805 4.09145 16.8702 4.98056 17.9676 4.98056Z" stroke="currentColor" stroke-miterlimit="10" stroke-linecap="round"/>
</g>
<path d="M12.166 17.8818V22.8818" stroke="currentColor" stroke-miterlimit="10" stroke-linecap="round"/>
<path d="M10.166 17.8818V22.8818" stroke="currentColor" stroke-miterlimit="10" stroke-linecap="round"/>
<path d="M12.7368 17.8818H9.59522C9.07899 17.8818 8.66602 17.3818 8.66602 16.82L9.49935 12.9436C9.66602 12.3818 10.1498 11.8818 10.666 11.8818H11.666C12.1822 11.8818 12.666 12.3818 12.8327 12.9436L13.666 16.82C13.666 17.4099 13.253 17.8818 12.7368 17.8818Z" stroke="currentColor" stroke-miterlimit="10"/>
<path d="M11.166 10.7383C11.9944 10.7383 12.666 10.0671 12.666 9.23926C12.666 8.41137 11.9944 7.74023 11.166 7.74023C10.3376 7.74023 9.66602 8.41137 9.66602 9.23926C9.66602 10.0671 10.3376 10.7383 11.166 10.7383Z" stroke="currentColor" stroke-miterlimit="10" stroke-linecap="round"/>
<defs>
<clipPath id="clip0">
<rect width="22" height="23.9844" fill="white" transform="translate(1.2998 0.015625)"/>
</clipPath>
</defs>
</svg>
