<svg width="24" height="24" viewBox="0 0 24 24" fill="none" xmlns="http://www.w3.org/2000/svg">
<path d="M11.9836 17.2012C12.1795 17.2012 12.3102 17.0686 12.3102 16.8698V12.992C14.2367 12.7269 15.7387 9.97603 15.7387 6.49602C15.7387 2.85029 14.1061 0 11.9836 0C9.86117 0 8.22852 2.85029 8.22852 6.49602C8.22852 9.94289 9.69791 12.6938 11.6571 12.992V16.8698C11.6571 17.0686 11.7877 17.2012 11.9836 17.2012ZM8.88158 6.52916C8.88158 3.34744 10.2857 0.696002 11.9836 0.696002C13.6816 0.696002 15.0857 3.38058 15.0857 6.52916C15.0857 9.47889 13.8449 12.0309 12.3102 12.3292V8.55088L13.8775 6.72802C14.0081 6.59545 13.9755 6.39659 13.8449 6.26402C13.7142 6.13145 13.5183 6.16459 13.3877 6.29716L12.3428 7.5566V4.64001C12.3428 4.44116 12.2122 4.30859 12.0163 4.30859C11.8204 4.30859 11.6897 4.44116 11.6897 4.64001V9.81032C11.3306 9.4126 10.8734 8.81603 10.4489 8.2526C10.351 8.12003 10.1224 8.08688 9.99178 8.18631C9.86117 8.28574 9.82852 8.51774 9.92648 8.65031C10.9714 10.0092 11.4285 10.5395 11.6571 10.7715V12.3292C10.1224 12.0309 8.88158 9.47889 8.88158 6.52916Z" fill="currentColor"/>
<path d="M20.2449 0C18.1551 0 16.4897 2.85029 16.4897 6.49602C16.4897 9.94289 17.9591 12.6938 19.9183 12.992V16.8698C19.9183 17.0686 20.0489 17.2012 20.2449 17.2012C20.4408 17.2012 20.5714 17.0686 20.5714 16.8698V12.992C22.4979 12.7269 24 9.97603 24 6.49602C23.9673 2.88344 22.3347 0 20.2449 0ZM20.5714 12.3292V8.55088L22.1387 6.72802C22.2694 6.59545 22.2367 6.39659 22.1061 6.26402C21.9755 6.13145 21.7796 6.16459 21.6489 6.29716L20.604 7.5566V4.64001C20.604 4.44116 20.4734 4.30859 20.2775 4.30859C20.0816 4.30859 19.951 4.44116 19.951 4.64001V9.81032C19.5918 9.4126 19.1346 8.81603 18.7102 8.2526C18.6122 8.12003 18.3836 8.08688 18.253 8.18631C18.1224 8.28574 18.0897 8.51774 18.1877 8.65031C19.2326 10.0092 19.6898 10.5395 19.9183 10.7715V12.3292C18.3836 11.9978 17.1428 9.47889 17.1428 6.52916C17.1428 3.34744 18.5469 0.696002 20.2449 0.696002C21.9428 0.696002 23.3469 3.38058 23.3469 6.52916C23.3143 9.47889 22.0734 12.0309 20.5714 12.3292Z" fill="currentColor"/>
<path d="M3.42858 12.992V16.8698C3.42858 17.0686 3.55919 17.2012 3.75511 17.2012C3.95103 17.2012 4.08164 17.0686 4.08164 16.8698V12.992C6.00818 12.7269 7.51022 9.97603 7.51022 6.49602C7.51022 2.85029 5.87756 0 3.75511 0C1.66531 0 0 2.85029 0 6.49602C0 9.97603 1.50204 12.7269 3.42858 12.992ZM3.75511 0.662859C5.42042 0.662859 6.85716 3.34744 6.85716 6.49602C6.85716 9.44574 5.61634 11.9978 4.08164 12.296V8.55088L5.64899 6.72802C5.7796 6.59545 5.74695 6.39659 5.61634 6.26402C5.48573 6.13145 5.28981 6.16459 5.15919 6.29716L4.11429 7.5566V4.64001C4.11429 4.44116 3.98368 4.30859 3.78776 4.30859C3.59184 4.30859 3.46123 4.44116 3.46123 4.64001V9.81032C3.10205 9.4126 2.6449 8.81603 2.22041 8.2526C2.12245 8.12003 1.89388 8.08688 1.76327 8.18631C1.63266 8.28574 1.6 8.51774 1.69796 8.65031C2.74286 10.0092 3.20001 10.5395 3.42858 10.7715V12.3292C1.89388 11.9978 0.653063 9.47889 0.653063 6.52916C0.653063 3.34744 2.0898 0.662859 3.75511 0.662859Z" fill="currentColor"/>
<path d="M22.2366 18.6599C21.8448 18.6599 21.6815 18.5274 21.4529 18.3948C21.1917 18.1959 20.8652 17.9971 20.2774 17.9971C19.6897 17.9971 19.3631 18.1959 19.1346 18.3948C18.906 18.5274 18.7101 18.6599 18.3509 18.6599C17.9591 18.6599 17.7958 18.5274 17.5672 18.3948C17.306 18.2291 17.0121 17.9971 16.4244 17.9971C15.8366 17.9971 15.5101 18.1959 15.2815 18.3948C15.0529 18.5605 14.8897 18.6599 14.4978 18.6599C14.106 18.6599 13.9427 18.5274 13.7141 18.3948C13.4529 18.2291 13.159 17.9971 12.5713 17.9971C11.9835 17.9971 11.657 18.1959 11.4284 18.3948C11.1999 18.5605 11.0366 18.6599 10.6447 18.6599C10.2529 18.6599 10.0896 18.5274 9.86108 18.3948C9.59985 18.2291 9.30597 17.9971 8.71822 17.9971C8.13046 17.9971 7.80393 18.1959 7.57536 18.3948C7.34678 18.5605 7.18352 18.6599 6.79168 18.6599C6.39984 18.6599 6.23658 18.5274 6.00801 18.3948C5.74678 18.2291 5.4529 17.9971 4.86515 17.9971C4.27739 17.9971 3.95086 18.1959 3.72229 18.3948C3.49372 18.5605 3.33045 18.6599 2.93861 18.6599C2.54678 18.6599 2.38351 18.5274 2.15494 18.3948C1.89371 18.2291 1.59983 17.9971 1.01208 17.9971C0.816159 17.9971 0.685547 18.1296 0.685547 18.3285C0.685547 18.5274 0.816159 18.6599 1.01208 18.6599C1.40392 18.6599 1.56718 18.7925 1.79575 18.9251C2.05698 19.0908 2.35086 19.3228 2.93861 19.3228C3.52637 19.3228 3.8529 19.1239 4.08147 18.9251C4.31004 18.7594 4.47331 18.6599 4.86515 18.6599C5.25698 18.6599 5.42025 18.7925 5.64882 18.9251C5.91005 19.0908 6.20392 19.3228 6.79168 19.3228C7.37944 19.3228 7.70597 19.1239 7.93454 18.9251C8.16311 18.7594 8.32638 18.6599 8.71822 18.6599C9.11005 18.6599 9.27332 18.7925 9.50189 18.9251C9.76312 19.0908 10.057 19.3228 10.6447 19.3228C11.2325 19.3228 11.559 19.1239 11.7876 18.9251C12.0162 18.7594 12.1794 18.6599 12.5713 18.6599C12.9631 18.6599 13.1264 18.7925 13.355 18.9251C13.6162 19.0908 13.9101 19.3228 14.4978 19.3228C15.0856 19.3228 15.4121 19.1239 15.6407 18.9251C15.8693 18.7594 16.0325 18.6599 16.4244 18.6599C16.8162 18.6599 16.9795 18.7925 17.208 18.9251C17.4693 19.0908 17.7631 19.3228 18.3509 19.3228C18.9386 19.3228 19.2652 19.1239 19.4937 18.9251C19.7223 18.7594 19.8856 18.6599 20.2774 18.6599C20.6693 18.6599 20.8325 18.7925 21.0611 18.9251C21.3223 19.0908 21.6162 19.3228 22.204 19.3228C22.3999 19.3228 22.5305 19.1902 22.5305 18.9914C22.5305 18.7925 22.3999 18.6599 22.2366 18.6599Z" fill="currentColor"/>
<path d="M22.2366 20.9988C21.8448 20.9988 21.6815 20.8662 21.4529 20.7337C21.1917 20.5348 20.8652 20.3359 20.2774 20.3359C19.6897 20.3359 19.3631 20.5348 19.1346 20.7337C18.906 20.8662 18.7101 20.9988 18.3509 20.9988C17.9591 20.9988 17.7958 20.8662 17.5672 20.7337C17.306 20.5679 17.0121 20.3359 16.4244 20.3359C15.8366 20.3359 15.5101 20.5348 15.2815 20.7337C15.0529 20.8994 14.8897 20.9988 14.4978 20.9988C14.106 20.9988 13.9427 20.8662 13.7141 20.7337C13.4529 20.5679 13.159 20.3359 12.5713 20.3359C11.9835 20.3359 11.657 20.5348 11.4284 20.7337C11.1999 20.8994 11.0366 20.9988 10.6447 20.9988C10.2529 20.9988 10.0896 20.8662 9.86108 20.7337C9.59985 20.5679 9.30597 20.3359 8.71822 20.3359C8.13046 20.3359 7.80393 20.5348 7.57536 20.7337C7.34678 20.8994 7.18352 20.9988 6.79168 20.9988C6.39984 20.9988 6.23658 20.8662 6.00801 20.7337C5.74678 20.5679 5.4529 20.3359 4.86515 20.3359C4.27739 20.3359 3.95086 20.5348 3.72229 20.7337C3.49372 20.8994 3.33045 20.9988 2.93861 20.9988C2.54678 20.9988 2.38351 20.8662 2.15494 20.7337C1.89371 20.5679 1.59983 20.3359 1.01208 20.3359C0.816159 20.3359 0.685547 20.4685 0.685547 20.6674C0.685547 20.8662 0.816159 20.9988 1.01208 20.9988C1.40392 20.9988 1.56718 21.1314 1.79575 21.2639C2.05698 21.4297 2.35086 21.6617 2.93861 21.6617C3.52637 21.6617 3.8529 21.4628 4.08147 21.2639C4.31004 21.0982 4.47331 20.9988 4.86515 20.9988C5.25698 20.9988 5.42025 21.1314 5.64882 21.2639C5.91005 21.4297 6.20392 21.6617 6.79168 21.6617C7.37944 21.6617 7.70597 21.4628 7.93454 21.2639C8.16311 21.0982 8.32638 20.9988 8.71822 20.9988C9.11005 20.9988 9.27332 21.1314 9.50189 21.2639C9.76312 21.4297 10.057 21.6617 10.6447 21.6617C11.2325 21.6617 11.559 21.4628 11.7876 21.2639C12.0162 21.0982 12.1794 20.9988 12.5713 20.9988C12.9631 20.9988 13.1264 21.1314 13.355 21.2639C13.6162 21.4297 13.9101 21.6617 14.4978 21.6617C15.0856 21.6617 15.4121 21.4628 15.6407 21.2639C15.8693 21.0982 16.0325 20.9988 16.4244 20.9988C16.8162 20.9988 16.9795 21.1314 17.208 21.2639C17.4693 21.4297 17.7631 21.6617 18.3509 21.6617C18.9386 21.6617 19.2652 21.4628 19.4937 21.2639C19.7223 21.0982 19.8856 20.9988 20.2774 20.9988C20.6693 20.9988 20.8325 21.1314 21.0611 21.2639C21.3223 21.4297 21.6162 21.6617 22.204 21.6617C22.3999 21.6617 22.5305 21.5291 22.5305 21.3302C22.5305 21.1314 22.3999 20.9988 22.2366 20.9988Z" fill="currentColor"/>
<path d="M22.2366 23.3367C21.8448 23.3367 21.6815 23.2041 21.4529 23.0715C21.1917 22.8727 20.8652 22.6738 20.2774 22.6738C19.6897 22.6738 19.3631 22.8727 19.1346 23.0715C18.906 23.2041 18.7101 23.3367 18.3509 23.3367C17.9591 23.3367 17.7958 23.2041 17.5672 23.0715C17.306 22.9058 17.0121 22.6738 16.4244 22.6738C15.8366 22.6738 15.5101 22.8727 15.2815 23.0715C15.0529 23.2373 14.8897 23.3367 14.4978 23.3367C14.106 23.3367 13.9427 23.2041 13.7141 23.0715C13.4529 22.9058 13.159 22.6738 12.5713 22.6738C11.9835 22.6738 11.657 22.8727 11.4284 23.0715C11.1999 23.2373 11.0366 23.3367 10.6447 23.3367C10.2529 23.3367 10.0896 23.2041 9.86108 23.0715C9.59985 22.9058 9.30597 22.6738 8.71822 22.6738C8.13046 22.6738 7.80393 22.8727 7.57536 23.0715C7.34678 23.2373 7.18352 23.3367 6.79168 23.3367C6.39984 23.3367 6.23658 23.2041 6.00801 23.0715C5.74678 22.9058 5.4529 22.6738 4.86515 22.6738C4.27739 22.6738 3.95086 22.8727 3.72229 23.0715C3.49372 23.2373 3.33045 23.3367 2.93861 23.3367C2.54678 23.3367 2.38351 23.2041 2.15494 23.0715C1.89371 22.9058 1.59983 22.6738 1.01208 22.6738C0.816159 22.6738 0.685547 22.8064 0.685547 23.0053C0.685547 23.2041 0.816159 23.3367 1.01208 23.3367C1.40392 23.3367 1.56718 23.4693 1.79575 23.6018C2.05698 23.7675 2.35086 23.9995 2.93861 23.9995C3.52637 23.9995 3.8529 23.8007 4.08147 23.6018C4.31004 23.4361 4.47331 23.3367 4.86515 23.3367C5.25698 23.3367 5.42025 23.4693 5.64882 23.6018C5.91005 23.7675 6.20392 23.9995 6.79168 23.9995C7.37944 23.9995 7.70597 23.8007 7.93454 23.6018C8.16311 23.4361 8.32638 23.3367 8.71822 23.3367C9.11005 23.3367 9.27332 23.4693 9.50189 23.6018C9.76312 23.7675 10.057 23.9995 10.6447 23.9995C11.2325 23.9995 11.559 23.8007 11.7876 23.6018C12.0162 23.4361 12.1794 23.3367 12.5713 23.3367C12.9631 23.3367 13.1264 23.4693 13.355 23.6018C13.6162 23.7675 13.9101 23.9995 14.4978 23.9995C15.0856 23.9995 15.4121 23.8007 15.6407 23.6018C15.8693 23.4361 16.0325 23.3367 16.4244 23.3367C16.8162 23.3367 16.9795 23.4693 17.208 23.6018C17.4693 23.7675 17.7631 23.9995 18.3509 23.9995C18.9386 23.9995 19.2652 23.8007 19.4937 23.6018C19.7223 23.4361 19.8856 23.3367 20.2774 23.3367C20.6693 23.3367 20.8325 23.4693 21.0611 23.6018C21.3223 23.7675 21.6162 23.9995 22.204 23.9995C22.3999 23.9995 22.5305 23.867 22.5305 23.6681C22.5305 23.4693 22.3999 23.3367 22.2366 23.3367Z" fill="currentColor"/>
</svg>
