<svg width="24" height="25" viewBox="0 0 24 25" fill="none" xmlns="http://www.w3.org/2000/svg">
<path d="M4.00001 13.669C5.12326 13.669 6.00177 12.7606 6.56969 11.61C7.1533 10.4276 7.50001 8.82916 7.50001 7.09083C7.50001 5.3525 7.1533 3.75406 6.56969 2.57164C6.00177 1.421 5.12326 0.512695 4.00001 0.512695C2.87676 0.512695 1.99825 1.421 1.43032 2.57164C0.846712 3.75406 0.5 5.3525 0.5 7.09083C0.5 8.82916 0.846712 10.4276 1.43032 11.61C1.99825 12.7606 2.87676 13.669 4.00001 13.669Z" stroke="currentColor"/>
<path d="M12 13.669C13.1233 13.669 14.0018 12.7606 14.5697 11.61C15.1533 10.4276 15.5 8.82916 15.5 7.09083C15.5 5.3525 15.1533 3.75406 14.5697 2.57164C14.0018 1.421 13.1233 0.512695 12 0.512695C10.8768 0.512695 9.99825 1.421 9.43032 2.57164C8.84671 3.75406 8.5 5.3525 8.5 7.09083C8.5 8.82916 8.84671 10.4276 9.43032 11.61C9.99825 12.7606 10.8768 13.669 12 13.669Z" stroke="currentColor"/>
<path d="M20 13.669C21.1233 13.669 22.0018 12.7606 22.5697 11.61C23.1533 10.4276 23.5 8.82916 23.5 7.09083C23.5 5.3525 23.1533 3.75406 22.5697 2.57164C22.0018 1.421 21.1233 0.512695 20 0.512695C18.8768 0.512695 17.9982 1.421 17.4303 2.57164C16.8467 3.75406 16.5 5.3525 16.5 7.09083C16.5 8.82916 16.8467 10.4276 17.4303 11.61C17.9982 12.7606 18.8768 13.669 20 13.669Z" stroke="currentColor"/>
<path d="M4 4.05176V16.208" stroke="currentColor" stroke-linecap="round"/>
<path d="M12 4.05176V16.208" stroke="currentColor" stroke-linecap="round"/>
<path d="M20 4.05176V16.208" stroke="currentColor" stroke-linecap="round"/>
<path d="M4 8.10417L6 6.07812" stroke="currentColor" stroke-linecap="round"/>
<path d="M12 8.10417L14 6.07812" stroke="currentColor" stroke-linecap="round"/>
<path d="M20 8.10417L22 6.07812" stroke="currentColor" stroke-linecap="round"/>
<path d="M4 10.1305L2 8.10449" stroke="currentColor" stroke-linecap="round"/>
<path d="M12 10.1305L10 8.10449" stroke="currentColor" stroke-linecap="round"/>
<path d="M20 10.1305L18 8.10449" stroke="currentColor" stroke-linecap="round"/>
<path d="M1 18.2344C2 18.2344 2 18.8422 3 18.8422C4.00001 18.8422 4.00001 18.2344 5.00001 18.2344C6.00001 18.2344 6.00001 18.8422 7.00001 18.8422C8.00001 18.8422 8.00001 18.2344 9.00002 18.2344C10 18.2344 10 18.8422 11 18.8422C12 18.8422 12 18.2344 13 18.2344C14 18.2344 14 18.8422 15 18.8422C16 18.8422 16 18.2344 17 18.2344C18 18.2344 18 18.8422 19 18.8422C20 18.8422 20 18.2344 21 18.2344C22 18.2344 22 18.8422 23 18.8422" stroke="currentColor" stroke-miterlimit="10" stroke-linecap="round"/>
<path d="M1 20.8682C2 20.8682 2 21.476 3 21.476C4.00001 21.476 4.00001 20.8682 5.00001 20.8682C6.00001 20.8682 6.00001 21.476 7.00001 21.476C8.00001 21.476 8.00001 20.8682 9.00002 20.8682C10 20.8682 10 21.476 11 21.476C12 21.476 12 20.8682 13 20.8682C14 20.8682 14 21.476 15 21.476C16 21.476 16 20.8682 17 20.8682C18 20.8682 18 21.476 19 21.476C20 21.476 20 20.8682 21 20.8682C22 20.8682 22 21.476 23 21.476" stroke="currentColor" stroke-miterlimit="10" stroke-linecap="round"/>
<path d="M1 23.501C2 23.501 2 24.1088 3 24.1088C4.00001 24.1088 4.00001 23.501 5.00001 23.501C6.00001 23.501 6.00001 24.1088 7.00001 24.1088C8.00001 24.1088 8.00001 23.501 9.00002 23.501C10 23.501 10 24.1088 11 24.1088C12 24.1088 12 23.501 13 23.501C14 23.501 14 24.1088 15 24.1088C16 24.1088 16 23.501 17 23.501C18 23.501 18 24.1088 19 24.1088C20 24.1088 20 23.501 21 23.501C22 23.501 22 24.1088 23 24.1088" stroke="currentColor" stroke-miterlimit="10" stroke-linecap="round"/>
</svg>
