<svg width="26" height="26" viewBox="0 0 26 26" fill="none" xmlns="http://www.w3.org/2000/svg">
<path d="M10 1.5H16V0.5H10V1.5ZM9.5 8V2H8.5V8H9.5ZM2 9.5H8V8.5H2V9.5ZM1.5 16V10H0.5V16H1.5ZM8 16.5H2V17.5H8V16.5ZM9.5 24V18H8.5V24H9.5ZM16 24.5H10V25.5H16V24.5ZM16.5 18V24H17.5V18H16.5ZM24 16.5H18V17.5H24V16.5ZM24.5 10V16H25.5V10H24.5ZM18 9.5H24V8.5H18V9.5ZM16.5 2V8H17.5V2H16.5ZM18 8.5C17.7239 8.5 17.5 8.27614 17.5 8H16.5C16.5 8.82843 17.1716 9.5 18 9.5V8.5ZM25.5 10C25.5 9.17157 24.8284 8.5 24 8.5V9.5C24.2761 9.5 24.5 9.72386 24.5 10H25.5ZM24 17.5C24.8284 17.5 25.5 16.8284 25.5 16H24.5C24.5 16.2761 24.2761 16.5 24 16.5V17.5ZM17.5 18C17.5 17.7239 17.7239 17.5 18 17.5V16.5C17.1716 16.5 16.5 17.1716 16.5 18H17.5ZM16 25.5C16.8284 25.5 17.5 24.8284 17.5 24H16.5C16.5 24.2761 16.2761 24.5 16 24.5V25.5ZM8.5 24C8.5 24.8284 9.17157 25.5 10 25.5V24.5C9.72386 24.5 9.5 24.2761 9.5 24H8.5ZM8 17.5C8.27614 17.5 8.5 17.7239 8.5 18H9.5C9.5 17.1716 8.82843 16.5 8 16.5V17.5ZM0.5 16C0.5 16.8284 1.17157 17.5 2 17.5V16.5C1.72386 16.5 1.5 16.2761 1.5 16H0.5ZM2 8.5C1.17157 8.5 0.5 9.17157 0.5 10H1.5C1.5 9.72386 1.72386 9.5 2 9.5V8.5ZM8.5 8C8.5 8.27614 8.27614 8.5 8 8.5V9.5C8.82843 9.5 9.5 8.82843 9.5 8H8.5ZM16 1.5C16.2761 1.5 16.5 1.72386 16.5 2H17.5C17.5 1.17157 16.8284 0.5 16 0.5V1.5ZM10 0.5C9.17157 0.5 8.5 1.17157 8.5 2H9.5C9.5 1.72386 9.72386 1.5 10 1.5V0.5Z" fill="currentColor"/>
</svg>
