<svg width="24" height="24" viewBox="0 0 24 24" fill="none" xmlns="http://www.w3.org/2000/svg">
<path d="M12 14.4231C12.7552 14.4231 13.2273 15 13.5105 16.2308L13.8566 17.4231C14.0455 18.3846 14.6434 19 15.3042 19H19.4895C20.3392 19 21 18 21 16.8077V11.9231C21 11.4231 20.6853 11 20.3392 11H3.66084C3.31469 11 3 11.4231 3 11.9231V16.7692C3 18 3.69231 18.9615 4.51049 18.9615H8.6958C9.35664 18.9615 9.95455 18.3462 10.1434 17.4231L10.521 16.1923C10.7727 15 11.2448 14.4231 12 14.4231Z" stroke="currentColor"/>
<rect x="1" y="13" width="2" height="3" stroke="currentColor"/>
<rect x="21" y="13" width="2" height="3" stroke="currentColor"/>
<path d="M20 11C20 6.58172 16.4183 3 12 3C7.58172 3 4 6.58172 4 11" stroke="currentColor"/>
</svg>
