<svg width="15" height="15" viewBox="0 0 15 15" fill="none" xmlns="http://www.w3.org/2000/svg">
<path fill-rule="evenodd" clip-rule="evenodd" d="M3.71616 1.00244C3.87366 0.98919 4.00866 1.02763 4.09602 1.17211C4.63885 2.05366 5.14047 2.95864 5.66311 3.85226C5.77428 4.06302 5.76899 4.2751 5.60355 4.44343C5.16772 4.8897 4.67742 5.27843 4.22837 5.71061C4.06955 5.86437 4.02852 6.05656 4.13572 6.25936C5.19331 8.24207 6.62601 9.69652 8.5564 10.7912C8.97067 11.0258 9.13214 10.9861 9.45377 10.6269C9.82212 10.2172 10.1542 9.75156 10.5801 9.39946C10.7495 9.25631 10.9348 9.2404 11.1294 9.33849C12.0499 9.7882 12.914 10.3623 13.7924 10.8893C13.9472 10.9808 14.0094 11.1147 13.9989 11.2989C13.893 13.1824 12.5779 14 10.7573 14C8.69382 14 6.34887 12.4724 4.71676 10.9225C2.97489 9.26248 1.43531 7.08721 1.0664 4.65154C0.916144 3.67344 0.96052 2.53999 1.8473 1.811C2.50329 1.27172 3.00522 1.09531 3.71616 1.00244Z" stroke="currentColor"/>
</svg>
