<svg width="30" height="30" viewBox="0 0 30 30" fill="none" xmlns="http://www.w3.org/2000/svg">
<path fill-rule="evenodd" clip-rule="evenodd" d="M15 0C6.71573 0 0 6.71573 0 15C0 23.2843 6.71573 30 15 30C23.2843 30 30 23.2843 30 15C30 6.71573 23.2843 0 15 0ZM18.7223 21.8093L12.0516 17.2391L19.7271 10.816C20.064 10.5387 19.6536 10.4035 19.2064 10.655L9.73373 16.1968L5.64205 15.0126C4.75843 14.7617 4.75209 14.1986 5.84044 13.7938L21.7848 8.09262C22.513 7.78603 23.2159 8.25481 22.9379 9.28837L20.2225 21.1539C20.0329 21.9971 19.4835 22.1988 18.7223 21.8093Z" fill="currentColor"/>
</svg>
