<svg width="38" height="57" viewBox="0 0 38 57" fill="none" xmlns="http://www.w3.org/2000/svg">
<path d="M37 18.5422C37 25.3527 34.2234 29.3805 30.0235 35.4187C26.7874 40.0711 23.149 45.6991 18.9988 54.6011C14.9963 46.0605 11.454 40.7899 8.42624 36.2849C8.309 36.1105 8.19252 35.9372 8.07683 35.7649L7.24664 36.3224L8.07682 35.7649C3.7373 29.3027 1 25.1865 1 18.5422C1 8.87675 9.0357 1 19 1C28.9643 1 37 8.87675 37 18.5422Z" fill="white" stroke="#E96767" stroke-width="2"/>
<path d="M16 7.5H22V6.5H16V7.5ZM15.5 14V8H14.5V14H15.5ZM8 15.5H14V14.5H8V15.5ZM7.5 22V16H6.5V22H7.5ZM14 22.5H8V23.5H14V22.5ZM15.5 30V24H14.5V30H15.5ZM22 30.5H16V31.5H22V30.5ZM22.5 24V30H23.5V24H22.5ZM30 22.5H24V23.5H30V22.5ZM30.5 16V22H31.5V16H30.5ZM24 15.5H30V14.5H24V15.5ZM22.5 8V14H23.5V8H22.5ZM24 14.5C23.7239 14.5 23.5 14.2761 23.5 14H22.5C22.5 14.8284 23.1716 15.5 24 15.5V14.5ZM31.5 16C31.5 15.1716 30.8284 14.5 30 14.5V15.5C30.2761 15.5 30.5 15.7239 30.5 16H31.5ZM30 23.5C30.8284 23.5 31.5 22.8284 31.5 22H30.5C30.5 22.2761 30.2761 22.5 30 22.5V23.5ZM23.5 24C23.5 23.7239 23.7239 23.5 24 23.5V22.5C23.1716 22.5 22.5 23.1716 22.5 24H23.5ZM22 31.5C22.8284 31.5 23.5 30.8284 23.5 30H22.5C22.5 30.2761 22.2761 30.5 22 30.5V31.5ZM14.5 30C14.5 30.8284 15.1716 31.5 16 31.5V30.5C15.7239 30.5 15.5 30.2761 15.5 30H14.5ZM14 23.5C14.2761 23.5 14.5 23.7239 14.5 24H15.5C15.5 23.1716 14.8284 22.5 14 22.5V23.5ZM6.5 22C6.5 22.8284 7.17157 23.5 8 23.5V22.5C7.72386 22.5 7.5 22.2761 7.5 22H6.5ZM8 14.5C7.17157 14.5 6.5 15.1716 6.5 16H7.5C7.5 15.7239 7.72386 15.5 8 15.5V14.5ZM14.5 14C14.5 14.2761 14.2761 14.5 14 14.5V15.5C14.8284 15.5 15.5 14.8284 15.5 14H14.5ZM22 7.5C22.2761 7.5 22.5 7.72386 22.5 8H23.5C23.5 7.17157 22.8284 6.5 22 6.5V7.5ZM16 6.5C15.1716 6.5 14.5 7.17157 14.5 8H15.5C15.5 7.72386 15.7239 7.5 16 7.5V6.5Z" fill="#E96767"/>
</svg>
