<svg width="38" height="57" viewBox="0 0 38 57" fill="none" xmlns="http://www.w3.org/2000/svg">
<path d="M37 18.5422C37 25.3527 34.2234 29.3805 30.0235 35.4187C26.7874 40.0711 23.149 45.6991 18.9988 54.6011C14.9963 46.0605 11.454 40.7899 8.42624 36.2849C8.309 36.1105 8.19252 35.9372 8.07683 35.7649L7.24664 36.3224L8.07682 35.7649C3.7373 29.3027 1 25.1865 1 18.5422C1 8.87675 9.0357 1 19 1C28.9643 1 37 8.87675 37 18.5422Z" fill="white" stroke="#E96767" stroke-width="2"/>
<path d="M15.8125 30.1599L12.1146 15.8018L13.3676 14.986L18.0822 29.3972L15.8125 30.1599Z" stroke="#E96767" stroke-miterlimit="10"/>
<path d="M28.2733 22.7603L23.7035 18.943L16.7211 12.8005L17.9741 11.9848L29.8835 20.997L28.2733 22.7603Z" stroke="#E96767" stroke-miterlimit="10"/>
<path d="M19.4769 27.6567L17.7812 27.9105C17.7571 27.9262 17.7203 27.9227 17.7203 27.9227L13.3707 14.9846L14.6235 14.1689L20.5413 26.4974L19.4769 27.6567Z" stroke="#E96767" stroke-miterlimit="10"/>
<path d="M24.4982 23.9199L15.4663 13.6189L16.7192 12.8032L23.8733 19.3078L26.9156 21.9346C26.8915 21.9503 26.88 21.9852 26.88 21.9852L25.9926 23.4132L24.4982 23.9199Z" stroke="#E96767" stroke-miterlimit="10"/>
<path d="M24.7154 24.0388L23.2823 26.3671L20.5392 26.7578L14.6272 14.1658L15.4625 13.622L24.7154 24.0388Z" stroke="#E96767" stroke-miterlimit="10"/>
<path d="M11.7603 8.90684C13.3717 7.85732 15.5029 8.23685 16.5005 9.75097L17.9758 11.9902L12.1203 15.8039L10.645 13.5647C9.64745 12.0506 10.1489 9.95636 11.7603 8.90684Z" fill="white" stroke="#E96767" stroke-miterlimit="10"/>
<path d="M11.0244 14.1404L16.8799 10.3266" stroke="#E96767" stroke-miterlimit="10"/>
</svg>
