<svg width="38" height="57" viewBox="0 0 38 57" fill="none" xmlns="http://www.w3.org/2000/svg">
<path d="M37 18.5422C37 25.3527 34.2234 29.3805 30.0235 35.4187C26.7874 40.0711 23.149 45.6991 18.9988 54.6011C14.9963 46.0605 11.454 40.7899 8.42624 36.2849C8.309 36.1105 8.19252 35.9372 8.07683 35.7649L7.24664 36.3224L8.07682 35.7649C3.7373 29.3027 1 25.1865 1 18.5422C1 8.87675 9.0357 1 19 1C28.9643 1 37 8.87675 37 18.5422Z" fill="white" stroke="#E96767" stroke-width="2"/>
<g clip-path="url(#clip0)">
<path d="M14.3274 22.9658H11.6726C10.7434 22.9658 10 22.258 10 21.3731V15.5585C10 14.6737 10.7434 13.9658 11.6726 13.9658H14.3274C15.2566 13.9658 16 14.6737 16 15.5585V21.3731C16 22.258 15.2566 22.9658 14.3274 22.9658Z" stroke="#E96767" stroke-miterlimit="10"/>
<path d="M12 23V29.9506" stroke="#E96767" stroke-miterlimit="10" stroke-linecap="round"/>
<path d="M14 23V29.9506" stroke="#E96767" stroke-miterlimit="10" stroke-linecap="round"/>
<path d="M19 8.00879V29.8535" stroke="#E96767" stroke-miterlimit="10" stroke-linecap="round"/>
<path d="M12.9872 11.9806C14.0847 11.9806 14.9744 11.0915 14.9744 9.99468C14.9744 8.8979 14.0847 8.00879 12.9872 8.00879C11.8897 8.00879 11 8.8979 11 9.99468C11 11.0915 11.8897 11.9806 12.9872 11.9806Z" stroke="#E96767" stroke-miterlimit="10" stroke-linecap="round"/>
<path d="M27.0364 22.9893H22.9826C21.6012 22.9893 20.7604 21.7513 21.0607 20.4376L22.3519 14.9299C22.4721 14.3993 23.1627 13.9951 23.9134 13.9951H26.0755C26.8262 13.9951 27.5169 14.3993 27.637 14.9299L28.9282 20.4376C29.2586 21.7513 28.4178 22.9893 27.0364 22.9893Z" stroke="#E96767" stroke-miterlimit="10"/>
<path d="M24 22.9893V29.9399" stroke="#E96767" stroke-miterlimit="10" stroke-linecap="round"/>
<path d="M26 22.9893V29.9399" stroke="#E96767" stroke-miterlimit="10" stroke-linecap="round"/>
<path d="M24.9676 11.9806C26.0651 11.9806 26.9548 11.0915 26.9548 9.99468C26.9548 8.8979 26.0651 8.00879 24.9676 8.00879C23.8702 8.00879 22.9805 8.8979 22.9805 9.99468C22.9805 11.0915 23.8702 11.9806 24.9676 11.9806Z" stroke="#E96767" stroke-miterlimit="10" stroke-linecap="round"/>
</g>
<defs>
<clipPath id="clip0">
<rect width="22" height="23.9844" fill="white" transform="translate(8.2998 7.01562)"/>
</clipPath>
</defs>
</svg>
