<svg width="38" height="57" viewBox="0 0 38 57" fill="none" xmlns="http://www.w3.org/2000/svg">
<path d="M37 18.5422C37 25.3527 34.2234 29.3805 30.0235 35.4187C26.7874 40.0711 23.149 45.6991 18.9988 54.6011C14.9963 46.0605 11.454 40.7899 8.42624 36.2849C8.309 36.1105 8.19252 35.9372 8.07683 35.7649L7.24664 36.3224L8.07682 35.7649C3.7373 29.3027 1 25.1865 1 18.5422C1 8.87675 9.0357 1 19 1C28.9643 1 37 8.87675 37 18.5422Z" fill="white" stroke="#E96767" stroke-width="2"/>
<path d="M15 24H23" stroke="#E96767" stroke-linecap="round"/>
<path d="M27.0003 23.6642L24.1143 13.3545C23.7517 12.0591 22.5711 11.1634 21.2259 11.1632L19.0002 11.1629" stroke="#E96767" stroke-linecap="round"/>
<circle cx="10.7998" cy="23.5" r="2.5" stroke="#E96767"/>
<circle cx="27" cy="23.5" r="2.5" stroke="#E96767"/>
</svg>
