<svg width="38" height="57" viewBox="0 0 38 57" fill="none" xmlns="http://www.w3.org/2000/svg">
<path d="M37 18.5422C37 25.3527 34.2234 29.3805 30.0235 35.4187C26.7874 40.0711 23.149 45.6991 18.9988 54.6011C14.9963 46.0605 11.454 40.7899 8.42624 36.2849C8.309 36.1105 8.19252 35.9372 8.07683 35.7649L7.24664 36.3224L8.07682 35.7649C3.7373 29.3027 1 25.1865 1 18.5422C1 8.87675 9.0357 1 19 1C28.9643 1 37 8.87675 37 18.5422Z" fill="white" stroke="#E96767" stroke-width="2"/>
<path d="M15.8125 30.1601L12.1146 15.802L13.3676 14.9862L18.0822 29.3975L15.8125 30.1601Z" stroke="#E96767" stroke-miterlimit="10"/>
<path d="M28.2734 22.7606L23.7036 18.9433L16.7212 12.8008L17.9742 11.985L29.8836 20.9973L28.2734 22.7606Z" stroke="#E96767" stroke-miterlimit="10"/>
<path d="M19.4769 27.6564L17.7812 27.9102C17.7571 27.9259 17.7203 27.9225 17.7203 27.9225L13.3707 14.9844L14.6235 14.1687L20.5413 26.4972L19.4769 27.6564Z" stroke="#E96767" stroke-miterlimit="10"/>
<path d="M24.4982 23.9202L15.4663 13.6191L16.7192 12.8034L23.8733 19.308L26.9156 21.9349C26.8915 21.9506 26.88 21.9855 26.88 21.9855L25.9926 23.4134L24.4982 23.9202Z" stroke="#E96767" stroke-miterlimit="10"/>
<path d="M24.7156 24.0393L23.2825 26.3675L20.5395 26.7583L14.6275 14.1663L15.4627 13.6225L24.7156 24.0393Z" stroke="#E96767" stroke-miterlimit="10"/>
<path d="M11.7603 8.9066C13.3717 7.85707 15.5029 8.2366 16.5005 9.75072L17.9758 11.9899L12.1203 15.8037L10.645 13.5645C9.64745 12.0504 10.1489 9.95612 11.7603 8.9066Z" stroke="#E96767" stroke-miterlimit="10"/>
<path d="M11.0244 14.1406L16.8799 10.3269" stroke="#E96767" stroke-miterlimit="10"/>
</svg>
