<svg width="38" height="57" viewBox="0 0 38 57" fill="none" xmlns="http://www.w3.org/2000/svg">
<path d="M37 18.5422C37 25.3527 34.2234 29.3805 30.0235 35.4187C26.7874 40.0711 23.149 45.6991 18.9988 54.6011C14.9963 46.0605 11.454 40.7899 8.42624 36.2849C8.309 36.1105 8.19252 35.9372 8.07683 35.7649L7.24664 36.3224L8.07682 35.7649C3.7373 29.3027 1 25.1865 1 18.5422C1 8.87675 9.0357 1 19 1C28.9643 1 37 8.87675 37 18.5422Z" fill="white" stroke="#E96767" stroke-width="2"/>
<path d="M15 7V6.5H14.5V7H15ZM23 7H23.5V6.5H23V7ZM15 15V15.5H15.5V15H15ZM7 15V14.5H6.5V15H7ZM7 23H6.5V23.5H7V23ZM15 23H15.5V22.5H15V23ZM15 31H14.5V31.5H15V31ZM23 31V31.5H23.5V31H23ZM23 23V22.5H22.5V23H23ZM31 23V23.5H31.5V23H31ZM31 15H31.5V14.5H31V15ZM23 15H22.5V15.5H23V15ZM15 7.5H23V6.5H15V7.5ZM15.5 15V7H14.5V15H15.5ZM7 15.5H15V14.5H7V15.5ZM7.5 23V15H6.5V23H7.5ZM15 22.5H7V23.5H15V22.5ZM15.5 31V23H14.5V31H15.5ZM23 30.5H15V31.5H23V30.5ZM22.5 23V31H23.5V23H22.5ZM31 22.5H23V23.5H31V22.5ZM30.5 15V23H31.5V15H30.5ZM23 15.5H31V14.5H23V15.5ZM22.5 7V15H23.5V7H22.5Z" fill="#E96767"/>
</svg>
