<svg width="38" height="57" viewBox="0 0 38 57" fill="none" xmlns="http://www.w3.org/2000/svg">
<path d="M37 18.5422C37 25.3527 34.2234 29.3805 30.0235 35.4187C26.7874 40.0711 23.149 45.6991 18.9988 54.6011C14.9963 46.0605 11.454 40.7899 8.42624 36.2849C8.309 36.1105 8.19252 35.9372 8.07683 35.7649L7.24664 36.3224L8.07682 35.7649C3.7373 29.3027 1 25.1865 1 18.5422C1 8.87675 9.0357 1 19 1C28.9643 1 37 8.87675 37 18.5422Z" fill="white" stroke="#E96767" stroke-width="2"/>
<path d="M11 20.6692C12.1233 20.6692 13.0018 19.7609 13.5697 18.6103C14.1533 17.4278 14.5 15.8294 14.5 14.0911C14.5 12.3527 14.1533 10.7543 13.5697 9.57188C13.0018 8.42125 12.1233 7.51294 11 7.51294C9.87676 7.51294 8.99825 8.42125 8.43032 9.57188C7.84671 10.7543 7.5 12.3527 7.5 14.0911C7.5 15.8294 7.84671 17.4278 8.43032 18.6103C8.99825 19.7609 9.87676 20.6692 11 20.6692Z" stroke="#E96767"/>
<path d="M19 20.6692C20.1233 20.6692 21.0018 19.7609 21.5697 18.6103C22.1533 17.4278 22.5 15.8294 22.5 14.0911C22.5 12.3527 22.1533 10.7543 21.5697 9.57188C21.0018 8.42125 20.1233 7.51294 19 7.51294C17.8768 7.51294 16.9982 8.42125 16.4303 9.57188C15.8467 10.7543 15.5 12.3527 15.5 14.0911C15.5 15.8294 15.8467 17.4278 16.4303 18.6103C16.9982 19.7609 17.8768 20.6692 19 20.6692Z" stroke="#E96767"/>
<path d="M27.0001 20.6692C28.1233 20.6692 29.0018 19.7609 29.5698 18.6103C30.1534 17.4278 30.5001 15.8294 30.5001 14.0911C30.5001 12.3527 30.1534 10.7543 29.5698 9.57188C29.0018 8.42125 28.1233 7.51294 27.0001 7.51294C25.8768 7.51294 24.9983 8.42125 24.4304 9.57188C23.8468 10.7543 23.5001 12.3527 23.5001 14.0911C23.5001 15.8294 23.8468 17.4278 24.4304 18.6103C24.9983 19.7609 25.8768 20.6692 27.0001 20.6692Z" stroke="#E96767"/>
<path d="M11 11.052V23.2083" stroke="#E96767" stroke-linecap="round"/>
<path d="M19 11.052V23.2083" stroke="#E96767" stroke-linecap="round"/>
<path d="M27.0001 11.052V23.2083" stroke="#E96767" stroke-linecap="round"/>
<path d="M11 15.1042L13 13.0781" stroke="#E96767" stroke-linecap="round"/>
<path d="M19 15.1042L21 13.0781" stroke="#E96767" stroke-linecap="round"/>
<path d="M27.0001 15.1042L29.0001 13.0781" stroke="#E96767" stroke-linecap="round"/>
<path d="M11 17.1303L9 15.1042" stroke="#E96767" stroke-linecap="round"/>
<path d="M19 17.1303L17 15.1042" stroke="#E96767" stroke-linecap="round"/>
<path d="M27.0001 17.1303L25.0001 15.1042" stroke="#E96767" stroke-linecap="round"/>
<path d="M8 25.2344C9 25.2344 9 25.8422 10 25.8422C11 25.8422 11 25.2344 12 25.2344C13 25.2344 13 25.8422 14 25.8422C15 25.8422 15 25.2344 16 25.2344C17 25.2344 17 25.8422 18 25.8422C19 25.8422 19 25.2344 20 25.2344C21 25.2344 21 25.8422 22 25.8422C23 25.8422 23 25.2344 24 25.2344C25 25.2344 25 25.8422 26 25.8422C27 25.8422 27 25.2344 28 25.2344C29 25.2344 29 25.8422 30 25.8422" stroke="#E96767" stroke-miterlimit="10" stroke-linecap="round"/>
<path d="M8 27.8679C9 27.8679 9 28.4757 10 28.4757C11 28.4757 11 27.8679 12 27.8679C13 27.8679 13 28.4757 14 28.4757C15 28.4757 15 27.8679 16 27.8679C17 27.8679 17 28.4757 18 28.4757C19 28.4757 19 27.8679 20 27.8679C21 27.8679 21 28.4757 22 28.4757C23 28.4757 23 27.8679 24 27.8679C25 27.8679 25 28.4757 26 28.4757C27 28.4757 27 27.8679 28 27.8679C29 27.8679 29 28.4757 30 28.4757" stroke="#E96767" stroke-miterlimit="10" stroke-linecap="round"/>
<path d="M8 30.5012C9 30.5012 9 31.109 10 31.109C11 31.109 11 30.5012 12 30.5012C13 30.5012 13 31.109 14 31.109C15 31.109 15 30.5012 16 30.5012C17 30.5012 17 31.109 18 31.109C19 31.109 19 30.5012 20 30.5012C21 30.5012 21 31.109 22 31.109C23 31.109 23 30.5012 24 30.5012C25 30.5012 25 31.109 26 31.109C27 31.109 27 30.5012 28 30.5012C29 30.5012 29 31.109 30 31.109" stroke="#E96767" stroke-miterlimit="10" stroke-linecap="round"/>
</svg>
