<svg width="38" height="57" viewBox="0 0 38 57" fill="none" xmlns="http://www.w3.org/2000/svg">
<path d="M37 18.5422C37 25.3527 34.2234 29.3805 30.0235 35.4187C26.7874 40.0711 23.149 45.6991 18.9988 54.6011C14.9963 46.0605 11.454 40.7899 8.42624 36.2849C8.309 36.1105 8.19252 35.9372 8.07683 35.7649L7.24664 36.3224L8.07682 35.7649C3.7373 29.3027 1 25.1865 1 18.5422C1 8.87675 9.0357 1 19 1C28.9643 1 37 8.87675 37 18.5422Z" fill="white" stroke="#E96767" stroke-width="2"/>
<g clip-path="url(#clip0)">
<path d="M14.546 17.1777C12.0472 18.1325 10.2661 20.5458 10.2661 23.3835C10.2661 27.0434 13.2435 30.0137 16.912 30.0137C19.9159 30.0137 22.4413 28.0512 23.292 25.3195" stroke="#E96767" stroke-miterlimit="10" stroke-linecap="round"/>
<path d="M29.2468 25.3726L26.615 26.2743L23.4516 19.8033H16.7791L15.688 13.0117" stroke="#E96767" stroke-miterlimit="10" stroke-linecap="round"/>
<path d="M16.2476 16.4883H22.1225" stroke="#E96767" stroke-miterlimit="10" stroke-linecap="round"/>
<path d="M15.131 11.4763C16.1 11.4763 16.8855 10.6926 16.8855 9.72594C16.8855 8.75925 16.1 7.97559 15.131 7.97559C14.162 7.97559 13.3765 8.75925 13.3765 9.72594C13.3765 10.6926 14.162 11.4763 15.131 11.4763Z" stroke="#E96767" stroke-miterlimit="10"/>
</g>
<defs>
<clipPath id="clip0">
<rect width="21" height="23.9844" fill="white" transform="translate(9.2998 7.01562)"/>
</clipPath>
</defs>
</svg>
