<svg width="38" height="57" viewBox="0 0 38 57" fill="none" xmlns="http://www.w3.org/2000/svg">
<path d="M37 18.5422C37 25.3527 34.2234 29.3805 30.0235 35.4187C26.7874 40.0711 23.149 45.6991 18.9988 54.6011C14.9963 46.0605 11.454 40.7899 8.42624 36.2849C8.309 36.1105 8.19252 35.9372 8.07683 35.7649L7.24664 36.3224L8.07682 35.7649C3.7373 29.3027 1 25.1865 1 18.5422C1 8.87675 9.0357 1 19 1C28.9643 1 37 8.87675 37 18.5422Z" fill="white" stroke="#E96767" stroke-width="2"/>
<ellipse cx="18.9999" cy="19" rx="4.98907" ry="11" stroke="#E96767"/>
<ellipse rx="4.99727" ry="10.982" transform="matrix(0.49918 0.866498 -0.865551 0.500821 19.0001 19)" stroke="#E96767"/>
<ellipse rx="4.99727" ry="10.982" transform="matrix(-0.49918 0.866498 -0.865551 -0.500821 19 19)" stroke="#E96767"/>
<ellipse rx="0.999454" ry="0.998361" transform="matrix(-0.49918 0.866499 -0.865551 -0.500821 28.5948 21.6307)" fill="white" stroke="#E96767"/>
<ellipse cx="18.8489" cy="18.5801" rx="1.49672" ry="1.5" stroke="#E96767"/>
<ellipse cx="16.7305" cy="9.44531" rx="0.997815" ry="1" fill="white" stroke="#E96767"/>
<ellipse rx="0.999854" ry="0.997961" transform="matrix(-0.258291 -0.966067 0.965784 -0.259348 9.54614 21.7713)" fill="white" stroke="#E96767"/>
</svg>
