<svg width="38" height="57" viewBox="0 0 38 57" fill="none" xmlns="http://www.w3.org/2000/svg">
<path d="M37 18.5422C37 25.3527 34.2234 29.3805 30.0235 35.4187C26.7874 40.0711 23.149 45.6991 18.9988 54.6011C14.9963 46.0605 11.454 40.7899 8.42624 36.2849C8.309 36.1105 8.19252 35.9372 8.07683 35.7649L7.24664 36.3224L8.07682 35.7649C3.7373 29.3027 1 25.1865 1 18.5422C1 8.87675 9.0357 1 19 1C28.9643 1 37 8.87675 37 18.5422Z" fill="white" stroke="#E96767" stroke-width="2"/>
<g clip-path="url(#clip0_1520_83405)">
<path fill-rule="evenodd" clip-rule="evenodd" d="M14.7692 27C15.5503 27 17.6331 26.8806 19.1953 25.806V26.6418H22.3195V23.0597L23.6213 21.7463L26.355 26.6418H30L25.8343 19.7164L30 15.2985H26.2248L22.3195 19.597V11.3582H19.1953V12.6716C18.284 11.7164 16.7219 11 14.3787 11C9.30178 11 8.26035 13.9851 8.26035 15.6567C8.26035 17.9254 9.56213 19.2388 11.7751 19.8358L14.8994 20.5522C16.5917 20.9104 17.7633 21.2687 17.7633 22.4627C17.7633 24.0149 16.071 24.4925 14.5089 24.4925C11.645 24.4925 11.1243 22.8209 11.1243 21.9851H8C8 23.7761 9.04142 27 14.7692 27ZM16.8521 17.806L12.9467 16.8507C12.2959 16.7313 11.2544 16.4925 11.2544 15.2985C11.2544 13.8657 12.8166 13.5075 13.9882 13.5075C16.8521 13.5075 17.1124 15.1791 17.2426 15.7761H19.0651V18.6418C18.4142 18.2836 17.6331 18.0448 16.8521 17.806Z" stroke="#E96767" stroke-miterlimit="10"/>
</g>
<defs>
<clipPath id="clip0_1520_83405">
<rect width="24" height="24" fill="white" transform="translate(7 7)"/>
</clipPath>
</defs>
</svg>
