<svg width="38" height="57" viewBox="0 0 38 57" fill="none" xmlns="http://www.w3.org/2000/svg">
<path d="M37 18.5422C37 25.3527 34.2234 29.3805 30.0235 35.4187C26.7874 40.0711 23.149 45.6991 18.9988 54.6011C14.9963 46.0605 11.454 40.7899 8.42624 36.2849C8.309 36.1105 8.19252 35.9372 8.07683 35.7649L7.24664 36.3224L8.07682 35.7649C3.7373 29.3027 1 25.1865 1 18.5422C1 8.87675 9.0357 1 19 1C28.9643 1 37 8.87675 37 18.5422Z" fill="white" stroke="#E96767" stroke-width="2"/>
<path d="M29.2846 16.4849C30.1649 21.0139 26.2445 25.5848 20.5306 26.6955C18.2675 27.1354 16.0893 26.8893 14.1635 26.3182C12.6545 25.8696 16.3819 22.7023 14.6051 21.5504C13.3335 20.7254 10.6909 24.4554 9.65599 23.0507C9.11243 22.3014 8.77339 21.4309 8.59376 20.5068C7.71342 15.9779 11.6338 11.4069 17.3477 10.2962C23.0617 9.18554 28.4042 11.956 29.2846 16.4849Z" stroke="#E96767" stroke-miterlimit="10"/>
<path d="M15 15C15.5523 15 16 14.5523 16 14C16 13.4477 15.5523 13 15 13C14.4477 13 14 13.4477 14 14C14 14.5523 14.4477 15 15 15Z" stroke="#E96767" stroke-miterlimit="10"/>
<path d="M12 19C12.5523 19 13 18.5523 13 18C13 17.4477 12.5523 17 12 17C11.4477 17 11 17.4477 11 18C11 18.5523 11.4477 19 12 19Z" stroke="#E96767" stroke-miterlimit="10"/>
<path d="M25 21C25.5523 21 26 20.5523 26 20C26 19.4477 25.5523 19 25 19C24.4477 19 24 19.4477 24 20C24 20.5523 24.4477 21 25 21Z" stroke="#E96767" stroke-miterlimit="10"/>
<path d="M25 16C25.5523 16 26 15.5523 26 15C26 14.4477 25.5523 14 25 14C24.4477 14 24 14.4477 24 15C24 15.5523 24.4477 16 25 16Z" stroke="#E96767" stroke-miterlimit="10"/>
<path d="M21 24C21.5523 24 22 23.5523 22 23C22 22.4477 21.5523 22 21 22C20.4477 22 20 22.4477 20 23C20 23.5523 20.4477 24 21 24Z" stroke="#E96767" stroke-miterlimit="10"/>
<path d="M20 14C20.5523 14 21 13.5523 21 13C21 12.4477 20.5523 12 20 12C19.4477 12 19 12.4477 19 13C19 13.5523 19.4477 14 20 14Z" stroke="#E96767" stroke-miterlimit="10"/>
</svg>
