<svg width="38" height="57" viewBox="0 0 38 57" fill="none" xmlns="http://www.w3.org/2000/svg">
<path d="M37 18.5422C37 25.3527 34.2234 29.3805 30.0235 35.4187C26.7874 40.0711 23.149 45.6991 18.9988 54.6011C14.9963 46.0605 11.454 40.7899 8.42624 36.2849C8.309 36.1105 8.19252 35.9372 8.07683 35.7649L7.24664 36.3224L8.07682 35.7649C3.7373 29.3027 1 25.1865 1 18.5422C1 8.87675 9.0357 1 19 1C28.9643 1 37 8.87675 37 18.5422Z" fill="white" stroke="#E96767" stroke-width="2"/>
<path d="M29.7241 15.8707L19.481 19.898C19.1698 20.034 18.8302 20.034 18.4907 19.898L8.27588 15.8707C7.90804 15.7347 7.90804 15.2177 8.27588 15.0816L18.519 11.0816C18.8302 10.9728 19.1698 10.9728 19.481 11.0816L29.7241 15.0544C30.092 15.2177 30.092 15.7075 29.7241 15.8707Z" stroke="#E96767" stroke-miterlimit="10"/>
<path d="M27 17V22.4935C27 23.0779 26.6641 23.6331 26.145 23.9545C24.8626 24.7143 22.2366 26 19 26C15.7634 26 13.1374 24.7143 11.855 23.9545C11.3359 23.6331 11 23.0779 11 22.4935V17" stroke="#E96767" stroke-miterlimit="10"/>
<path d="M8 15.5V21.9997" stroke="#E96767" stroke-miterlimit="10" stroke-linecap="round"/>
</svg>
