<svg width="38" height="57" viewBox="0 0 38 57" fill="none" xmlns="http://www.w3.org/2000/svg">
<path d="M37 18.5422C37 25.3527 34.2234 29.3805 30.0235 35.4187C26.7874 40.0711 23.149 45.6991 18.9988 54.6011C14.9963 46.0605 11.454 40.7899 8.42624 36.2849C8.309 36.1105 8.19252 35.9372 8.07683 35.7649L7.24664 36.3224L8.07682 35.7649C3.7373 29.3027 1 25.1865 1 18.5422C1 8.87675 9.0357 1 19 1C28.9643 1 37 8.87675 37 18.5422Z" fill="white" stroke="#E96767" stroke-width="2"/>
<path d="M25.5 16H29C29.5523 16 30 15.5523 30 15V9C30 8.44772 29.5523 8 29 8H9C8.44772 8 8 8.44772 8 9V15C8 15.5523 8.44772 16 9 16H12" stroke="#E96767"/>
<path d="M25 14H27C27.5523 14 28 13.5523 28 13V11C28 10.4477 27.5523 10 27 10H11C10.4477 10 10 10.4477 10 11V13C10 13.5523 10.4477 14 11 14H12" stroke="#E96767"/>
<rect x="12" y="12" width="11" height="16" rx="1" stroke="#E96767"/>
<path d="M13 30H24.5C25.0523 30 25.5 29.5523 25.5 29V11.5" stroke="#E96767" stroke-linecap="round"/>
<path d="M14.4 20.28C14.16 20.28 14 20.44 14 20.68C14 20.92 14.16 21.08 14.4 21.08H15.28V22.36H14.4C14.16 22.36 14 22.52 14 22.76C14 23 14.16 23.16 14.4 23.16H15.28V25.32C15.28 25.56 15.44 25.72 15.68 25.72C15.92 25.72 16.08 25.56 16.08 25.32V23.16H19.76C20 23.16 20.16 23 20.16 22.76C20.16 22.52 20 22.36 19.76 22.36H16.08V21.08H17.68C20 21.08 21.28 19.8 21.28 18.04C21.28 16.28 20 15 17.68 15H15.68C15.44 15 15.28 15.16 15.28 15.4V20.28H14.4ZM16.08 20.28V15.8H17.68C19.6 15.8 20.48 16.68 20.48 18.04C20.48 19.4 19.6 20.28 17.68 20.28H16.08Z" fill="#E96767"/>
</svg>
