<svg width="38" height="57" viewBox="0 0 38 57" fill="none" xmlns="http://www.w3.org/2000/svg">
<path d="M37 18.5422C37 25.3527 34.2234 29.3805 30.0235 35.4187C26.7874 40.0711 23.149 45.6991 18.9988 54.6011C14.9963 46.0605 11.454 40.7899 8.42624 36.2849C8.309 36.1105 8.19252 35.9372 8.07683 35.7649L7.24664 36.3224L8.07682 35.7649C3.7373 29.3027 1 25.1865 1 18.5422C1 8.87675 9.0357 1 19 1C28.9643 1 37 8.87675 37 18.5422Z" fill="white" stroke="#E96767" stroke-width="2"/>
<path d="M7.5 15H11.2395V21.6977H7.5V15Z" fill="white"/>
<path d="M11.5619 16.1535C13.0934 16.1535 14.0204 16.1535 15.1892 16.1535C16.9222 16.1535 17.7686 17.7163 18.8971 17.7163C20.4689 17.7163 22.0811 17.7163 23.6529 17.7163C24.4187 17.7163 25.0232 18.2744 25.0232 18.9814C25.0232 19.6884 24.4187 20.2465 23.6529 20.2465H18.6956M11.3604 20.8791L14.8668 22.5163C15.5519 22.8512 16.2774 23 17.0432 23H21.8393C22.6856 23 23.532 22.7767 24.2978 22.3674L29.376 19.6512C29.9806 19.3163 30.1821 18.6093 29.8194 18.0884C29.779 18.0512 29.779 18.014 29.779 17.9767C29.3357 17.4186 28.5296 17.2326 27.8445 17.5674L25.1845 18.9814M7.5 15H11.2395V21.6977H7.5V15Z" stroke="#E96767" stroke-miterlimit="10" stroke-linecap="round" stroke-linejoin="round"/>
</svg>
