<svg width="38" height="57" viewBox="0 0 38 57" fill="none" xmlns="http://www.w3.org/2000/svg">
<path d="M37 18.5422C37 25.3527 34.2234 29.3805 30.0235 35.4187C26.7874 40.0711 23.149 45.6991 18.9988 54.6011C14.9963 46.0605 11.454 40.7899 8.42624 36.2849C8.309 36.1105 8.19252 35.9372 8.07683 35.7649L7.24664 36.3224L8.07682 35.7649C3.7373 29.3027 1 25.1865 1 18.5422C1 8.87675 9.0357 1 19 1C28.9643 1 37 8.87675 37 18.5422Z" fill="white" stroke="#E96767" stroke-width="2"/>
<g clip-path="url(#clip0_1520_83403)">
<path d="M14.5459 17.1777C12.0471 18.1325 10.266 20.5458 10.266 23.3835C10.266 27.0434 13.2433 30.0137 16.9119 30.0137C19.9158 30.0137 22.4412 28.0512 23.2919 25.3195" fill="white"/>
<path d="M14.5459 17.1777C12.0471 18.1325 10.266 20.5458 10.266 23.3835C10.266 27.0434 13.2433 30.0137 16.9119 30.0137C19.9158 30.0137 22.4412 28.0512 23.2919 25.3195" stroke="#E96767" stroke-miterlimit="10" stroke-linecap="round"/>
<path d="M29.2466 25.3726L26.6149 26.2743L23.4514 19.8033H16.779L15.6879 13.0117" stroke="#E96767" stroke-miterlimit="10" stroke-linecap="round"/>
<path d="M16.2474 16.4888H22.1224" stroke="#E96767" stroke-miterlimit="10" stroke-linecap="round"/>
<path d="M15.1309 11.4765C16.0998 11.4765 16.8854 10.6929 16.8854 9.72619C16.8854 8.75949 16.0998 7.97583 15.1309 7.97583C14.1619 7.97583 13.3763 8.75949 13.3763 9.72619C13.3763 10.6929 14.1619 11.4765 15.1309 11.4765Z" stroke="#E96767" stroke-miterlimit="10"/>
</g>
<defs>
<clipPath id="clip0_1520_83403">
<rect width="21" height="23.9844" fill="white" transform="translate(9.2998 7.01562)"/>
</clipPath>
</defs>
</svg>
