<svg width="38" height="57" viewBox="0 0 38 57" fill="none" xmlns="http://www.w3.org/2000/svg">
<path d="M37 18.5422C37 25.3527 34.2234 29.3805 30.0235 35.4187C26.7874 40.0711 23.149 45.6991 18.9988 54.6011C14.9963 46.0605 11.454 40.7899 8.42624 36.2849C8.309 36.1105 8.19252 35.9372 8.07683 35.7649L7.24664 36.3224L8.07682 35.7649C3.7373 29.3027 1 25.1865 1 18.5422C1 8.87675 9.0357 1 19 1C28.9643 1 37 8.87675 37 18.5422Z" fill="white" stroke="#E96767" stroke-width="2"/>
<path d="M23.2998 8.01562C22.6075 8.01562 21.8767 8.35439 21.2998 9.06579C20.7229 9.77719 20.2998 10.8274 20.2998 12.013C20.2998 13.1987 20.7229 14.2489 21.2998 14.9603C21.8767 15.6717 22.6075 16.0104 23.2998 16.0104C23.9921 16.0104 24.7229 15.6717 25.2998 14.9603C25.8767 14.2489 26.2998 13.1987 26.2998 12.013C26.2998 10.8274 25.8767 9.77719 25.2998 9.06579C24.7229 8.35439 24.0306 8.01562 23.2998 8.01562Z" fill="white" stroke="#E96767" stroke-miterlimit="10"/>
<path d="M15.2998 8.01562V18.0091" stroke="#E96767" stroke-miterlimit="10" stroke-linecap="round"/>
<path d="M23.2998 16.0098L23.2998 18.0085" stroke="#E96767" stroke-miterlimit="10" stroke-linecap="round"/>
<path d="M18.2998 8.01562V12.5672C18.2998 13.9114 16.9498 15.0111 15.2998 15.0111C13.6498 15.0111 12.2998 13.9114 12.2998 12.5672V8.01562" stroke="#E96767" stroke-miterlimit="10" stroke-linecap="round"/>
<rect x="13.2998" y="18.0085" width="4" height="12.9915" rx="2" stroke="#E96767"/>
<rect x="21.2998" y="18.0085" width="4" height="12.9915" rx="2" stroke="#E96767"/>
</svg>
