<svg width="38" height="57" viewBox="0 0 38 57" fill="none" xmlns="http://www.w3.org/2000/svg">
<path d="M37 18.5422C37 25.3527 34.2234 29.3805 30.0235 35.4187C26.7874 40.0711 23.149 45.6991 18.9988 54.6011C14.9963 46.0605 11.454 40.7899 8.42624 36.2849C8.309 36.1105 8.19252 35.9372 8.07683 35.7649L7.24664 36.3224L8.07682 35.7649C3.7373 29.3027 1 25.1865 1 18.5422C1 8.87675 9.0357 1 19 1C28.9643 1 37 8.87675 37 18.5422Z" fill="white" stroke="#E96767" stroke-width="2"/>
<path d="M10 12H14" stroke="#E96767" stroke-linecap="round"/>
<path d="M20 15H23" stroke="#E96767" stroke-linecap="round"/>
<path d="M20 17.998H23" stroke="#E96767" stroke-linecap="round"/>
<path d="M20 20.9961H23" stroke="#E96767" stroke-linecap="round"/>
<path d="M20 23.9941H23" stroke="#E96767" stroke-linecap="round"/>
<path d="M20 26.9922H23" stroke="#E96767" stroke-linecap="round"/>
<path d="M25 15H28" stroke="#E96767" stroke-linecap="round"/>
<path d="M25 17.998H28" stroke="#E96767" stroke-linecap="round"/>
<path d="M25 20.9961H28" stroke="#E96767" stroke-linecap="round"/>
<path d="M25 23.9941H28" stroke="#E96767" stroke-linecap="round"/>
<path d="M25 26.9922H28" stroke="#E96767" stroke-linecap="round"/>
<path d="M10 14.998H14" stroke="#E96767" stroke-linecap="round"/>
<path d="M10 17.9961H14" stroke="#E96767" stroke-linecap="round"/>
<path d="M10 20.9941H14" stroke="#E96767" stroke-linecap="round"/>
<path d="M10 23.9922H14" stroke="#E96767" stroke-linecap="round"/>
<path d="M10 26.9902H14" stroke="#E96767" stroke-linecap="round"/>
<path d="M8 9L16 10.3913V30H8V9Z" stroke="#E96767"/>
<path d="M18 12.7822L30 9V29.9996H18V12.7822Z" stroke="#E96767"/>
</svg>
