<svg width="70" height="53" viewBox="0 0 70 53" fill="none" xmlns="http://www.w3.org/2000/svg">
<path d="M7.98887 44.1846C7.73525 43.4238 7.48164 42.1557 5.45272 42.1557C4.31145 42.1557 2.53615 43.0434 2.53615 46.2136C2.53615 48.2425 3.4238 50.1446 5.45272 50.1446C6.8476 50.1446 7.73525 49.3838 7.98887 47.8621H10.3982C9.89098 50.3982 8.24248 52.1735 5.32591 52.1735C2.28253 52.1735 0 50.1446 0 46.0868C0 42.0289 2.28253 40 5.32591 40C8.74971 40 10.1446 42.4093 10.2714 44.0578H7.98887V44.1846Z" fill="#D3D800"/>
<path d="M13.3149 46.595L16.2315 43.4248H18.8944L15.9779 46.7218L19.0212 51.9209H16.3583L14.3294 48.2435L13.3149 49.2579V51.9209H11.1592V43.4248H13.3149V46.595Z" fill="#D3D800"/>
<path d="M27.264 47.6092C27.264 50.6525 25.2351 52.1742 22.9526 52.1742C20.67 52.1742 18.6411 50.7793 18.6411 47.736C18.6411 44.6926 20.67 43.1709 22.9526 43.1709C25.1083 43.1709 27.264 44.5658 27.264 47.6092ZM20.7968 47.6092C20.7968 48.7504 21.1773 50.2721 22.8258 50.2721C24.6011 50.2721 24.8547 48.7504 24.8547 47.6092C24.8547 46.4679 24.4743 44.9462 22.8258 44.9462C21.1773 45.073 20.7968 46.5947 20.7968 47.6092Z" fill="#D3D800"/>
<path d="M35.6336 43.4248V51.9209H33.3511V45.2001H30.9418V47.8631C30.9418 51.1601 29.9273 52.1745 28.4056 52.1745C28.0252 52.1745 27.3912 52.1745 27.0107 52.0477V50.3992C27.0107 50.3992 27.3912 50.526 27.6448 50.526C28.2788 50.526 28.6592 50.1456 28.6592 47.6094V43.5516H35.6336V43.4248Z" fill="#D3D800"/>
<path d="M39.0579 46.595L41.8477 43.4248H44.6374L41.5941 46.7218L44.7643 51.9209H41.9745L39.9456 48.2435L39.0579 49.2579V51.9209H36.7754V43.4248H39.0579V46.595Z" fill="#D3D800"/>
<path d="M52.8807 47.6092C52.8807 50.6525 50.8518 52.1742 48.5693 52.1742C46.2867 52.1742 44.2578 50.7793 44.2578 47.736C44.2578 44.6926 46.2867 43.1709 48.5693 43.1709C50.8518 43.1709 52.8807 44.5658 52.8807 47.6092ZM46.5403 47.6092C46.5403 48.7504 46.9208 50.2721 48.5693 50.2721C50.3446 50.2721 50.5982 48.7504 50.5982 47.6092C50.5982 46.4679 50.2178 44.9462 48.5693 44.9462C46.794 45.073 46.5403 46.5947 46.5403 47.6092Z" fill="#D3D800"/>
<path d="M53.6419 43.4248H57.4462C59.3483 43.4248 60.7432 44.1857 60.7432 45.5805C60.7432 46.595 59.9823 47.229 59.0947 47.4826C59.9823 47.7363 60.9968 48.2435 60.9968 49.6384C60.9968 51.2869 59.8555 51.9209 57.8266 51.9209H53.5151V43.4248H53.6419ZM55.9245 46.8486H57.4462C58.207 46.8486 58.7142 46.595 58.7142 45.8341C58.7142 45.0733 58.207 44.8197 57.4462 44.8197H55.9245V46.8486ZM55.9245 50.3992H57.573C58.4606 50.3992 58.9679 50.1456 58.9679 49.2579C58.9679 48.4971 58.4606 48.1167 57.573 48.1167H55.9245V50.3992Z" fill="#D3D800"/>
<path d="M69.9997 47.6092C69.9997 50.6525 67.9708 52.1742 65.6883 52.1742C63.4057 52.1742 61.25 50.7793 61.25 47.736C61.25 44.6926 63.2789 43.1709 65.6883 43.1709C67.9708 43.1709 69.9997 44.5658 69.9997 47.6092ZM63.6593 47.6092C63.6593 48.7504 64.0398 50.2721 65.6883 50.2721C67.4636 50.2721 67.7172 48.7504 67.7172 47.6092C67.7172 46.4679 67.4636 44.9462 65.6883 44.9462C63.913 45.073 63.6593 46.5947 63.6593 47.6092Z" fill="#D3D800"/>
<path d="M16.7706 38.6633C18.6783 38.6633 23.384 38.2818 26.9451 35.7382V37.6459H34.0673V28.9975L36.9925 25.9451L43.4788 37.6459H52L42.207 20.985L51.7456 10.4289H42.9701L33.9402 20.7307V1.01746H26.818V4.19701C24.783 1.78055 21.2219 0 15.7531 0C3.79801 0 1.63591 7.24938 1.63591 11.3192C1.63591 16.9152 4.5611 19.9676 9.77556 21.2394L17.1521 23.02C21.0948 24.0374 23.7656 24.6733 23.7656 27.5985C23.7656 31.414 19.6958 32.3042 16.1347 32.3042C9.5212 32.3042 8.37656 28.3616 8.37656 26.3267H1C1 30.9052 3.41646 38.6633 16.7706 38.6633ZM21.6035 16.788L12.7007 14.6259C11.1746 14.2444 8.75811 13.6085 8.75811 10.8105C8.75811 7.50374 12.192 6.3591 15.1172 6.3591C21.7307 6.3591 22.3666 10.3017 22.6209 11.9551H26.818V18.8229C25.2918 17.8055 23.5112 17.1696 21.6035 16.788Z" fill="#D3D800"/>
</svg>
