<?xml version="1.0" encoding="utf-8"?><svg viewBox="0 0 321 64" xmlns="http://www.w3.org/2000/svg" xmlns:xlink="http://www.w3.org/1999/xlink"><style>:root>svg{display:none}:root>svg:target{display:block}</style><svg fill="none" viewBox="0 0 15 30" id="ic_arrow" xmlns="http://www.w3.org/2000/svg"><path d="M1 1l11.879 11.879a3 3 0 0 1 0 4.242L1 29" stroke="currentColor" stroke-width="2" stroke-linecap="round"/></svg><svg fill="none" viewBox="0 0 24 24" id="ic_aside_menu1" xmlns="http://www.w3.org/2000/svg"><g clip-path="url(#abclip0)"><path clip-rule="evenodd" d="M7.77 20c.78 0 2.863-.12 4.425-1.194v.836h3.124V16.06l1.302-1.314 2.734 4.896H23l-4.166-6.926L23 8.3h-3.775l-3.906 4.298V4.358h-3.124v1.314C11.284 4.716 9.722 4 7.38 4 2.302 4 1.26 6.985 1.26 8.657c0 2.268 1.302 3.582 3.515 4.179l3.124.716c1.693.358 2.864.717 2.864 1.91 0 1.553-1.692 2.03-3.254 2.03-2.864 0-3.385-1.671-3.385-2.507H1C1 16.776 2.041 20 7.77 20zm2.082-9.194l-3.905-.955c-.651-.12-1.693-.358-1.693-1.552 0-1.433 1.563-1.792 2.734-1.792 2.864 0 3.124 1.672 3.255 2.27h1.822v2.865c-.65-.358-1.432-.597-2.213-.836z" stroke="currentColor" stroke-miterlimit="10"/></g><defs><clipPath id="abclip0"><path fill="currentColor" d="M0 0h24v24H0z"/></clipPath></defs></svg><svg fill="none" viewBox="0 0 24 24" id="ic_aside_menu10" xmlns="http://www.w3.org/2000/svg"><g clip-path="url(#acclip0)" stroke="currentColor" stroke-miterlimit="10"><path d="M5.885 16h-1.77C3.495 16 3 15.292 3 14.407V8.593C3 7.708 3.496 7 4.115 7h1.77C6.505 7 7 7.708 7 8.593v5.814C7 15.292 6.504 16 5.885 16z"/><path d="M4 16v6.95M6 16v6.95M4.987 4.98a1.987 1.987 0 1 0 .001-3.973 1.987 1.987 0 0 0 0 3.974z" stroke-linecap="round"/><path d="M19.527 16h-3.04c-1.036 0-1.667-1.239-1.441-2.553l.968-5.512c.09-.53.608-.935 1.171-.935h1.622c.563 0 1.08.404 1.17.935l.97 5.512c.247 1.314-.384 2.553-1.42 2.553z"/><path d="M17 15.99v6.95M19 15.99v6.95M17.968 4.98a1.987 1.987 0 1 0 0-3.973 1.987 1.987 0 0 0 0 3.974z" stroke-linecap="round"/></g><path d="M12.166 17.882v5M10.166 17.882v5" stroke="currentColor" stroke-miterlimit="10" stroke-linecap="round"/><path d="M12.737 17.882H9.595c-.516 0-.929-.5-.929-1.062l.833-3.876c.167-.562.65-1.062 1.167-1.062h1c.516 0 1 .5 1.167 1.062l.833 3.876c0 .59-.413 1.062-.93 1.062z" stroke="currentColor" stroke-miterlimit="10"/><path d="M11.166 10.738a1.5 1.5 0 1 0 0-2.999 1.5 1.5 0 0 0 0 3z" stroke="currentColor" stroke-miterlimit="10" stroke-linecap="round"/><defs><clipPath id="acclip0"><path fill="#fff" transform="translate(1.3 .016)" d="M0 0h22v23.984H0z"/></clipPath></defs></svg><svg fill="none" viewBox="0 0 24 24" id="ic_aside_menu11" xmlns="http://www.w3.org/2000/svg"><path d="M13 13c.496 1.027.765 1.981.827 3.11.02.437 0 .892-.042 1.347a9.41 9.41 0 0 1-.64 2.543h4.67c.186-.775.657-5.468-2.815-8.5M1 22.77A2.77 2.77 0 0 1 3.77 20h16.46A2.77 2.77 0 0 1 23 22.77v0a.23.23 0 0 1-.23.23H1.23a.23.23 0 0 1-.23-.23v0z" stroke="currentColor"/><circle cx="12" cy="10" r="3" stroke="currentColor"/><circle cx="12" cy="10" r="1" stroke="currentColor"/><path d="M9.678 12l-1.644 1.644a1 1 0 0 1-1.415 0L4.5 11.523a1 1 0 0 1 0-1.415l6.673-6.674a1 1 0 0 1 1.414 0l2.122 2.121a1 1 0 0 1 0 1.415l-.727.727" stroke="currentColor"/><rect x="12.533" y="3.379" width="3.761" height="3" rx="1" transform="rotate(-45 12.533 3.379)" stroke="currentColor"/><path d="M13.5 17H4" stroke="currentColor" stroke-linecap="round"/></svg><svg fill="none" viewBox="0 0 24 24" id="ic_aside_menu12" xmlns="http://www.w3.org/2000/svg"><ellipse cx="12" cy="5.5" rx="4" ry="4.5" stroke="currentColor"/><path d="M21 18s.5-4.5-2-5c-.963-.193-2.924-.752-4.084-1.09a1.006 1.006 0 0 0-1.232.632L13 14.5M3 18s.148-4.383 2-5c.754-.252 2.52-.756 4.09-1.195a.998.998 0 0 1 1.214.641L11 14.5m0 0h2m-2 0h2M10 21l2 2 2-2-1-6.5h-2L10 21z" stroke="currentColor"/></svg><svg fill="none" viewBox="0 0 25 24" id="ic_aside_menu13" xmlns="http://www.w3.org/2000/svg"><path d="M10 5h10.5A3.5 3.5 0 0 1 24 8.5v0a3.5 3.5 0 0 1-3.5 3.5h-16A3.5 3.5 0 0 0 1 15.5v0A3.5 3.5 0 0 0 4.5 19h7" stroke="currentColor"/><path d="M9 21.5l2.5-2.5L9 16.5" stroke="currentColor" stroke-linecap="round" stroke-linejoin="round"/><circle cx="17" cy="19" r="3" stroke="currentColor"/><circle cx="7" cy="5" r="3" stroke="currentColor"/></svg><svg fill="none" viewBox="0 0 24 24" id="ic_aside_menu14" xmlns="http://www.w3.org/2000/svg"><path d="M1.5 8.5h21V21a2.5 2.5 0 0 1-2.5 2.5H4A2.5 2.5 0 0 1 1.5 21V8.5zM1.5 6A2.5 2.5 0 0 1 4 3.5h16A2.5 2.5 0 0 1 22.5 6v2.5h-21V6z" stroke="currentColor"/><path fill-rule="evenodd" clip-rule="evenodd" d="M4.8 10.5a1 1 0 0 0-1 1v1.118a1 1 0 0 0 1 1h1.276a1 1 0 0 0 1-1V11.5a1 1 0 0 0-1-1H4.8zm0 1h1.276v1.118H4.8V11.5zm0 3a1 1 0 0 0-1 1v1.118a1 1 0 0 0 1 1h1.276a1 1 0 0 0 1-1V15.5a1 1 0 0 0-1-1H4.8zm0 1h1.276v1.118H4.8V15.5zm-1 4a1 1 0 0 1 1-1h1.276a1 1 0 0 1 1 1v1.118a1 1 0 0 1-1 1H4.8a1 1 0 0 1-1-1V19.5zm2.276 0H4.8v1.118h1.276V19.5zm3.2-9a1 1 0 0 0-1 1v1.118a1 1 0 0 0 1 1h1.275a1 1 0 0 0 1-1V11.5a1 1 0 0 0-1-1H9.276zm0 1h1.275v1.118H9.276V11.5zm-1 4a1 1 0 0 1 1-1h1.275a1 1 0 0 1 1 1v1.118a1 1 0 0 1-1 1H9.276a1 1 0 0 1-1-1V15.5zm2.275 0H9.276v1.118h1.275V15.5zm-1.275 3a1 1 0 0 0-1 1v1.118a1 1 0 0 0 1 1h1.275a1 1 0 0 0 1-1V19.5a1 1 0 0 0-1-1H9.276zm0 1h1.275v1.118H9.276V19.5zm3.475-8a1 1 0 0 1 1-1h1.276a1 1 0 0 1 1 1v1.118a1 1 0 0 1-1 1h-1.276a1 1 0 0 1-1-1V11.5zm2.276 0h-1.276v1.118h1.276V11.5zm-1.276 3a1 1 0 0 0-1 1v1.118a1 1 0 0 0 1 1h1.276a1 1 0 0 0 1-1V15.5a1 1 0 0 0-1-1h-1.276zm0 1h1.276v1.118h-1.276V15.5zm-1 4a1 1 0 0 1 1-1h1.276a1 1 0 0 1 1 1v1.118a1 1 0 0 1-1 1h-1.276a1 1 0 0 1-1-1V19.5zm2.276 0h-1.276v1.118h1.276V19.5zm3.2-9a1 1 0 0 0-1 1v1.118a1 1 0 0 0 1 1h1.276a1 1 0 0 0 1-1V11.5a1 1 0 0 0-1-1h-1.276zm0 1h1.276v1.118h-1.276V11.5zm-1 4a1 1 0 0 1 1-1h1.276a1 1 0 0 1 1 1v1.118a1 1 0 0 1-1 1h-1.276a1 1 0 0 1-1-1V15.5zm2.276 0h-1.276v1.118h1.276V15.5zm-1.276 3a1 1 0 0 0-1 1v1.118a1 1 0 0 0 1 1h1.276a1 1 0 0 0 1-1V19.5a1 1 0 0 0-1-1h-1.276zm0 1h1.276v1.118h-1.276V19.5z" fill="currentColor"/><path d="M7.068 1v4M16.932 1v4" stroke="currentColor" stroke-linecap="round" stroke-linejoin="round"/></svg><svg fill="none" viewBox="0 0 24 24" id="ic_aside_menu15" xmlns="http://www.w3.org/2000/svg"><path d="M13 9H5.5A3.5 3.5 0 1 1 9 5.5V7M11 15h7.5a3.5 3.5 0 1 1-3.5 3.5V17M15 13V5.5A3.5 3.5 0 1 1 18.5 9H17M9 11v7.5A3.5 3.5 0 1 1 5.5 15H7" stroke="currentColor" stroke-linecap="round"/></svg><svg fill="none" viewBox="0 0 24 24" id="ic_aside_menu16" xmlns="http://www.w3.org/2000/svg"><ellipse cx="12" cy="12" rx="4.989" ry="11" stroke="currentColor"/><ellipse rx="4.997" ry="10.982" transform="rotate(60.054 -4.381 16.38) skewX(.109)" stroke="currentColor"/><ellipse rx="4.997" ry="10.982" transform="rotate(119.946 2.532 9.468) skewX(-.109)" stroke="currentColor"/><ellipse rx=".999" ry=".998" transform="rotate(119.946 6.57 13.556) skewX(-.109)" fill="#fff" stroke="currentColor"/><ellipse cx="11.849" cy="11.58" rx="1.497" ry="1.5" stroke="currentColor"/><ellipse cx="9.73" cy="2.445" rx=".998" ry="1" fill="#fff" stroke="currentColor"/><ellipse rx="1" ry=".998" transform="rotate(-104.969 6.944 6.408) skewX(.063)" fill="#fff" stroke="currentColor"/></svg><svg fill="none" viewBox="0 0 24 24" id="ic_aside_menu17" xmlns="http://www.w3.org/2000/svg"><path d="M22.285 9.485c.88 4.529-3.04 9.1-8.754 10.21-2.264.44-4.442.194-6.368-.377-1.509-.448 2.219-3.616.442-4.768-1.271-.825-3.914 2.905-4.949 1.5-.544-.749-.883-1.62-1.062-2.543-.88-4.53 3.04-9.1 8.754-10.21 5.714-1.111 11.056 1.659 11.937 6.188z" stroke="currentColor" stroke-miterlimit="10"/><path d="M8 8a1 1 0 1 0 0-2 1 1 0 0 0 0 2zM5 12a1 1 0 1 0 0-2 1 1 0 0 0 0 2zM18 14a1 1 0 1 0 0-2 1 1 0 0 0 0 2zM18 9a1 1 0 1 0 0-2 1 1 0 0 0 0 2zM14 17a1 1 0 1 0 0-2 1 1 0 0 0 0 2zM13 7a1 1 0 1 0 0-2 1 1 0 0 0 0 2z" stroke="currentColor" stroke-miterlimit="10"/></svg><svg fill="none" viewBox="0 0 24 24" id="ic_aside_menu18" xmlns="http://www.w3.org/2000/svg"><path d="M22.724 8.87l-10.243 4.028c-.311.136-.65.136-.99 0L1.276 8.871a.42.42 0 0 1 0-.79l10.243-4c.311-.108.65-.108.962 0l10.243 3.973a.44.44 0 0 1 0 .817z" stroke="currentColor" stroke-miterlimit="10"/><path d="M20 10v5.493c0 .585-.336 1.14-.855 1.461C17.863 17.715 15.237 19 12 19c-3.237 0-5.863-1.286-7.145-2.046-.52-.32-.855-.876-.855-1.46V10" stroke="currentColor" stroke-miterlimit="10"/><path d="M1 8.5V15" stroke="currentColor" stroke-miterlimit="10" stroke-linecap="round"/></svg><svg fill="none" viewBox="0 0 24 24" id="ic_aside_menu19" xmlns="http://www.w3.org/2000/svg"><path d="M3 5h4M13 8h3M13 10.998h3M13 13.996h3M13 16.994h3M13 19.992h3M18 8h3M18 10.998h3M18 13.996h3M18 16.994h3M18 19.992h3M3 7.998h4M3 10.996h4M3 13.994h4M3 16.992h4M3 19.99h4" stroke="currentColor" stroke-linecap="round"/><path d="M1 2l8 1.391V23H1V2zM11 5.782L23 2v21H11V5.782z" stroke="currentColor"/></svg><svg fill="none" viewBox="0 0 24 24" id="ic_aside_menu2" xmlns="http://www.w3.org/2000/svg"><path d="M2 21h20M2 14h20M12 7h10" stroke="currentColor" stroke-linecap="round"/><path d="M2 6l4.5 3.5L12 2" stroke="currentColor" stroke-linecap="round" stroke-linejoin="round"/></svg><svg fill="none" viewBox="0 0 24 25" id="ic_aside_menu20" xmlns="http://www.w3.org/2000/svg"><path d="M4 13.669c1.123 0 2.002-.908 2.57-2.059.583-1.182.93-2.78.93-4.52 0-1.737-.347-3.336-.93-4.518C6.002 1.42 5.123.512 4 .512c-1.123 0-2.002.909-2.57 2.06C.847 3.754.5 5.352.5 7.09c0 1.738.347 3.337.93 4.519.568 1.15 1.447 2.059 2.57 2.059zM12 13.669c1.123 0 2.002-.908 2.57-2.059.583-1.182.93-2.78.93-4.52 0-1.737-.347-3.336-.93-4.518C14.002 1.42 13.123.512 12 .512c-1.123 0-2.002.909-2.57 2.06-.583 1.182-.93 2.78-.93 4.519 0 1.738.347 3.337.93 4.519.568 1.15 1.447 2.059 2.57 2.059zM20 13.669c1.123 0 2.002-.908 2.57-2.059.583-1.182.93-2.78.93-4.52 0-1.737-.347-3.336-.93-4.518C22.002 1.42 21.123.512 20 .512c-1.123 0-2.002.909-2.57 2.06-.583 1.182-.93 2.78-.93 4.519 0 1.738.347 3.337.93 4.519.568 1.15 1.447 2.059 2.57 2.059z" stroke="currentColor"/><path d="M4 4.052v12.156M12 4.052v12.156M20 4.052v12.156M4 8.104l2-2.026M12 8.104l2-2.026M20 8.104l2-2.026M4 10.13L2 8.104M12 10.13l-2-2.026M20 10.13l-2-2.026" stroke="currentColor" stroke-linecap="round"/><path d="M1 18.234c1 0 1 .608 2 .608s1-.608 2-.608 1 .608 2 .608 1-.608 2-.608 1 .608 2 .608 1-.608 2-.608 1 .608 2 .608 1-.608 2-.608 1 .608 2 .608 1-.608 2-.608 1 .608 2 .608M1 20.868c1 0 1 .608 2 .608s1-.608 2-.608 1 .608 2 .608 1-.608 2-.608 1 .608 2 .608 1-.608 2-.608 1 .608 2 .608 1-.608 2-.608 1 .608 2 .608 1-.608 2-.608 1 .608 2 .608M1 23.501c1 0 1 .608 2 .608s1-.608 2-.608 1 .608 2 .608 1-.608 2-.608 1 .608 2 .608 1-.608 2-.608 1 .608 2 .608 1-.608 2-.608 1 .608 2 .608 1-.608 2-.608 1 .608 2 .608" stroke="currentColor" stroke-miterlimit="10" stroke-linecap="round"/></svg><svg fill="none" viewBox="0 0 24 24" id="ic_aside_menu21" xmlns="http://www.w3.org/2000/svg"><path d="M8.813 23.16L5.114 8.802l1.253-.816 4.714 14.412-2.27.762zM21.273 15.76l-4.57-3.817-6.982-6.142 1.253-.816 11.91 9.012-1.611 1.764zM12.477 20.656l-1.696.254c-.024.016-.06.012-.06.012L6.37 7.984l1.253-.815 5.917 12.328-1.064 1.16zM17.498 16.92L8.466 6.62l1.253-.817 7.154 6.505 3.042 2.627c-.024.016-.035.05-.035.05l-.888 1.428-1.494.507z" stroke="currentColor" stroke-miterlimit="10"/><path d="M17.716 17.04l-1.434 2.328-2.742.39L7.627 7.166l.836-.543 9.253 10.416z" stroke="currentColor" stroke-miterlimit="10"/><path d="M4.76 1.907c1.611-1.05 3.742-.67 4.74.844l1.475 2.239L5.12 8.804l-1.475-2.24C2.647 5.05 3.148 2.956 4.76 1.907zM4.024 7.14L9.88 3.328" stroke="currentColor" stroke-miterlimit="10"/></svg><svg fill="none" viewBox="0 0 24 25" id="ic_aside_menu22" xmlns="http://www.w3.org/2000/svg"><path d="M16.3 1.016c-.693 0-1.423.338-2 1.05-.577.711-1 1.761-1 2.947 0 1.186.423 2.236 1 2.947.577.712 1.307 1.05 2 1.05.692 0 1.423-.338 2-1.05.577-.711 1-1.761 1-2.947 0-1.186-.423-2.236-1-2.947-.577-.712-1.27-1.05-2-1.05z" stroke="currentColor" stroke-miterlimit="10"/><path d="M8.3 1.016v9.993M16.3 9.01v1.998M11.3 1.016v4.551c0 1.344-1.35 2.444-3 2.444s-3-1.1-3-2.444V1.016" stroke="currentColor" stroke-miterlimit="10" stroke-linecap="round"/><rect x="6.3" y="11.009" width="4" height="12.992" rx="2" stroke="currentColor"/><rect x="14.3" y="11.009" width="4" height="12.992" rx="2" stroke="currentColor"/></svg><svg fill="none" viewBox="0 0 24 26" id="ic_aside_menu23" xmlns="http://www.w3.org/2000/svg"><path d="M3.06 7.876A2 2 0 0 1 5.056 6h13.887a2 2 0 0 1 1.997 1.876l.928 15A2 2 0 0 1 19.873 25H4.128a2 2 0 0 1-1.997-2.124l.93-15z" stroke="currentColor"/><path d="M8 12V5a4 4 0 0 1 4-4v0a4 4 0 0 1 4 4v7" stroke="currentColor" stroke-linecap="round"/></svg><svg fill="none" viewBox="0 0 24 24" id="ic_aside_menu24" xmlns="http://www.w3.org/2000/svg"><path d="M4.562 9.153h3.627c1.733 0 2.58 1.563 3.708 1.563h4.756c.766 0 1.37.558 1.37 1.265 0 .707-.604 1.265-1.37 1.265h-4.957m-7.336.633l3.507 1.637c.685.335 1.41.484 2.176.484h4.796c.847 0 1.693-.223 2.459-.633l5.078-2.716c.605-.335.806-1.042.443-1.563-.04-.037-.04-.074-.04-.111-.443-.558-1.25-.744-1.934-.41l-2.66 1.414M.5 8h3.74v6.698H.5V8z" stroke="currentColor" stroke-miterlimit="10" stroke-linecap="round" stroke-linejoin="round"/></svg><svg fill="none" viewBox="0 0 24 24" id="ic_aside_menu25" xmlns="http://www.w3.org/2000/svg"><path d="M18.5 9H22a1 1 0 0 0 1-1V2a1 1 0 0 0-1-1H2a1 1 0 0 0-1 1v6a1 1 0 0 0 1 1h3" stroke="currentColor"/><path d="M18 7h2a1 1 0 0 0 1-1V4a1 1 0 0 0-1-1H4a1 1 0 0 0-1 1v2a1 1 0 0 0 1 1h1" stroke="currentColor"/><rect x="5" y="5" width="11" height="16" rx="1" stroke="currentColor"/><path d="M6 23h12.5V4.5" stroke="currentColor" stroke-linecap="round"/><path d="M7.4 13.28c-.24 0-.4.16-.4.4 0 .24.16.4.4.4h.88v1.28H7.4c-.24 0-.4.16-.4.4 0 .24.16.4.4.4h.88v2.16c0 .24.16.4.4.4.24 0 .4-.16.4-.4v-2.16h3.68c.24 0 .4-.16.4-.4 0-.24-.16-.4-.4-.4H9.08v-1.28h1.6c2.32 0 3.6-1.28 3.6-3.04S13 8 10.68 8h-2c-.24 0-.4.16-.4.4v4.88H7.4zm1.68 0V8.8h1.6c1.92 0 2.8.88 2.8 2.24 0 1.36-.88 2.24-2.8 2.24h-1.6z" fill="currentColor"/></svg><svg fill="none" viewBox="0 0 26 26" id="ic_aside_menu26" xmlns="http://www.w3.org/2000/svg"><path d="M9 1V.5h-.5V1H9zm8 0h.5V.5H17V1zM9 9v.5h.5V9H9zM1 9v-.5H.5V9H1zm0 8H.5v.5H1V17zm8 0h.5v-.5H9v.5zm0 8h-.5v.5H9V25zm8 0v.5h.5V25H17zm0-8v-.5h-.5v.5h.5zm8 0v.5h.5V17H25zm0-8h.5v-.5H25V9zm-8 0h-.5v.5h.5V9zM9 1.5h8v-1H9v1zM9.5 9V1h-1v8h1zM1 9.5h8v-1H1v1zm.5 7.5V9h-1v8h1zm7.5-.5H1v1h8v-1zm.5 8.5v-8h-1v8h1zm7.5-.5H9v1h8v-1zm-.5-7.5v8h1v-8h-1zm8.5-.5h-8v1h8v-1zM24.5 9v8h1V9h-1zm-7.5.5h8v-1h-8v1zM16.5 1v8h1V1h-1z" fill="currentColor"/></svg><svg fill="none" viewBox="0 0 24 24" id="ic_aside_menu27" xmlns="http://www.w3.org/2000/svg"><path d="M8 17h8M20 16.664l-2.886-10.31a3 3 0 0 0-2.888-2.19L12 4.162" stroke="currentColor" stroke-linecap="round"/><circle cx="3.8" cy="16.5" r="2.5" stroke="currentColor"/><circle cx="20" cy="16.5" r="2.5" stroke="currentColor"/></svg><svg fill="none" viewBox="0 0 24 24" id="ic_aside_menu28" xmlns="http://www.w3.org/2000/svg"><g clip-path="url(#avclip0)" stroke="currentColor" stroke-miterlimit="10"><path d="M7.546 10.178a6.645 6.645 0 0 0-4.28 6.206c0 3.66 2.977 6.63 6.645 6.63a6.667 6.667 0 0 0 6.38-4.694" stroke-linecap="round"/><path d="M22.246 18.373l-2.631.901-3.164-6.47H9.78L8.688 6.011M9.247 9.488h5.875" stroke-linecap="round"/><path d="M8.13 4.476c.97 0 1.755-.783 1.755-1.75S9.099.976 8.13.976c-.969 0-1.754.783-1.754 1.75s.785 1.75 1.754 1.75z"/></g><defs><clipPath id="avclip0"><path fill="#fff" transform="translate(2.3 .016)" d="M0 0h21v23.984H0z"/></clipPath></defs></svg><svg fill="none" viewBox="0 0 24 24" id="ic_aside_menu29" xmlns="http://www.w3.org/2000/svg"><g clip-path="url(#awclip0)" stroke="currentColor" stroke-miterlimit="10"><path d="M7.327 15.966H4.673c-.93 0-1.673-.708-1.673-1.593V8.56c0-.885.743-1.593 1.673-1.593h2.654c.93 0 1.673.708 1.673 1.593v5.814c0 .885-.743 1.593-1.673 1.593z"/><path d="M5 16v6.95M7 16v6.95M12 1.009v21.845M5.987 4.98a1.987 1.987 0 1 0 .001-3.973 1.987 1.987 0 0 0 0 3.974z" stroke-linecap="round"/><path d="M20.036 15.99h-4.053c-1.382 0-2.223-1.239-1.922-2.552l1.29-5.508c.121-.53.812-.935 1.562-.935h2.163c.75 0 1.44.404 1.561.935l1.291 5.508c.33 1.313-.51 2.551-1.892 2.551z"/><path d="M17 15.99v6.95M19 15.99v6.95M17.968 4.98a1.987 1.987 0 1 0 0-3.973 1.987 1.987 0 0 0 0 3.974z" stroke-linecap="round"/></g><defs><clipPath id="awclip0"><path fill="#fff" transform="translate(1.3 .016)" d="M0 0h22v23.984H0z"/></clipPath></defs></svg><svg fill="none" viewBox="0 0 24 24" id="ic_aside_menu3" xmlns="http://www.w3.org/2000/svg"><path d="M15.629 20H8.421C7.63 20 7 19.2 7 18.2c0-.966-.112-2.16.525-2.967C8.456 13.74 10.292 13 12 13c1.709 0 3.54.736 4.472 2.233.652.827.526 1.98.526 2.967.053.967-.579 1.8-1.368 1.8z" stroke="currentColor"/><path d="M14.308 13.2c.047-.086.094-.2.165-.286.855-1.306 2.518-1.914 4.025-1.914 1.51 0 3.168.604 4.025 1.914.581.701.474 1.693.474 2.543.047.829-.52 1.543-1.231 1.543H17M9.69 13.2c-.048-.086-.095-.2-.166-.286C8.666 11.604 7.009 11 5.498 11c-1.507 0-3.17.607-4.025 1.914-.345.417-.473 1.04-.473 1.572C1 15.426.944 17 2.278 17H7M12 6.5c1.36 0 2.5 1.113 2.5 2.5 0 1.36-1.113 2.5-2.5 2.5-1.36 0-2.5-1.113-2.5-2.5 0-1.39 1.11-2.5 2.5-2.5zM18.5 5.5c1.089 0 2 .89 2 2 0 1.089-.89 2-2 2-1.089 0-2-.89-2-2 0-1.113.887-2 2-2zM5.5 5.5c1.089 0 2 .89 2 2 0 1.089-.89 2-2 2-1.089 0-2-.89-2-2 0-1.113.887-2 2-2z" stroke="currentColor"/></svg><svg fill="none" viewBox="0 0 24 24" id="ic_aside_menu4" xmlns="http://www.w3.org/2000/svg"><path clip-rule="evenodd" d="M21 8.482C21 4.35 16.97 1 12 1S3 4.35 3 8.482c0 4.772 2.746 8.21 8.239 14.63a1.005 1.005 0 0 0 1.523 0C18.254 16.715 21 13.52 21 8.482z" stroke="currentColor"/><circle cx="12" cy="9" r="4.5" stroke="currentColor"/></svg><svg fill="none" viewBox="0 0 24 24" id="ic_aside_menu5" xmlns="http://www.w3.org/2000/svg"><path d="M13 7h4M13 11h4M13 15h4" stroke="currentColor" stroke-linecap="round" stroke-linejoin="round"/><path d="M5 17V5a3 3 0 0 1 3-3h13" stroke="currentColor"/><path d="M15 19.222V20a2 2 0 0 0 2 2v0a2 2 0 0 0 2-2V7m0 0V4a2 2 0 0 1 2-2v0a2 2 0 0 1 2 2v2.107c0 .493-.4.893-.893.893H19z" stroke="currentColor"/><path d="M8 6l1.5 1.5L12 5M8 10l1.5 1.5L12 9M8 14l1.5 1.5L12 13" stroke="currentColor" stroke-linecap="round" stroke-linejoin="round"/><path d="M17 22H4a3 3 0 0 1-3-3v-1a1 1 0 0 1 1-1h12a1 1 0 0 1 1 1v2" stroke="currentColor"/></svg><svg fill="none" viewBox="0 0 24 24" id="ic_aside_menu6" xmlns="http://www.w3.org/2000/svg"><path clip-rule="evenodd" d="M5.547 1.045c.266-.022.495.043.643.287.918 1.492 1.767 3.024 2.652 4.536.188.357.179.715-.101 1-.738.756-1.567 1.413-2.327 2.145-.27.26-.339.585-.157.928 1.79 3.356 4.214 5.817 7.48 7.67.702.397.975.33 1.52-.278.623-.694 1.185-1.482 1.906-2.077.286-.243.6-.27.93-.104 1.557.761 3.02 1.733 4.506 2.625.262.155.367.381.35.693-.18 3.188-2.405 4.571-5.486 4.571-3.493 0-7.46-2.585-10.223-5.208-2.948-2.81-5.553-6.49-6.177-10.612-.255-1.656-.18-3.574 1.321-4.808 1.11-.912 1.96-1.21 3.163-1.368z" stroke="currentColor"/></svg><svg fill="none" viewBox="0 0 24 24" id="ic_aside_menu7" xmlns="http://www.w3.org/2000/svg"><path d="M14.63 3.748c2.094-.523 4.098-.999 6.088-.6.795.16 1.282.918 1.282 1.73v5.694c0 .68-.667 1.162-1.338 1.058-2.142-.334-4.24.145-6.292.672-2.544.565-4.957 1.13-7.37.212V4.102c2.609.848 5.152.283 7.63-.354z" stroke="currentColor"/><path d="M7 20.5V3" stroke="currentColor" stroke-linecap="round" stroke-linejoin="round"/><path d="M9 17c3.866 0 7 1.12 7 2.5S12.866 22 9 22s-7-1.12-7-2.5c0-.925 1.408-1.733 3.5-2.166" stroke="currentColor" stroke-linecap="round"/></svg><svg fill="none" viewBox="0 0 24 24" id="ic_aside_menu8" xmlns="http://www.w3.org/2000/svg"><rect x="1" y="3" width="22" height="18" rx="3" stroke="currentColor"/><path d="M1 15.5L6.5 10l7 6 5.5-4.5 4 3.5" stroke="currentColor" stroke-linecap="round" stroke-linejoin="round"/><circle cx="14" cy="9" r="2" stroke="currentColor"/></svg><svg fill="none" viewBox="0 0 24 24" id="ic_aside_menu9" xmlns="http://www.w3.org/2000/svg"><path d="M12 14.423c.755 0 1.227.577 1.51 1.808l.347 1.192c.189.962.786 1.577 1.447 1.577h4.185C20.34 19 21 18 21 16.808v-4.885c0-.5-.315-.923-.66-.923H3.66c-.345 0-.66.423-.66.923v4.846c0 1.231.692 2.193 1.51 2.193h4.186c.66 0 1.259-.616 1.447-1.539l.378-1.23c.252-1.193.724-1.77 1.479-1.77zM1 13h2v3H1zM21 13h2v3h-2zM20 11a8 8 0 1 0-16 0" stroke="currentColor"/></svg><svg fill="none" viewBox="0 0 22 20" id="ic_close" xmlns="http://www.w3.org/2000/svg"><path d="M1.954 17.953c-.534-.533-.507-1.35.06-1.855l15.873-14.11c.606-.538 1.59-.512 2.16.058.533.533.506 1.35-.061 1.855L4.112 18.01c-.606.538-1.588.512-2.158-.058z" fill="currentColor"/><path d="M1.954 2.046c.57-.57 1.553-.596 2.159-.057l15.873 14.11c.567.504.594 1.321.06 1.855-.57.57-1.553.595-2.159.057L2.014 3.9c-.567-.504-.594-1.321-.06-1.855z" fill="currentColor"/></svg><svg fill="none" viewBox="0 0 25 30" id="ic_double_arrow" xmlns="http://www.w3.org/2000/svg"><path d="M1 1l11.879 11.879a3 3 0 0 1 0 4.242L1 29" stroke="currentColor" stroke-width="2" stroke-linecap="round"/><path d="M12 1l11.105 11.959a3 3 0 0 1 0 4.082L12 29" stroke="currentColor" stroke-width="2" stroke-linecap="round"/></svg><svg fill="none" viewBox="0 0 16 12" id="ic_email" xmlns="http://www.w3.org/2000/svg"><rect x=".5" y=".5" width="15" height="11" rx="1.5" stroke="currentColor"/><path d="M.5 2.182L8 6l7.5-3.818" stroke="currentColor"/></svg><svg fill="none" viewBox="0 0 30 30" id="ic_facebook" xmlns="http://www.w3.org/2000/svg"><path fill-rule="evenodd" clip-rule="evenodd" d="M15 0C6.716 0 0 6.716 0 15c0 8.284 6.716 15 15 15 8.284 0 15-6.716 15-15 0-8.284-6.716-15-15-15zm1.564 15.659v8.16h-3.377v-8.16H11.5v-2.812h1.687v-1.688c0-2.295.953-3.659 3.659-3.659h2.253v2.813H17.69c-1.053 0-1.123.393-1.123 1.126l-.003 1.408h2.55l-.298 2.812h-2.252z" fill="currentColor"/></svg><svg fill="none" viewBox="0 0 64 64" id="ic_facts1" xmlns="http://www.w3.org/2000/svg"><circle cx="32" cy="32" r="31.5" stroke="currentColor"/><path d="M54 49V27L32 7 10 27v22" stroke="currentColor"/><path d="M19 49V20h22v29M10 27h9m17.5-16H48v10M19 27h21M19 41h21M10 49h44" stroke="currentColor" stroke-linecap="round"/></svg><svg fill="none" viewBox="0 0 64 64" id="ic_facts10" xmlns="http://www.w3.org/2000/svg"><circle cx="32" cy="32" r="31.5" stroke="currentColor"/><path d="M1 29l5-3 4 2 7-4 6 3 9-6 9 6 6-3 7 4 4-2 5 3M58 26l-8.5-.5M6 26l8-.5M1.5 39.5H62M1 38h62M1 32h62" stroke="currentColor" stroke-linecap="round"/><path d="M39 29H25l3-2h8l3 2zM22 29H12l3.143-2h3.714L22 29zM52 29H42l3.143-2h3.714L52 29z" stroke="currentColor" stroke-linecap="round" stroke-linejoin="round"/><path d="M56 29h4M4 29h4M30 25h4M19 32v6M15 32v6M23 32v6M27 32v6M31 32v6M35 32v6M39 32v6M43 32v6M47 32v6M51 32v6M55 32v6M60 32v6M4 32v6M58 32v6M2 32v6M62 32v6M6 32v6M9 32v6M12 32v6" stroke="currentColor" stroke-linecap="round"/></svg><svg fill="none" viewBox="0 0 64 64" id="ic_facts11" xmlns="http://www.w3.org/2000/svg"><circle cx="32" cy="32" r="31.5" stroke="currentColor"/><path d="M13 26h9c3.9 0 5.46 3 8 3h11c1.723 0 3 1.32 3 3s-1.277 3-3 3H29m-16 2l8 4c1.542.795 3.277 1 5 1h11c1.904 0 4.277-1.028 6-2l11-6c3.096-1.81.5-7.5-4-5l-5.835 3.456M2 23h11v16H1.612" stroke="currentColor" stroke-miterlimit="10" stroke-linecap="round" stroke-linejoin="round"/></svg><svg fill="none" viewBox="0 0 64 64" id="ic_facts2" xmlns="http://www.w3.org/2000/svg"><circle cx="32" cy="32" r="31.5" stroke="currentColor"/><g clip-path="url(#blclip0)" fill="currentColor"><path d="M17.481 37.148c-.258 0-.46.21-.46.457v12.937c0 .257.211.457.46.457.259 0 .46-.21.46-.457V37.605a.459.459 0 0 0-.46-.457zM31.505 37.148c-.259 0-.46.21-.46.457v12.937c0 .257.21.457.46.457.258 0 .46-.21.46-.457V37.605a.453.453 0 0 0-.46-.457z"/><path d="M48.488 22.736l-.584-.086c2.002-1.304 2.567-3.98 1.255-5.969a4.358 4.358 0 0 0-6.006-1.247c-2.002 1.304-2.567 3.98-1.255 5.969.326.495.757.923 1.255 1.247l-.584.086a5.29 5.29 0 0 0-4.052 3.055 5.29 5.29 0 0 0-4.052-3.055l-.585-.086c2.002-1.304 2.568-3.98 1.255-5.969a4.358 4.358 0 0 0-6.006-1.247c-2.002 1.304-2.567 3.98-1.255 5.969.326.495.757.923 1.255 1.247l-.584.086a5.29 5.29 0 0 0-4.052 3.055 5.305 5.305 0 0 0-4.052-3.055l-.584-.086c2.002-1.304 2.567-3.98 1.255-5.969a4.358 4.358 0 0 0-6.006-1.247c-2.002 1.304-2.567 3.98-1.255 5.969.325.495.756.923 1.255 1.247l-.585.086c-2.605.39-4.53 2.617-4.521 5.235v7.816c0 1.256.738 2.408 1.887 2.941l1.13.533v11.281c0 .257.211.457.46.457.259 0 .46-.21.46-.457V29.618a.458.458 0 0 0-.46-.457c-.258 0-.46.21-.46.457v8.625l-.737-.343a2.341 2.341 0 0 1-1.35-2.113V27.97c-.01-2.16 1.58-3.998 3.725-4.322l1.035-.161a12.234 12.234 0 0 1 1.772-.134h.02c.593 0 1.187.048 1.771.134l1.035.161a4.348 4.348 0 0 1 3.726 4.322v7.816c0 .904-.527 1.723-1.35 2.113l-.738.343v-8.625a.459.459 0 0 0-.46-.457c-.259 0-.46.21-.46.457v20.924c0 .257.211.457.46.457.259 0 .46-.21.46-.457v-11.28l1.13-.524a3.24 3.24 0 0 0 1.418-1.285 3.24 3.24 0 0 0 1.418 1.285l1.13.523v11.281c0 .257.21.457.46.457.258 0 .46-.21.46-.457V29.618a.458.458 0 0 0-.46-.457c-.259 0-.46.21-.46.457v8.625l-.738-.343a2.341 2.341 0 0 1-1.35-2.113v-7.825c-.01-2.161 1.58-3.998 3.726-4.322l1.034-.162a12.262 12.262 0 0 1 1.782-.133h.02c.593 0 1.187.047 1.771.133l1.035.162a4.348 4.348 0 0 1 3.726 4.322v7.815c0 .905-.527 1.723-1.35 2.114l-.738.342V29.61a.458.458 0 0 0-.46-.457c-.258 0-.46.21-.46.457v20.923c0 .258.211.457.46.457.259 0 .46-.209.46-.456V39.26l1.13-.523a3.24 3.24 0 0 0 1.418-1.285 3.24 3.24 0 0 0 1.418 1.285l1.13.523v11.281c0 .257.21.457.46.457.258 0 .46-.21.46-.457V29.618a.459.459 0 0 0-.46-.457c-.259 0-.46.21-.46.457v8.625l-.738-.343a2.341 2.341 0 0 1-1.35-2.113v-7.825c-.01-2.161 1.58-3.998 3.726-4.322l1.034-.162a11.024 11.024 0 0 1 1.773-.133h.019c.594 0 1.188.047 1.772.133l1.034.162a4.348 4.348 0 0 1 3.727 4.322v7.815c0 .905-.527 1.723-1.351 2.114l-.738.342V29.61a.458.458 0 0 0-.46-.457c-.258 0-.46.21-.46.457v20.923c0 .258.212.457.46.457.26 0 .46-.209.46-.456V39.26l1.13-.523a3.254 3.254 0 0 0 1.878-2.942v-7.815c.067-2.628-1.858-4.855-4.464-5.245zm-34.426-3.694a3.395 3.395 0 0 1 3.41-3.389 3.395 3.395 0 0 1 3.41 3.389 3.395 3.395 0 0 1-3.41 3.389c-1.878 0-3.41-1.523-3.41-3.389zm14.033 0a3.395 3.395 0 0 1 3.41-3.389 3.395 3.395 0 0 1 3.41 3.389 3.395 3.395 0 0 1-3.41 3.389 3.395 3.395 0 0 1-3.41-3.389zm14.023 0a3.395 3.395 0 0 1 3.41-3.389 3.395 3.395 0 0 1 3.41 3.389 3.395 3.395 0 0 1-3.41 3.389h-.01a3.399 3.399 0 0 1-3.4-3.389z"/><path d="M45.528 37.148c-.258 0-.46.21-.46.457v12.937c0 .257.211.457.46.457.259 0 .46-.21.46-.457V37.605a.447.447 0 0 0-.46-.457zM24.493 16.302c2.03 0 3.678-1.638 3.678-3.656 0-2.018-1.657-3.646-3.678-3.646-2.031 0-3.678 1.637-3.678 3.655 0 2.01 1.647 3.647 3.678 3.647zm0-6.379c1.513 0 2.749 1.228 2.749 2.732 0 1.505-1.236 2.733-2.75 2.733-1.513 0-2.748-1.228-2.748-2.732a2.735 2.735 0 0 1 2.749-2.733zM38.516 16.302c2.031 0 3.678-1.638 3.678-3.656 0-2.018-1.647-3.646-3.678-3.646-2.03 0-3.678 1.637-3.678 3.655a3.672 3.672 0 0 0 3.678 3.647zm0-6.379a2.74 2.74 0 0 1 2.75 2.732 2.74 2.74 0 0 1-2.75 2.733 2.74 2.74 0 0 1-2.749-2.732c0-1.505 1.236-2.733 2.75-2.733z"/></g><defs><clipPath id="blclip0"><path fill="#fff" transform="translate(10 9)" d="M0 0h43v42H0z"/></clipPath></defs></svg><svg fill="none" viewBox="0 0 64 64" id="ic_facts3" xmlns="http://www.w3.org/2000/svg"><circle cx="32" cy="32" r="31.5" stroke="currentColor"/><path d="M11 36v7M16 34v9M21 32v11M26 30v13M31 28v15M36 26v17M41 23v20M46 21v22M9 46h44M9 32c3.333-.833 11.454-2.699 19-6 10.5-4.594 16.5-9.5 18-12.5" stroke="currentColor" stroke-linecap="round"/><path d="M51 42l3 4-3 4" stroke="currentColor" stroke-linecap="round" stroke-linejoin="round"/></svg><svg fill="none" viewBox="0 0 64 64" id="ic_facts4" xmlns="http://www.w3.org/2000/svg"><circle cx="32" cy="32" r="31.5" stroke="currentColor"/><path d="M21 30.5h7l4-6.5" stroke="currentColor" stroke-linecap="round" stroke-linejoin="round"/><path d="M42 36.257h-.5a.5.5 0 0 0 .818.386L42 36.257zm8.5 4.243a.5.5 0 0 0 1 0h-1zm-8-22a4 4 0 0 1 4-4v-1a5 5 0 0 0-5 5h1zm0 17.757V18.5h-1v17.757h1zm-.182.386A4.977 4.977 0 0 1 45.5 35.5v-1c-1.45 0-2.781.515-3.818 1.372l.636.77zM45.5 35.5a5 5 0 0 1 5 5h1a6 6 0 0 0-6-6v1zm5-17v22h1v-22h-1zm-4-4a4 4 0 0 1 4 4h1a5 5 0 0 0-5-5v1zM21 36.257h.5a.5.5 0 0 1-.818.386l.318-.386zM12.5 40.5a.5.5 0 0 1-1 0h1zm8-22a4 4 0 0 0-4-4v-1a5 5 0 0 1 5 5h-1zm0 17.757V18.5h1v17.757h-1zm.182.386A4.977 4.977 0 0 0 17.5 35.5v-1c1.45 0 2.781.515 3.818 1.372l-.636.77zM17.5 35.5a5 5 0 0 0-5 5h-1a6 6 0 0 1 6-6v1zm-5-17v22h-1v-22h1zm4-4a4 4 0 0 0-4 4h-1a5 5 0 0 1 5-5v1z" fill="currentColor"/><path d="M12 40.5v0a5.5 5.5 0 0 0 5.5 5.5h28a5.5 5.5 0 0 0 5.5-5.5v0" stroke="currentColor"/><path d="M21 24h21M36 24l-3 4.5 9 1.5m-21 3h6l-8.5 13m3.5 0l3-5h10.5v5m3 0V33l3.5.5M31 32l-4 6h8v-5.5l-4-.5z" stroke="currentColor" stroke-linecap="round" stroke-linejoin="round"/></svg><svg fill="none" viewBox="0 0 64 64" id="ic_facts5" xmlns="http://www.w3.org/2000/svg"><circle cx="32" cy="32" r="31.5" stroke="currentColor"/><rect x="24" y="11" width="16" height="42" rx="2" stroke="currentColor"/><circle cx="32" cy="19" r="4.5" stroke="currentColor"/><circle cx="32" cy="32" r="4.5" stroke="currentColor"/><circle cx="32" cy="45" r="4.5" stroke="currentColor"/><path d="M40 15h5c-.167 2-1.4 6.4-5 8M40 28h5c-.167 2-1.4 6.4-5 8M40 41h5c-.167 2-1.4 6.4-5 8M24 15h-5c.167 2 1.4 6.4 5 8M24 28h-5c.167 2 1.4 6.4 5 8M24 41h-5c.167 2 1.4 6.4 5 8" stroke="currentColor" stroke-linecap="round" stroke-linejoin="round"/></svg><svg fill="none" viewBox="0 0 64 64" id="ic_facts6" xmlns="http://www.w3.org/2000/svg"><circle cx="32" cy="32" r="31.5" stroke="currentColor"/><path d="M52.228 24.768s-3.887.324-5.507-.647c-1.619-.972-1.655-2.564-2.59-3.887-1.358-1.919-3.879-3.562-8.097-3.562-3.887 0-5.505.648-8.42 3.238l-6.801 7.126c-.324 1.619 2.734 3.815 5.83 2.267 1.942-.972 5.181-4.535 6.477-5.83.324.864 1.554 3.044 3.885 3.563 2.332.518 4.21-.648 4.858-1.296" stroke="currentColor"/><path d="M36.682 29.95l7.464 8.831a2.58 2.58 0 0 0 3.636.305v0a2.58 2.58 0 0 0 .29-3.652l-7.503-8.723M32.795 33.187l7.607 9.231a2.58 2.58 0 0 0 3.657.33v0a2.58 2.58 0 0 0 .31-3.628l-7.688-9.171M32.794 33.19l6.878 8.375a2.04 2.04 0 0 1-.154 2.756v0a2.04 2.04 0 0 1-2.957-.119l-.851-.973" stroke="currentColor" stroke-linecap="round"/><rect x="26.563" y="48.457" width="10.33" height="4.534" rx="2.267" transform="rotate(-50 26.563 48.457)" stroke="currentColor"/><rect x="21.754" y="44.834" width="11.88" height="6.02" rx="3.01" transform="rotate(-50 21.754 44.834)" stroke="currentColor"/><rect x="16.066" y="42.279" width="13.28" height="6.02" rx="3.01" transform="rotate(-50 16.066 42.28)" stroke="currentColor"/><rect x="12.137" y="38.779" width="9.373" height="5.085" rx="2.543" transform="rotate(-50 12.137 38.78)" stroke="currentColor"/><path d="M10.773 20.881s2.473.363 4.534-.324c1.943-.647.323-2.915 3.562-4.534 3.239-1.62 11.983-.324 14.574.972M10.773 35.777h3.886M4 17.643h3.773a3 3 0 0 1 3 3v15.375a3 3 0 0 1-3 3H1M62 22.824h-6.772a3 3 0 0 0-3 3V41.2a3 3 0 0 0 3 3H61M52.228 42.58s-3.239 0-4.534.324c-1.296.324-2.76 1.994-5.83 2.915-3.238.971-5.505.971-8.096.971" stroke="currentColor"/></svg><svg fill="none" viewBox="0 0 64 64" id="ic_facts7" xmlns="http://www.w3.org/2000/svg"><circle cx="32" cy="32" r="31.5" stroke="currentColor"/><path d="M21 42H5V20.658L21 19v23zM43 42h16V20.658L43 19v23z" stroke="currentColor" stroke-miterlimit="22.926"/><path d="M43 42h-3.79L37 30.126l2-2.626 4-8.5v23zM21 42h3.52L27 31.302 24 27l-3-8v23zM5 24l16.128.043M42.82 24.043l16.18-.04M39.18 30.382L43 24M23.744 30.382L21 24" stroke="currentColor" stroke-miterlimit="22.926" stroke-linejoin="bevel"/><path d="M39.18 30.383H23.744v7.91H39.18v-7.91z" fill="#fff"/><path d="M39 30H24v8h15v-8zM25.334 39.678H38.77M24.871 41.406h14.256" stroke="currentColor" stroke-miterlimit="22.926" stroke-linejoin="bevel"/><path d="M52.141 34.476v-.985l.648 1.22a.5.5 0 0 0 .442.265h1.436a.5.5 0 0 0 .434-.748l-1.462-2.554 1.4-1.56a.5.5 0 0 0-.372-.834h-1.488a.5.5 0 0 0-.378.173l-.66.764v-2.069a.5.5 0 0 0-.5-.5h-1.23a.499.499 0 0 0-.371.164c-.415-.198-.925-.312-1.527-.312-1.109 0-1.86.347-2.328.872a2.356 2.356 0 0 0-.582 1.556c0 .566.156 1.056.481 1.445.26.311.602.528.99.675H46a.5.5 0 0 0-.5.5c0 .452.124 1.106.616 1.651.503.558 1.32.926 2.55.926.244 0 .834-.026 1.429-.26.086.07.196.111.315.111h1.231a.5.5 0 0 0 .5-.5zm-4.41-1.928a.498.498 0 0 0-.145-.351l1.015.244h0l.008.002c.344.077.549.137.669.208.05.03.062.048.062.05h0l.002.005a.157.157 0 0 1 .004.04c0 .07-.016.105-.03.127a.303.303 0 0 1-.115.093c-.142.075-.369.12-.637.12-.456 0-.64-.135-.716-.221a.49.49 0 0 1-.117-.317zm1.42-2.469a.5.5 0 0 0 .059.151l-1.137-.292a.344.344 0 0 1-.281-.09v-.002s-.003-.003-.005-.012a.239.239 0 0 1-.005-.054c0-.057.013-.08.02-.089a.207.207 0 0 1 .078-.062c.11-.058.287-.09.479-.09.454 0 .607.133.664.2.077.09.098.195.127.335l.001.005zM15.166 33.892v-.985l.649 1.22a.5.5 0 0 0 .441.265h1.436a.5.5 0 0 0 .434-.748l-1.462-2.554 1.4-1.56a.5.5 0 0 0-.372-.834h-1.487a.5.5 0 0 0-.378.173l-.66.764v-2.069a.5.5 0 0 0-.5-.5h-1.231a.499.499 0 0 0-.37.164c-.415-.198-.926-.312-1.528-.312-1.109 0-1.86.347-2.328.872a2.356 2.356 0 0 0-.582 1.556c0 .566.157 1.056.481 1.445.26.311.603.529.99.675H9.025a.5.5 0 0 0-.5.5c0 .452.124 1.106.616 1.651.503.558 1.321.926 2.551.926.244 0 .834-.026 1.428-.26.086.07.196.111.316.111h1.23a.5.5 0 0 0 .5-.5zm-4.41-1.928a.498.498 0 0 0-.145-.351l1.015.244h0l.009.002c.343.077.548.137.668.208.05.03.062.048.062.05 0 0 .002.001.003.005a.158.158 0 0 1 .003.04c0 .07-.016.105-.03.127a.303.303 0 0 1-.115.093c-.141.075-.369.12-.637.12-.456 0-.64-.135-.716-.221a.49.49 0 0 1-.117-.317zm1.42-2.469a.5.5 0 0 0 .059.151l-1.136-.292a.344.344 0 0 1-.281-.09l-.001-.002-.005-.012a.239.239 0 0 1-.005-.054c0-.057.014-.08.02-.089a.207.207 0 0 1 .079-.062c.11-.058.287-.09.478-.09.454 0 .607.133.664.2.077.09.099.195.128.335v.005z" stroke="currentColor" stroke-miterlimit="10" stroke-linejoin="round"/></svg><svg fill="none" viewBox="0 0 64 64" id="ic_facts8" xmlns="http://www.w3.org/2000/svg"><circle cx="32" cy="32" r="31.5" stroke="currentColor"/><path d="M41.376 26.5a13.44 13.44 0 0 1 2.625 8c0 5.648-3.469 10.486-8.392 12.5m-10.109.044A13.547 13.547 0 0 1 18.168 40" stroke="currentColor"/><path d="M39.211 28.635a10.45 10.45 0 0 1 1.79 5.865C41 40.299 36.3 45 30.5 45c-3.783 0-7.098-2-8.946-5M38 52.5a7.5 7.5 0 0 0-15 0" stroke="currentColor"/><circle cx="37.5" cy="24.5" r="4.5" stroke="currentColor"/><circle cx="37.5" cy="24.5" r="1.5" stroke="currentColor"/><rect x="13" y="37" width="13" height="3" rx=".5" stroke="currentColor"/><rect x="19" y="52" width="22" height="4" rx=".5" stroke="currentColor"/><path d="M34.292 27.628l-2.696 2.696a.5.5 0 0 1-.707 0l-4.434-4.433a.5.5 0 0 1 0-.707L38.148 13.49a.5.5 0 0 1 .707 0l4.434 4.434a.5.5 0 0 1 0 .707l-2.654 2.654M39.62 13.889l2.99-2.992m3.273 3.272L42.89 17.16" stroke="currentColor"/><path d="M27.122 26.312L25.834 27.6a.5.5 0 0 0 0 .707l2.619 2.618a.5.5 0 0 0 .707 0l1.288-1.288" stroke="currentColor"/><path d="M26.037 28.394l-1.288 1.288a.5.5 0 0 0 0 .707l1.739 1.739a.5.5 0 0 0 .707 0l1.288-1.288" stroke="currentColor"/><rect width="2.495" height="7.27" rx=".5" transform="scale(-1 1) rotate(45 -31.704 -48.126)" stroke="currentColor"/></svg><svg fill="none" viewBox="0 0 64 64" id="ic_facts9" xmlns="http://www.w3.org/2000/svg"><circle cx="32" cy="32" r="31.5" stroke="currentColor"/><path d="M39 30.817C39 26.316 35 10 30.2 10c-4.8 0-8.56 16.316-8.56 20.817 0 4.5 3.84 8.118 8.64 8.118 4.88 0 8.72-3.617 8.72-8.118z" stroke="currentColor" stroke-miterlimit="22.926"/><path d="M30.52 20.53v31.345M30.36 26.556l-3.28-3.617M45 40l-3-3M34.04 28.084l-3.52 3.697" stroke="currentColor" stroke-miterlimit="22.926" stroke-linecap="round"/><path d="M22.52 39.422c0-2.974-2.64-13.824-5.84-13.824-3.2 0-5.68 10.85-5.68 13.824s2.56 5.385 5.76 5.385c3.2 0 5.76-2.411 5.76-5.385zM51 36.59c0-3.871-2.75-17.992-6.083-17.992-3.334 0-5.917 14.121-5.917 17.991 0 3.87 2.667 7.009 6 7.009s6-3.138 6-7.009z" stroke="currentColor" stroke-miterlimit="22.926"/><path d="M17 32v20.254M45 27l-.08 25M19.24 37.412l-2.32 2.411M47.32 34L45 36.411" stroke="currentColor" stroke-miterlimit="22.926" stroke-linecap="round"/></svg><svg fill="none" viewBox="0 0 14 13" id="ic_heart" xmlns="http://www.w3.org/2000/svg"><path d="M9.938 0A4.074 4.074 0 0 0 7 1.237 4.074 4.074 0 0 0 4.062 0C1.815 0 0 1.78 0 3.981c0 2.383 3.308 5.61 5.492 7.752.446.438.831.815 1.108 1.101a.564.564 0 0 0 .8 0c.277-.286.662-.663 1.108-1.1C10.692 9.591 14 6.363 14 3.98 14 1.78 12.185 0 9.938 0z" fill="currentColor"/></svg><svg fill="none" viewBox="0 0 30 30" id="ic_instagram" xmlns="http://www.w3.org/2000/svg"><path fill-rule="evenodd" clip-rule="evenodd" d="M15 0C6.716 0 0 6.716 0 15c0 8.284 6.716 15 15 15 8.284 0 15-6.716 15-15 0-8.284-6.716-15-15-15zm-3.298 7.048C12.555 7.01 12.828 7 15.001 7h-.003c2.174 0 2.445.01 3.299.048.851.04 1.433.174 1.943.372.527.204.972.478 1.417.923.445.444.718.89.923 1.417.197.508.332 1.09.372 1.941.038.854.048 1.126.048 3.3 0 2.172-.01 2.444-.048 3.297-.04.852-.175 1.433-.372 1.942a3.927 3.927 0 0 1-.923 1.417c-.445.445-.89.719-1.416.923-.51.198-1.091.333-1.943.372-.854.039-1.125.048-3.298.048s-2.445-.01-3.299-.048c-.851-.04-1.433-.174-1.942-.372a3.918 3.918 0 0 1-1.416-.923 3.92 3.92 0 0 1-.923-1.417c-.198-.509-.332-1.09-.372-1.942C7.01 17.445 7 17.173 7 15s.01-2.445.048-3.299c.038-.851.173-1.433.372-1.941.205-.526.478-.973.923-1.417A3.918 3.918 0 0 1 9.76 7.42c.509-.198 1.09-.333 1.942-.372z" fill="currentColor"/><path fill-rule="evenodd" clip-rule="evenodd" d="M14.283 8.441h.718c2.136 0 2.389.008 3.232.046.78.036 1.204.166 1.486.276.373.145.64.318.92.598.28.28.453.547.598.92.11.282.24.705.275 1.485.039.844.047 1.097.047 3.232 0 2.135-.008 2.388-.047 3.232-.035.78-.166 1.203-.275 1.485-.145.373-.319.639-.599.919-.28.28-.546.453-.92.598-.28.11-.704.24-1.485.276-.843.038-1.096.046-3.232.046s-2.39-.008-3.233-.046c-.78-.036-1.203-.167-1.485-.276a2.478 2.478 0 0 1-.92-.598 2.48 2.48 0 0 1-.6-.92c-.109-.282-.24-.705-.275-1.485-.038-.843-.046-1.097-.046-3.233s.008-2.388.046-3.232c.036-.78.166-1.203.276-1.485.145-.373.319-.64.599-.92.28-.28.546-.453.92-.599.282-.11.705-.24 1.485-.276.738-.033 1.024-.043 2.515-.045v.002zm4.988 1.329a.96.96 0 1 0 0 1.92.96.96 0 0 0 0-1.92zM10.892 15a4.109 4.109 0 1 1 8.218 0 4.109 4.109 0 0 1-8.218 0z" fill="currentColor"/><path fill-rule="evenodd" clip-rule="evenodd" d="M15 12.333a2.667 2.667 0 1 1 0 5.333 2.667 2.667 0 0 1 0-5.333z" fill="currentColor"/></svg><svg fill="none" viewBox="0 0 21 21" id="ic_key" xmlns="http://www.w3.org/2000/svg"><path d="M15.5 6.996a1.5 1.5 0 1 0 .002-2.998 1.5 1.5 0 0 0-.002 2.998z" stroke="currentColor" stroke-miterlimit="10"/><path d="M11.117 13.355H9.155v1.96H7.193v1.96H5.23v1.96L4.403 20H1v-3.368l8.308-8.268a5.485 5.485 0 0 1 1.288-5.756 5.519 5.519 0 0 1 7.787 0 5.467 5.467 0 0 1 1.226 5.91 5.642 5.642 0 0 1-1.226 1.867c-1.533 1.531-3.74 1.96-5.672 1.317l-1.594 1.653z" stroke="currentColor" stroke-miterlimit="10"/></svg><svg fill="none" viewBox="0 0 29 4" id="ic_line" xmlns="http://www.w3.org/2000/svg"><path d="M2 2h25" stroke="currentColor" stroke-width="3" stroke-linecap="round"/></svg><svg fill="none" viewBox="0 0 28 28" id="ic_link_arrow" xmlns="http://www.w3.org/2000/svg"><path fill-rule="evenodd" clip-rule="evenodd" d="M14 28c7.732 0 14-6.268 14-14S21.732 0 14 0 0 6.268 0 14s6.268 14 14 14zm1.646-19.354a.5.5 0 0 1 .708 0l5 5a.5.5 0 0 1 0 .708l-5 5a.5.5 0 0 1-.708-.708l4.147-4.146H7a.5.5 0 0 1 0-1h12.793l-4.147-4.146a.5.5 0 0 1 0-.708z" fill="currentColor"/></svg><svg fill="none" viewBox="0 0 12 15" id="ic_location" xmlns="http://www.w3.org/2000/svg"><path clip-rule="evenodd" d="M11 5.554C11 3.04 8.761 1 6 1S1 3.039 1 5.554c0 2.787 1.404 4.826 4.212 8.437a1.001 1.001 0 0 0 1.577.001C9.596 10.405 11 8.495 11 5.554z" stroke="currentColor"/><circle cx="6" cy="6" r="2.5" stroke="currentColor"/></svg><svg fill="none" viewBox="0 0 24 17" id="ic_menu" xmlns="http://www.w3.org/2000/svg"><rect width="24" height="3" rx="1.5" fill="currentColor"/><rect y="7" width="24" height="3" rx="1.5" fill="currentColor"/><rect y="14" width="24" height="3" rx="1.5" fill="currentColor"/></svg><svg fill="none" viewBox="0 0 24 24" id="ic_menu1" xmlns="http://www.w3.org/2000/svg"><ellipse cx="12" cy="12" rx="4.989" ry="11" stroke="currentColor"/><ellipse rx="4.997" ry="10.982" transform="rotate(60.054 -4.381 16.38) skewX(.109)" stroke="currentColor"/><ellipse rx="4.997" ry="10.982" transform="rotate(119.946 2.532 9.468) skewX(-.109)" stroke="currentColor"/><ellipse rx=".999" ry=".998" transform="rotate(119.946 6.57 13.556) skewX(-.109)" fill="#fff" stroke="currentColor"/><ellipse cx="11.849" cy="11.58" rx="1.497" ry="1.5" stroke="currentColor"/><ellipse cx="9.73" cy="2.445" rx=".998" ry="1" fill="#fff" stroke="currentColor"/><ellipse rx="1" ry=".998" transform="rotate(-104.969 6.944 6.408) skewX(.063)" fill="#fff" stroke="currentColor"/></svg><svg fill="none" viewBox="0 0 24 24" id="ic_menu10" xmlns="http://www.w3.org/2000/svg"><path d="M18.5 9H22a1 1 0 0 0 1-1V2a1 1 0 0 0-1-1H2a1 1 0 0 0-1 1v6a1 1 0 0 0 1 1h3" stroke="currentColor"/><path d="M18 7h2a1 1 0 0 0 1-1V4a1 1 0 0 0-1-1H4a1 1 0 0 0-1 1v2a1 1 0 0 0 1 1h1" stroke="currentColor"/><rect x="5" y="5" width="11" height="16" rx="1" stroke="currentColor"/><path d="M6 23h12.5V4.5" stroke="currentColor" stroke-linecap="round"/><path d="M7.4 13.28c-.24 0-.4.16-.4.4 0 .24.16.4.4.4h.88v1.28H7.4c-.24 0-.4.16-.4.4 0 .24.16.4.4.4h.88v2.16c0 .24.16.4.4.4.24 0 .4-.16.4-.4v-2.16h3.68c.24 0 .4-.16.4-.4 0-.24-.16-.4-.4-.4H9.08v-1.28h1.6c2.32 0 3.6-1.28 3.6-3.04S13 8 10.68 8h-2c-.24 0-.4.16-.4.4v4.88H7.4zm1.68 0V8.8h1.6c1.92 0 2.8.88 2.8 2.24 0 1.36-.88 2.24-2.8 2.24h-1.6z" fill="currentColor"/></svg><svg fill="none" viewBox="0 0 26 26" id="ic_menu11" xmlns="http://www.w3.org/2000/svg"><path d="M10 1.5h6v-1h-6v1zM9.5 8V2h-1v6h1zM2 9.5h6v-1H2v1zM1.5 16v-6h-1v6h1zm6.5.5H2v1h6v-1zM9.5 24v-6h-1v6h1zm6.5.5h-6v1h6v-1zm.5-6.5v6h1v-6h-1zm7.5-1.5h-6v1h6v-1zm.5-6.5v6h1v-6h-1zM18 9.5h6v-1h-6v1zM16.5 2v6h1V2h-1zM18 8.5a.5.5 0 0 1-.5-.5h-1A1.5 1.5 0 0 0 18 9.5v-1zm7.5 1.5A1.5 1.5 0 0 0 24 8.5v1a.5.5 0 0 1 .5.5h1zM24 17.5a1.5 1.5 0 0 0 1.5-1.5h-1a.5.5 0 0 1-.5.5v1zm-6.5.5a.5.5 0 0 1 .5-.5v-1a1.5 1.5 0 0 0-1.5 1.5h1zM16 25.5a1.5 1.5 0 0 0 1.5-1.5h-1a.5.5 0 0 1-.5.5v1zM8.5 24a1.5 1.5 0 0 0 1.5 1.5v-1a.5.5 0 0 1-.5-.5h-1zM8 17.5a.5.5 0 0 1 .5.5h1A1.5 1.5 0 0 0 8 16.5v1zM.5 16A1.5 1.5 0 0 0 2 17.5v-1a.5.5 0 0 1-.5-.5h-1zM2 8.5A1.5 1.5 0 0 0 .5 10h1a.5.5 0 0 1 .5-.5v-1zM8.5 8a.5.5 0 0 1-.5.5v1A1.5 1.5 0 0 0 9.5 8h-1zM16 1.5a.5.5 0 0 1 .5.5h1A1.5 1.5 0 0 0 16 .5v1zm-6-1A1.5 1.5 0 0 0 8.5 2h1a.5.5 0 0 1 .5-.5v-1z" fill="currentColor"/></svg><svg fill="none" viewBox="0 0 24 24" id="ic_menu12" xmlns="http://www.w3.org/2000/svg"><path d="M8 17h8M20 16.664l-2.886-10.31a3 3 0 0 0-2.888-2.19L12 4.162" stroke="currentColor" stroke-linecap="round"/><circle cx="3.8" cy="16.5" r="2.5" stroke="currentColor"/><circle cx="20" cy="16.5" r="2.5" stroke="currentColor"/></svg><svg fill="none" viewBox="0 0 24 24" id="ic_menu13" xmlns="http://www.w3.org/2000/svg"><g clip-path="url(#ceclip0)" stroke="currentColor" stroke-miterlimit="10"><path d="M7.546 10.178a6.645 6.645 0 0 0-4.28 6.206c0 3.66 2.977 6.63 6.645 6.63a6.667 6.667 0 0 0 6.38-4.694" stroke-linecap="round"/><path d="M22.246 18.373l-2.631.901-3.164-6.47H9.78L8.688 6.011M9.247 9.488h5.875" stroke-linecap="round"/><path d="M8.13 4.476c.97 0 1.755-.783 1.755-1.75S9.099.976 8.13.976c-.969 0-1.754.783-1.754 1.75s.785 1.75 1.754 1.75z"/></g><defs><clipPath id="ceclip0"><path fill="#fff" transform="translate(2.3 .016)" d="M0 0h21v23.984H0z"/></clipPath></defs></svg><svg fill="none" viewBox="0 0 24 24" id="ic_menu14" xmlns="http://www.w3.org/2000/svg"><g clip-path="url(#cfclip0)" stroke="currentColor" stroke-miterlimit="10"><path d="M7.327 15.966H4.673c-.93 0-1.673-.708-1.673-1.593V8.56c0-.885.743-1.593 1.673-1.593h2.654c.93 0 1.673.708 1.673 1.593v5.814c0 .885-.743 1.593-1.673 1.593z"/><path d="M5 16v6.95M7 16v6.95M12 1.009v21.845M5.987 4.98a1.987 1.987 0 1 0 .001-3.973 1.987 1.987 0 0 0 0 3.974z" stroke-linecap="round"/><path d="M20.036 15.99h-4.053c-1.382 0-2.223-1.239-1.922-2.552l1.29-5.508c.121-.53.812-.935 1.562-.935h2.163c.75 0 1.44.404 1.561.935l1.291 5.508c.33 1.313-.51 2.551-1.892 2.551z"/><path d="M17 15.99v6.95M19 15.99v6.95M17.968 4.98a1.987 1.987 0 1 0 0-3.973 1.987 1.987 0 0 0 0 3.974z" stroke-linecap="round"/></g><defs><clipPath id="cfclip0"><path fill="#fff" transform="translate(1.3 .016)" d="M0 0h22v23.984H0z"/></clipPath></defs></svg><svg fill="none" viewBox="0 0 24 24" id="ic_menu15" xmlns="http://www.w3.org/2000/svg"><g clip-path="url(#cgclip0)" stroke="currentColor" stroke-miterlimit="10"><path d="M5.885 16h-1.77C3.495 16 3 15.292 3 14.407V8.593C3 7.708 3.496 7 4.115 7h1.77C6.505 7 7 7.708 7 8.593v5.814C7 15.292 6.504 16 5.885 16z"/><path d="M4 16v6.95M6 16v6.95M4.987 4.98a1.987 1.987 0 1 0 .001-3.973 1.987 1.987 0 0 0 0 3.974z" stroke-linecap="round"/><path d="M19.527 16h-3.04c-1.036 0-1.667-1.239-1.441-2.553l.968-5.512c.09-.53.608-.935 1.171-.935h1.622c.563 0 1.08.404 1.17.935l.97 5.512c.247 1.314-.384 2.553-1.42 2.553z"/><path d="M17 15.99v6.95M19 15.99v6.95M17.968 4.98a1.987 1.987 0 1 0 0-3.973 1.987 1.987 0 0 0 0 3.974z" stroke-linecap="round"/></g><path d="M12.166 17.882v5M10.166 17.882v5" stroke="currentColor" stroke-miterlimit="10" stroke-linecap="round"/><path d="M12.737 17.882H9.595c-.516 0-.929-.5-.929-1.062l.833-3.876c.167-.562.65-1.062 1.167-1.062h1c.516 0 1 .5 1.167 1.062l.833 3.876c0 .59-.413 1.062-.93 1.062z" stroke="currentColor" stroke-miterlimit="10"/><path d="M11.166 10.738a1.5 1.5 0 1 0 0-2.999 1.5 1.5 0 0 0 0 3z" stroke="currentColor" stroke-miterlimit="10" stroke-linecap="round"/><defs><clipPath id="cgclip0"><path fill="#fff" transform="translate(1.3 .016)" d="M0 0h22v23.984H0z"/></clipPath></defs></svg><svg fill="none" viewBox="0 0 24 24" id="ic_menu16" xmlns="http://www.w3.org/2000/svg"><path d="M13 13c.496 1.027.765 1.981.827 3.11.02.437 0 .892-.042 1.347a9.41 9.41 0 0 1-.64 2.543h4.67c.186-.775.657-5.468-2.815-8.5M1 22.77A2.77 2.77 0 0 1 3.77 20h16.46A2.77 2.77 0 0 1 23 22.77v0a.23.23 0 0 1-.23.23H1.23a.23.23 0 0 1-.23-.23v0z" stroke="currentColor"/><circle cx="12" cy="10" r="3" stroke="currentColor"/><circle cx="12" cy="10" r="1" stroke="currentColor"/><path d="M9.678 12l-1.644 1.644a1 1 0 0 1-1.415 0L4.5 11.523a1 1 0 0 1 0-1.415l6.673-6.674a1 1 0 0 1 1.414 0l2.122 2.121a1 1 0 0 1 0 1.415l-.727.727" stroke="currentColor"/><rect x="12.533" y="3.379" width="3.761" height="3" rx="1" transform="rotate(-45 12.533 3.379)" stroke="currentColor"/><path d="M13.5 17H4" stroke="currentColor" stroke-linecap="round"/></svg><svg fill="none" viewBox="0 0 24 24" id="ic_menu17" xmlns="http://www.w3.org/2000/svg"><ellipse cx="12" cy="5.5" rx="4" ry="4.5" stroke="currentColor"/><path d="M21 18s.5-4.5-2-5c-.963-.193-2.924-.752-4.084-1.09a1.006 1.006 0 0 0-1.232.632L13 14.5M3 18s.148-4.383 2-5c.754-.252 2.52-.756 4.09-1.195a.998.998 0 0 1 1.214.641L11 14.5m0 0h2m-2 0h2M10 21l2 2 2-2-1-6.5h-2L10 21z" stroke="currentColor"/></svg><svg fill="none" viewBox="0 0 25 24" id="ic_menu18" xmlns="http://www.w3.org/2000/svg"><path d="M10 5h10.5A3.5 3.5 0 0 1 24 8.5v0a3.5 3.5 0 0 1-3.5 3.5h-16A3.5 3.5 0 0 0 1 15.5v0A3.5 3.5 0 0 0 4.5 19h7" stroke="currentColor"/><path d="M9 21.5l2.5-2.5L9 16.5" stroke="currentColor" stroke-linecap="round" stroke-linejoin="round"/><circle cx="17" cy="19" r="3" stroke="currentColor"/><circle cx="7" cy="5" r="3" stroke="currentColor"/></svg><svg fill="none" viewBox="0 0 24 24" id="ic_menu19" xmlns="http://www.w3.org/2000/svg"><path d="M1.5 8.5h21V21a2.5 2.5 0 0 1-2.5 2.5H4A2.5 2.5 0 0 1 1.5 21V8.5zM1.5 6A2.5 2.5 0 0 1 4 3.5h16A2.5 2.5 0 0 1 22.5 6v2.5h-21V6z" stroke="currentColor"/><path fill-rule="evenodd" clip-rule="evenodd" d="M4.8 10.5a1 1 0 0 0-1 1v1.118a1 1 0 0 0 1 1h1.276a1 1 0 0 0 1-1V11.5a1 1 0 0 0-1-1H4.8zm0 1h1.276v1.118H4.8V11.5zm0 3a1 1 0 0 0-1 1v1.118a1 1 0 0 0 1 1h1.276a1 1 0 0 0 1-1V15.5a1 1 0 0 0-1-1H4.8zm0 1h1.276v1.118H4.8V15.5zm-1 4a1 1 0 0 1 1-1h1.276a1 1 0 0 1 1 1v1.118a1 1 0 0 1-1 1H4.8a1 1 0 0 1-1-1V19.5zm2.276 0H4.8v1.118h1.276V19.5zm3.2-9a1 1 0 0 0-1 1v1.118a1 1 0 0 0 1 1h1.275a1 1 0 0 0 1-1V11.5a1 1 0 0 0-1-1H9.276zm0 1h1.275v1.118H9.276V11.5zm-1 4a1 1 0 0 1 1-1h1.275a1 1 0 0 1 1 1v1.118a1 1 0 0 1-1 1H9.276a1 1 0 0 1-1-1V15.5zm2.275 0H9.276v1.118h1.275V15.5zm-1.275 3a1 1 0 0 0-1 1v1.118a1 1 0 0 0 1 1h1.275a1 1 0 0 0 1-1V19.5a1 1 0 0 0-1-1H9.276zm0 1h1.275v1.118H9.276V19.5zm3.475-8a1 1 0 0 1 1-1h1.276a1 1 0 0 1 1 1v1.118a1 1 0 0 1-1 1h-1.276a1 1 0 0 1-1-1V11.5zm2.276 0h-1.276v1.118h1.276V11.5zm-1.276 3a1 1 0 0 0-1 1v1.118a1 1 0 0 0 1 1h1.276a1 1 0 0 0 1-1V15.5a1 1 0 0 0-1-1h-1.276zm0 1h1.276v1.118h-1.276V15.5zm-1 4a1 1 0 0 1 1-1h1.276a1 1 0 0 1 1 1v1.118a1 1 0 0 1-1 1h-1.276a1 1 0 0 1-1-1V19.5zm2.276 0h-1.276v1.118h1.276V19.5zm3.2-9a1 1 0 0 0-1 1v1.118a1 1 0 0 0 1 1h1.276a1 1 0 0 0 1-1V11.5a1 1 0 0 0-1-1h-1.276zm0 1h1.276v1.118h-1.276V11.5zm-1 4a1 1 0 0 1 1-1h1.276a1 1 0 0 1 1 1v1.118a1 1 0 0 1-1 1h-1.276a1 1 0 0 1-1-1V15.5zm2.276 0h-1.276v1.118h1.276V15.5zm-1.276 3a1 1 0 0 0-1 1v1.118a1 1 0 0 0 1 1h1.276a1 1 0 0 0 1-1V19.5a1 1 0 0 0-1-1h-1.276zm0 1h1.276v1.118h-1.276V19.5z" fill="currentColor"/><path d="M7.068 1v4M16.932 1v4" stroke="currentColor" stroke-linecap="round" stroke-linejoin="round"/></svg><svg fill="none" viewBox="0 0 24 24" id="ic_menu2" xmlns="http://www.w3.org/2000/svg"><path d="M22.285 9.485c.88 4.529-3.04 9.1-8.754 10.21-2.264.44-4.442.194-6.368-.377-1.509-.448 2.219-3.616.442-4.768-1.271-.825-3.914 2.905-4.949 1.5-.544-.749-.883-1.62-1.062-2.543-.88-4.53 3.04-9.1 8.754-10.21 5.714-1.111 11.056 1.659 11.937 6.188z" stroke="currentColor" stroke-miterlimit="10"/><path d="M8 8a1 1 0 1 0 0-2 1 1 0 0 0 0 2zM5 12a1 1 0 1 0 0-2 1 1 0 0 0 0 2zM18 14a1 1 0 1 0 0-2 1 1 0 0 0 0 2zM18 9a1 1 0 1 0 0-2 1 1 0 0 0 0 2zM14 17a1 1 0 1 0 0-2 1 1 0 0 0 0 2zM13 7a1 1 0 1 0 0-2 1 1 0 0 0 0 2z" stroke="currentColor" stroke-miterlimit="10"/></svg><svg fill="none" viewBox="0 0 24 24" id="ic_menu20" xmlns="http://www.w3.org/2000/svg"><path d="M14.63 3.748c2.094-.523 4.098-.999 6.088-.6.795.16 1.282.918 1.282 1.73v5.694c0 .68-.667 1.162-1.338 1.058-2.142-.334-4.24.145-6.292.672-2.544.565-4.957 1.13-7.37.212V4.102c2.609.848 5.152.283 7.63-.354z" stroke="currentColor"/><path d="M7 20.5V3" stroke="currentColor" stroke-linecap="round" stroke-linejoin="round"/><path d="M9 17c3.866 0 7 1.12 7 2.5S12.866 22 9 22s-7-1.12-7-2.5c0-.925 1.408-1.733 3.5-2.166" stroke="currentColor" stroke-linecap="round"/></svg><svg fill="none" viewBox="0 0 24 20" id="ic_menu21" xmlns="http://www.w3.org/2000/svg"><rect x="1" y="1" width="22" height="18" rx="3" stroke="currentColor"/><path d="M1 13.5L6.5 8l7 6L19 9.5l4 3.5" stroke="currentColor" stroke-linecap="round" stroke-linejoin="round"/><circle cx="14" cy="7" r="2" stroke="currentColor"/></svg><svg fill="none" viewBox="0 0 24 24" id="ic_menu22" xmlns="http://www.w3.org/2000/svg"><path d="M12 14.423c.755 0 1.227.577 1.51 1.808l.347 1.192c.189.962.786 1.577 1.447 1.577h4.185C20.34 19 21 18 21 16.808v-4.885c0-.5-.315-.923-.66-.923H3.66c-.345 0-.66.423-.66.923v4.846c0 1.231.692 2.193 1.51 2.193h4.186c.66 0 1.259-.616 1.447-1.539l.378-1.23c.252-1.193.724-1.77 1.479-1.77zM1 13h2v3H1zM21 13h2v3h-2zM20 11a8 8 0 1 0-16 0" stroke="currentColor"/></svg><svg fill="none" viewBox="0 0 24 22" id="ic_menu23" xmlns="http://www.w3.org/2000/svg"><path d="M13 6h4M13 10h4M13 14h4" stroke="currentColor" stroke-linecap="round" stroke-linejoin="round"/><path d="M5 16V4a3 3 0 0 1 3-3h13" stroke="currentColor"/><path d="M15 18.222V19a2 2 0 0 0 2 2v0a2 2 0 0 0 2-2V6m0 0V3a2 2 0 0 1 2-2v0a2 2 0 0 1 2 2v2.107c0 .493-.4.893-.893.893H19z" stroke="currentColor"/><path d="M8 5l1.5 1.5L12 4M8 9l1.5 1.5L12 8M8 13l1.5 1.5L12 12" stroke="currentColor" stroke-linecap="round" stroke-linejoin="round"/><path d="M17 21H4a3 3 0 0 1-3-3v-1a1 1 0 0 1 1-1h12a1 1 0 0 1 1 1v2" stroke="currentColor"/></svg><svg fill="none" viewBox="0 0 24 24" id="ic_menu24" xmlns="http://www.w3.org/2000/svg"><path clip-rule="evenodd" d="M5.547 1.045c.266-.022.495.043.643.287.918 1.492 1.767 3.024 2.652 4.536.188.357.179.715-.101 1-.738.756-1.567 1.413-2.327 2.145-.27.26-.339.585-.157.928 1.79 3.356 4.214 5.817 7.48 7.67.702.397.975.33 1.52-.278.623-.694 1.185-1.482 1.906-2.077.286-.243.6-.27.93-.104 1.557.761 3.02 1.733 4.506 2.625.262.155.367.381.35.693-.18 3.188-2.405 4.571-5.486 4.571-3.493 0-7.46-2.585-10.223-5.208-2.948-2.81-5.553-6.49-6.177-10.612-.255-1.656-.18-3.574 1.321-4.808 1.11-.912 1.96-1.21 3.163-1.368z" stroke="currentColor"/></svg><svg fill="none" viewBox="0 0 24 24" id="ic_menu3" xmlns="http://www.w3.org/2000/svg"><path d="M22.724 8.87l-10.243 4.028c-.311.136-.65.136-.99 0L1.276 8.871a.42.42 0 0 1 0-.79l10.243-4c.311-.108.65-.108.962 0l10.243 3.973a.44.44 0 0 1 0 .817z" stroke="currentColor" stroke-miterlimit="10"/><path d="M20 10v5.493c0 .585-.336 1.14-.855 1.461C17.863 17.715 15.237 19 12 19c-3.237 0-5.863-1.286-7.145-2.046-.52-.32-.855-.876-.855-1.46V10" stroke="currentColor" stroke-miterlimit="10"/><path d="M1 8.5V15" stroke="currentColor" stroke-miterlimit="10" stroke-linecap="round"/></svg><svg fill="none" viewBox="0 0 24 24" id="ic_menu4" xmlns="http://www.w3.org/2000/svg"><path d="M3 5h4M13 8h3M13 10.998h3M13 13.996h3M13 16.994h3M13 19.992h3M18 8h3M18 10.998h3M18 13.996h3M18 16.994h3M18 19.992h3M3 7.998h4M3 10.996h4M3 13.994h4M3 16.992h4M3 19.99h4" stroke="currentColor" stroke-linecap="round"/><path d="M1 2l8 1.391V23H1V2zM11 5.782L23 2v21H11V5.782z" stroke="currentColor"/></svg><svg fill="none" viewBox="0 0 24 25" id="ic_menu5" xmlns="http://www.w3.org/2000/svg"><path d="M4 13.669c1.123 0 2.002-.908 2.57-2.059.583-1.182.93-2.78.93-4.52 0-1.737-.347-3.336-.93-4.518C6.002 1.42 5.123.512 4 .512c-1.123 0-2.002.909-2.57 2.06C.847 3.754.5 5.352.5 7.09c0 1.738.347 3.337.93 4.519.568 1.15 1.447 2.059 2.57 2.059zM12 13.669c1.123 0 2.002-.908 2.57-2.059.583-1.182.93-2.78.93-4.52 0-1.737-.347-3.336-.93-4.518C14.002 1.42 13.123.512 12 .512c-1.123 0-2.002.909-2.57 2.06-.583 1.182-.93 2.78-.93 4.519 0 1.738.347 3.337.93 4.519.568 1.15 1.447 2.059 2.57 2.059zM20 13.669c1.123 0 2.002-.908 2.57-2.059.583-1.182.93-2.78.93-4.52 0-1.737-.347-3.336-.93-4.518C22.002 1.42 21.123.512 20 .512c-1.123 0-2.002.909-2.57 2.06-.583 1.182-.93 2.78-.93 4.519 0 1.738.347 3.337.93 4.519.568 1.15 1.447 2.059 2.57 2.059z" stroke="currentColor"/><path d="M4 4.052v12.156M12 4.052v12.156M20 4.052v12.156M4 8.104l2-2.026M12 8.104l2-2.026M20 8.104l2-2.026M4 10.13L2 8.104M12 10.13l-2-2.026M20 10.13l-2-2.026" stroke="currentColor" stroke-linecap="round"/><path d="M1 18.234c1 0 1 .608 2 .608s1-.608 2-.608 1 .608 2 .608 1-.608 2-.608 1 .608 2 .608 1-.608 2-.608 1 .608 2 .608 1-.608 2-.608 1 .608 2 .608 1-.608 2-.608 1 .608 2 .608M1 20.868c1 0 1 .608 2 .608s1-.608 2-.608 1 .608 2 .608 1-.608 2-.608 1 .608 2 .608 1-.608 2-.608 1 .608 2 .608 1-.608 2-.608 1 .608 2 .608 1-.608 2-.608 1 .608 2 .608M1 23.501c1 0 1 .608 2 .608s1-.608 2-.608 1 .608 2 .608 1-.608 2-.608 1 .608 2 .608 1-.608 2-.608 1 .608 2 .608 1-.608 2-.608 1 .608 2 .608 1-.608 2-.608 1 .608 2 .608" stroke="currentColor" stroke-miterlimit="10" stroke-linecap="round"/></svg><svg fill="none" viewBox="0 0 24 24" id="ic_menu6" xmlns="http://www.w3.org/2000/svg"><path d="M8.813 23.16L5.114 8.802l1.253-.816 4.714 14.412-2.27.762zM21.273 15.76l-4.57-3.817-6.982-6.142 1.253-.816 11.91 9.012-1.611 1.764zM12.477 20.656l-1.696.254c-.024.016-.06.012-.06.012L6.37 7.984l1.253-.815 5.917 12.328-1.064 1.16zM17.498 16.92L8.466 6.62l1.253-.817 7.154 6.505 3.042 2.627c-.024.016-.035.05-.035.05l-.888 1.428-1.494.507z" stroke="currentColor" stroke-miterlimit="10"/><path d="M17.716 17.04l-1.434 2.328-2.742.39L7.627 7.166l.836-.543 9.253 10.416z" stroke="currentColor" stroke-miterlimit="10"/><path d="M4.76 1.907c1.611-1.05 3.742-.67 4.74.844l1.475 2.239L5.12 8.804l-1.475-2.24C2.647 5.05 3.148 2.956 4.76 1.907zM4.024 7.14L9.88 3.328" stroke="currentColor" stroke-miterlimit="10"/></svg><svg fill="none" viewBox="0 0 24 25" id="ic_menu7" xmlns="http://www.w3.org/2000/svg"><path d="M16.3 1.016c-.693 0-1.423.338-2 1.05-.577.711-1 1.761-1 2.947 0 1.186.423 2.236 1 2.947.577.712 1.307 1.05 2 1.05.692 0 1.423-.338 2-1.05.577-.711 1-1.761 1-2.947 0-1.186-.423-2.236-1-2.947-.577-.712-1.27-1.05-2-1.05z" stroke="currentColor" stroke-miterlimit="10"/><path d="M8.3 1.016v9.993M16.3 9.01v1.998M11.3 1.016v4.551c0 1.344-1.35 2.444-3 2.444s-3-1.1-3-2.444V1.016" stroke="currentColor" stroke-miterlimit="10" stroke-linecap="round"/><rect x="6.3" y="11.009" width="4" height="12.992" rx="2" stroke="currentColor"/><rect x="14.3" y="11.009" width="4" height="12.992" rx="2" stroke="currentColor"/></svg><svg fill="none" viewBox="0 0 24 26" id="ic_menu8" xmlns="http://www.w3.org/2000/svg"><path d="M3.06 7.876A2 2 0 0 1 5.056 6h13.887a2 2 0 0 1 1.997 1.876l.928 15A2 2 0 0 1 19.873 25H4.128a2 2 0 0 1-1.997-2.124l.93-15z" stroke="currentColor"/><path d="M8 12V5a4 4 0 0 1 4-4v0a4 4 0 0 1 4 4v7" stroke="currentColor" stroke-linecap="round"/></svg><svg fill="none" viewBox="0 0 24 24" id="ic_menu9" xmlns="http://www.w3.org/2000/svg"><path d="M4.562 9.153h3.627c1.733 0 2.58 1.563 3.708 1.563h4.756c.766 0 1.37.558 1.37 1.265 0 .707-.604 1.265-1.37 1.265h-4.957m-7.336.633l3.507 1.637c.685.335 1.41.484 2.176.484h4.796c.847 0 1.693-.223 2.459-.633l5.078-2.716c.605-.335.806-1.042.443-1.563-.04-.037-.04-.074-.04-.111-.443-.558-1.25-.744-1.934-.41l-2.66 1.414M.5 8h3.74v6.698H.5V8z" stroke="currentColor" stroke-miterlimit="10" stroke-linecap="round" stroke-linejoin="round"/></svg><svg fill="none" viewBox="0 0 14 25" id="ic_next_arrow" xmlns="http://www.w3.org/2000/svg"><path d="M2 2l10 10.5L2 23" stroke="currentColor" stroke-width="3" stroke-linecap="round" stroke-linejoin="round"/></svg><svg fill="none" viewBox="0 0 30 30" id="ic_odnokl" xmlns="http://www.w3.org/2000/svg"><path fill-rule="evenodd" clip-rule="evenodd" d="M0 15C0 6.716 6.716 0 15 0c8.284 0 15 6.716 15 15 0 8.284-6.716 15-15 15-8.284 0-15-6.716-15-15zm14.99.24c2.212 0 4.01-1.735 4.01-3.869C19 9.236 17.202 7.5 14.99 7.5c-2.212 0-4.01 1.736-4.01 3.871 0 2.134 1.798 3.87 4.01 3.87zm3.961 2.23a7.664 7.664 0 0 1-2.329.93l2.242 2.164c.46.443.46 1.161 0 1.604a1.204 1.204 0 0 1-1.66 0L15 20.04l-2.203 2.127c-.23.221-.53.332-.83.332-.301 0-.602-.11-.831-.332a1.107 1.107 0 0 1 0-1.604l2.241-2.164a7.675 7.675 0 0 1-2.328-.93 1.111 1.111 0 0 1-.368-1.564c.345-.531 1.07-.691 1.62-.357a5.247 5.247 0 0 0 5.398 0 1.199 1.199 0 0 1 1.62.357c.346.53.18 1.23-.368 1.563z" fill="currentColor"/><path fill-rule="evenodd" clip-rule="evenodd" d="M14.99 9.769c.915 0 1.66.718 1.66 1.602 0 .883-.744 1.602-1.66 1.602-.915 0-1.66-.719-1.66-1.602 0-.884.745-1.602 1.66-1.602z" fill="currentColor"/></svg><svg fill="none" viewBox="0 0 15 15" id="ic_phone" xmlns="http://www.w3.org/2000/svg"><path clip-rule="evenodd" d="M3.716 1.002c.158-.013.293.026.38.17.543.882 1.044 1.787 1.567 2.68.111.211.106.423-.06.591-.435.447-.926.835-1.375 1.268-.158.153-.2.346-.092.548 1.057 1.983 2.49 3.438 4.42 4.532.415.235.576.195.898-.164.368-.41.7-.875 1.126-1.228a.465.465 0 0 1 .55-.06c.92.45 1.784 1.023 2.662 1.55.155.092.217.226.207.41C13.893 13.182 12.578 14 10.757 14c-2.063 0-4.408-1.528-6.04-3.078-1.742-1.66-3.282-3.835-3.65-6.27-.15-.979-.106-2.112.78-2.841.656-.54 1.158-.716 1.87-.809z" stroke="currentColor"/></svg><svg fill="none" viewBox="0 0 25 24" id="ic_route" xmlns="http://www.w3.org/2000/svg"><path d="M10 5h10.5A3.5 3.5 0 0 1 24 8.5v0a3.5 3.5 0 0 1-3.5 3.5h-16A3.5 3.5 0 0 0 1 15.5v0A3.5 3.5 0 0 0 4.5 19h7" stroke="currentColor"/><path d="M9 21.5l2.5-2.5L9 16.5" stroke="currentColor" stroke-linecap="round" stroke-linejoin="round"/><circle cx="17" cy="19" r="3" stroke="currentColor"/><circle cx="7" cy="5" r="3" stroke="currentColor"/></svg><svg fill="none" viewBox="0 0 321 56" id="ic_route_step_path" xmlns="http://www.w3.org/2000/svg"><path d="M5 29.196C11.537 33.663 30.086 41 52.132 41 94.243 41 106.42 5 172 5s79.096 36 144 24.196" stroke="currentColor" stroke-width="10" stroke-linecap="round"/><circle cx="40" cy="41" r="12" fill="currentColor" stroke="#fff" stroke-width="6"/></svg><svg fill="none" viewBox="0 0 19 19" id="ic_search" xmlns="http://www.w3.org/2000/svg"><circle cx="7.955" cy="7.955" r="6.955" stroke="currentColor" stroke-width="2"/><path d="M13.363 13.363L18 18" stroke="currentColor" stroke-width="2" stroke-linecap="round"/></svg><svg fill="none" viewBox="0 0 24 31" id="ic_settings" xmlns="http://www.w3.org/2000/svg"><path d="M3 1v29M12 1v29M21 1v29" stroke="currentColor" stroke-linecap="round"/><circle cx="3" cy="9" r="2.5" fill="#666" stroke="currentColor"/><circle cx="12" cy="21" r="2.5" fill="#666" stroke="currentColor"/><circle cx="21" cy="9" r="2.5" fill="#666" stroke="currentColor"/></svg><svg fill="none" viewBox="0 0 11 25" id="ic_share_facebook" xmlns="http://www.w3.org/2000/svg"><path fill-rule="evenodd" clip-rule="evenodd" d="M7.315 25V12.498h3.254L11 8.19H7.315l.005-2.156c0-1.123.1-1.725 1.623-1.725h2.034V0H7.722c-3.91 0-5.285 2.09-5.285 5.604v2.587H0v4.308h2.437V25h4.878z" fill="currentColor"/></svg><svg fill="none" viewBox="0 0 23 19" id="ic_share_telegram" xmlns="http://www.w3.org/2000/svg"><path fill-rule="evenodd" clip-rule="evenodd" d="M9 18c.545 0 .786-.224 1.09-.49L13 14.967 9.371 13" fill="currentColor"/><path fill-rule="evenodd" clip-rule="evenodd" d="M9.01 12.539l8.524 6.202c.973.529 1.675.255 1.917-.89l3.47-16.102c.355-1.403-.543-2.04-1.474-1.623L1.074 7.863C-.316 8.413-.31 9.177.82 9.517l5.229 1.607 12.104-7.52c.571-.342 1.095-.159.665.218" fill="currentColor"/></svg><svg fill="none" viewBox="0 0 22 18" id="ic_share_twitter" xmlns="http://www.w3.org/2000/svg"><path fill-rule="evenodd" clip-rule="evenodd" d="M10.682 4.788l.048.779-.795-.096c-2.893-.365-5.42-1.604-7.566-3.686L1.319.753l-.27.762c-.572 1.7-.207 3.496.986 4.703.636.668.492.763-.604.366-.382-.127-.716-.223-.747-.175-.112.111.27 1.557.572 2.129.413.794 1.256 1.573 2.178 2.034l.779.365-.922.016c-.89 0-.922.016-.827.35.318 1.032 1.574 2.129 2.972 2.605l.986.334-.858.509a9.019 9.019 0 0 1-4.26 1.175c-.716.016-1.304.08-1.304.127 0 .16 1.94 1.05 3.068 1.399 3.386 1.032 7.408.587 10.428-1.176 2.146-1.255 4.292-3.75 5.293-6.165.54-1.287 1.081-3.639 1.081-4.767 0-.73.048-.826.938-1.7.525-.508 1.018-1.064 1.113-1.223.159-.302.143-.302-.668-.032-1.35.477-1.542.413-.874-.302.493-.508 1.08-1.43 1.08-1.7 0-.048-.238.032-.508.175-.286.159-.922.397-1.399.54l-.858.27-.779-.524c-.43-.286-1.033-.604-1.351-.7-.81-.222-2.05-.19-2.782.064-1.987.715-3.243 2.558-3.1 4.576z" fill="currentColor"/></svg><svg fill="none" viewBox="0 0 32 18" id="ic_share_vkontakte" xmlns="http://www.w3.org/2000/svg"><path fill-rule="evenodd" clip-rule="evenodd" d="M17.57 17.845s.577-.063.873-.375c.27-.285.261-.825.261-.825s-.036-2.518 1.155-2.89c1.174-.365 2.681 2.435 4.28 3.512 1.209.815 2.126.637 2.126.637l4.274-.059s2.236-.135 1.176-1.86c-.088-.142-.618-1.277-3.177-3.61-2.681-2.44-2.321-2.046.906-6.269 1.966-2.572 2.751-4.142 2.506-4.813C31.717.65 30.27.82 30.27.82l-4.81.03s-.358-.048-.622.107c-.259.152-.426.507-.426.507s-.76 1.99-1.776 3.682c-2.143 3.57-3 3.76-3.35 3.539-.815-.518-.612-2.078-.612-3.185 0-3.462.536-4.904-1.04-5.277-.523-.125-.908-.206-2.247-.22-1.716-.017-3.169.006-3.992.4-.548.264-.97.85-.712.884.318.042 1.037.19 1.42.7.492.66.475 2.138.475 2.138s.283 4.074-.662 4.58c-.648.347-1.537-.361-3.448-3.602-.978-1.659-1.717-3.493-1.717-3.493s-.142-.343-.397-.527c-.309-.223-.74-.292-.74-.292l-4.57.03s-.688.018-.94.311c-.224.26-.017.799-.017.799s3.58 8.22 7.633 12.364c3.717 3.798 7.937 3.55 7.937 3.55h1.912z" fill="currentColor"/></svg><svg fill="none" viewBox="0 0 14 26" id="ic_slider_arrow" xmlns="http://www.w3.org/2000/svg"><path d="M2 2l10 11L2 24" stroke="currentColor" stroke-width="3" stroke-linecap="round" stroke-linejoin="round"/></svg><svg fill="none" viewBox="0 0 52 52" id="ic_success" xmlns="http://www.w3.org/2000/svg"><circle cx="26" cy="26" r="25" stroke="currentColor" stroke-width="2"/><path d="M14 27l10.491 9.652a2 2 0 0 0 3.166-.624L37.5 15" stroke="currentColor" stroke-width="2" stroke-linecap="round" stroke-linejoin="round"/></svg><svg fill="none" viewBox="0 0 30 30" id="ic_telegram" xmlns="http://www.w3.org/2000/svg"><path fill-rule="evenodd" clip-rule="evenodd" d="M15 0C6.716 0 0 6.716 0 15c0 8.284 6.716 15 15 15 8.284 0 15-6.716 15-15 0-8.284-6.716-15-15-15zm3.722 21.81l-6.67-4.57 7.675-6.424c.337-.277-.073-.413-.52-.161l-9.473 5.542-4.092-1.184c-.884-.251-.89-.814.198-1.22l15.945-5.7c.728-.307 1.43.162 1.153 1.195l-2.715 11.866c-.19.843-.74 1.045-1.5.655z" fill="currentColor"/></svg><svg fill="none" viewBox="0 0 12 12" id="ic_time" xmlns="http://www.w3.org/2000/svg"><circle cx="6" cy="6" r="5.5" stroke="currentColor"/><path d="M6 6V2M10 6H6" stroke="currentColor" stroke-linecap="round" stroke-linejoin="round"/></svg><svg fill="none" viewBox="0 0 16 20" id="ic_toggle" xmlns="http://www.w3.org/2000/svg"><path d="M10 1L1.707 9.293a1 1 0 0 0 0 1.414L10 19" stroke="currentColor" stroke-linecap="round"/><path d="M7.707 10.707l6.586 6.586c.63.63 1.707.184 1.707-.707V3.414c0-.89-1.077-1.337-1.707-.707L7.707 9.293a1 1 0 0 0 0 1.414z" fill="currentColor"/></svg><svg fill="none" viewBox="0 0 30 30" id="ic_vkontakte" xmlns="http://www.w3.org/2000/svg"><path fill-rule="evenodd" clip-rule="evenodd" d="M15 0C6.716 0 0 6.716 0 15c0 8.284 6.716 15 15 15 8.284 0 15-6.716 15-15 0-8.284-6.716-15-15-15zm1.221 19.735c-.148.156-.436.188-.436.188h-.957s-2.11.124-3.968-1.775c-2.027-2.072-3.817-6.182-3.817-6.182s-.103-.27.01-.4c.125-.146.469-.155.469-.155l2.285-.015s.216.035.37.146a.703.703 0 0 1 .199.263s.369.918.858 1.747c.956 1.62 1.4 1.974 1.724 1.8.473-.252.331-2.29.331-2.29s.009-.738-.238-1.068c-.19-.255-.55-.33-.71-.35-.129-.017.083-.31.357-.442.411-.197 1.137-.209 1.996-.2.669.007.861.047 1.123.11.606.143.587.604.547 1.598-.013.297-.027.642-.027 1.04 0 .09-.003.185-.005.284-.014.509-.03 1.092.311 1.309.175.11.604.016 1.675-1.77.508-.846.888-1.84.888-1.84s.084-.178.213-.254c.132-.078.31-.054.31-.054l2.406-.014s.723-.086.84.235c.123.336-.27 1.121-1.253 2.407-.932 1.22-1.386 1.67-1.345 2.067.03.29.326.553.892 1.068 1.181 1.077 1.498 1.643 1.574 1.78l.014.024c.53.863-.587.93-.587.93l-2.137.03s-.459.089-1.063-.318c-.317-.213-.626-.561-.92-.893-.45-.506-.866-.974-1.22-.863-.596.186-.578 1.445-.578 1.445s.005.27-.13.412z" fill="currentColor"/></svg></svg>